<?xml version="1.0" encoding="UTF-8"?>
<svg id="Calque_2" data-name="Calque 2" xmlns="http://www.w3.org/2000/svg" xmlns:xlink="http://www.w3.org/1999/xlink" viewBox="0 0 1048 1048">
  <defs>
    <style>
      .cls-1 {
        fill: #1f1c15;
      }

      .cls-2 {
        fill: #f9eace;
      }

      .cls-3 {
        fill: #f8b521;
      }

      .cls-4 {
        fill: #391a12;
      }

      .cls-5 {
        fill: #f2a275;
      }

      .cls-6 {
        fill: #d14c4c;
      }

      .cls-7 {
        fill: #e46460;
      }

      .cls-8 {
        fill: #aba397;
      }

      .cls-9 {
        clip-path: url(#clippath);
      }
    </style>
    <clipPath id="clippath">
      <circle class="cls-3" cx="524" cy="524" r="524"/>
    </clipPath>
  </defs>
  <g id="Calque_1-2" data-name="Calque 1">
    <g>
      <circle class="cls-3" cx="524" cy="524" r="524"/>
      <g class="cls-9">
        <g>
          <path d="M778.73,1025.74c-19.53-44.79-27.34-97.96-46.49-142.22-19.69-45.49-47.26-50.06-89.65-27.69-30.33,16.01-55.08,34.72-88.6,46.19-8.44,2.88-48.67,14.53-54.26,9.77-.97-3.3,4.93-4.57,7.37-5.45,18.74-6.77,37.74-10.33,56.9-18.58,33.25-14.34,90.68-57.95,123.76-55.48,28.43,2.13,45.84,26.93,55.28,51.2,44.63-39.29,46.36-125.77-26.96-129.55l-20.89,23.05c17.96-4.29,63.39,9.11,22.61,21.94-27.39,8.61-54.27,12.37-81.47,23.67-49.74,20.64-107.69,47.33-155.02,72.79-3.8,2.05-21.59,15.31-24.69,12.36l3.84-11.12c-9.62-13.4-14.91-28.9-18.64-44.85l-14.88-2.64c1.82,7.51,4.66,14.77,7.87,21.78,1.79,3.95,15.12,25.98,13.71,27.39-4.73.32-9.73-5.89-12.68-9.54-8.9-11-16.71-27.34-17.04-41.61l-45.63-10.73c-14.72,32.16,32.89,36.09,41.65,60.52-3.32,2.64-23.82-13.17-28.28-14.27-2.05-.51-1.78-.61-3.36.81-3.75,3.38-14.26,25.46-17.12,31.45-10.65,22.24-21.57,62.22-32.92,80.31-4.72,7.54-18.99,18.95-25.5,27.07-11.13,13.88-26.04,35.88-18.16,53.93,4.37-.88,6.78-4.48,11.51-5.31,59.07-10.33,183.4,37.68,229.03,76.79,5.26,4.52,10.72,9.83,13.55,16.16,9.52-.23,24.18-30.06,27.85-38.2,20.13-44.79,31.43-95.19,49.09-141.09,1.44-10.54-11.23-30.81-12.62-42.84-.23-1.93-.94-6.47,1.73-7.04,4.22-.9,9.72,15.19,11.09,18.52,18.41,44.82,27.75,94.99,48.2,139.18,12.41-32.67,50.06-62.11,84.91-66.05,6.77-.75,15.81,0,22.92,0,.54,0,2.37,3.46,1.99-.63ZM533.18,1166.25c-1.62-6.67-26.72-22.9-33.56-27.2-48.03-30.11-131.16-61.41-187.99-60.16-4.07.09-8.29,1.77-12.47,1.7-5.35,9.99-9.61,21.08-4.25,32.01,27.42-4.25,55.66,1.66,82.15,8.8,42.07,11.35,97.23,34.25,131.39,61.37,3.96,3.14,10.16,7.51,11.53,12.09,2.43,1.74,14.42-23.6,13.21-28.62ZM344.15,1230.04c7.35-12.15,16.7-22.98,24.63-34.72.61-6.97-32.22-17.95-37.5-24.07-1.47-1.7-1.77-2.3-1.39-4.66,4.57-2.31,25.72,9.45,26.95,8.07-3.91-17.02,1.58-31.79,8.09-47.17-20.49-4.34-41.95-9.66-62.79-5.51-24.18,39.28-52.15,85.65-59.45,131.97-10.03,63.7,33.11,85.58,79.97,114.67l2.88-2.16,21.94-83.09c-24.78-13.2-14.73-34.52-3.34-53.33ZM375,1130.48c-11.86,10.97-14.56,51.03,1.42,57.64,2.44,1.01,2.08-1.55,2.59-2.7,4.29-9.38,6.51-19.67,11.44-28.81l4.14-.84c.22,3.68.09,7.21-.61,10.85-4.57,23.9-20.69,59.53-28.36,84.87-19.26,63.56-36.64,129.4-47.79,194.9.12,4.12,18.28,12.06,22.5,13.68,18.97,7.27,47.39,13.57,65.7,3.02,28.16-90.18,59.66-180.07,104.12-263.53-36.38-35.45-87.52-53.57-135.15-69.1ZM1022.13,958.92c-4.35-22.75-39.79-49-61.43-33-7.93,5.85-15.19,18.87-22.19,23.63-2.57,1.75-5.78,2.12-8.4,3.75-8.91,5.57-24.28,31.37-32.04,40.75-14.88,17.97-33.69,34.31-48.47,52.62-8.02,1.77-15.38,1.46-23.67,3.29-9.49,2.09-17.95,6.77-26.93,10.11.73-8.56-9.11-17.13-10.5-23.89-6.11-29.8-14.45-51.49-23.58-80.22-6.43-20.26-11.58-40.95-18.45-61.08,21.7-25.23,39.7-47.95,37.66-83.51-1.99-34.89-17.87-57.32-52.48-64.78-2.63-.57-10.68.43-9.49-2.6l22.21-37.07c42.33,35.32,100.81,12.04,125.4-32.35,17.91-32.34,21.81-76.97.92-108.77,6.63-13.47,11.07-27.09,3.94-41.58,5.39-3.37,11.2-5.12,16.45-8.96,28.01-20.49,26.04-70.66-3.13-89.4,53.89-36.56,34.12-136.4-39.09-122.02,8.53-44.9-35.8-84.05-79.58-73.36-5.12-45.57-55.48-84.61-99.28-58.99-4.92,2.88-11.47,10.74-14.5,12.32,2.39,2.09,4.54,4.3,6.43,6.59,37.77-41.27,101.19-1.11,96.62,52.79,51.79-18.33,93.6,23.36,78.18,75.49,30.02-12.12,59.19-5.84,68.79,27.59,10.03,34.95-7.31,63.45-37.76,79.57,3.68,3.75,9.03,4.27,13.36,6.82,29.05,17.07,25.6,73.69-9.27,80.88-3.32.69-17.7-.23-17.56,2.62,14.84,8.53,17.86,24.87,10.73,39.77-.85.63-13.99-9.61-16.61-11.01-32.54-17.48-64.89-3.6-85.58,24.05-2.76,3.68-15.27,25.46-17.07,25.72-5.39.8-4.92-10.34-4.72-13.79,1-16.28,5.76-47.15,9.81-62.98,2.12-8.24,3.6-14.95,10.33-20.68,2.28-1.94,5.69-1.83,6.79-4.65-17.16-4.91-30.1-11.5-39.64-27.08-10.06-16.4-11.12-33.29-4.14-51.09,2.66-6.77,7.33-12.27,10.1-18.9-7.06-.63-15.38.88-22.24,0-4.68-.59-16.43-5.07-20.96-7.35-22.63-11.42-33.13-35.34-32.3-60.04-2.57-.63-2.59.94-3.79,2.25-9.33,10.23-12.66,16.88-26.29,23.6-41.88,20.66-104.78,8.8-118.86-40.68-5.15,5.89-5.27,14.13-10.12,20.88-30.18,41.99-104.97,28.13-134-10.22-6.43-8.51-8.52-19.94-16.94-26.84-4.45,11.4,2.51,21.15,6.44,31.43-10.54,16.31-25.71,31.07-45.28,35.55-16.35,3.75-32.98,3.73-42.03-12.46-3.28-1.98-5.98.97-6.17,4.07-.73,11.55,16.15,20.35,26.35,19.59-10.06,27.69-16.36,55.59-16.45,85.31l-22.2,29.09c-40.17,1.95-56.04-63.11-20.26-78.3,2.28-.97,11.63-1.25,10.38-4.41-1.68-4.21-12.89-4.27-17.24-5.69-66.82-21.62-35.37-128.95,33.42-104.2-.23-4.06-3.67-6.62-5.1-10.39-21.5-56.4,35.68-111.25,87.97-75.84l14.18,13.44c.77-39.43,25.56-69.38,64.43-76.43,35.71-6.48,76.89,10.41,97.13,40.67,2.18-2.41,4.66-4.72,7.4-6.86-42.37-63.62-157.19-61.79-175.71,21.06-9.26-3.57-16.7-9.92-26.88-11.53-55.62-8.75-94.56,39.63-79.6,92.39-70.59-2.45-89.49,101.49-24.28,125.4-27.44,24.79-17.98,73.73,16.61,86.5,3.15,1.16,13.43,2.22,14.26,4.61l.15,4.57c-7.4.93-19.33-4.69-23.25,4.38-4.76,11.05,5.66,24.78,17.86,21.23-1.36,21.81,1.66,42.74,13.17,61.56-49.89,99.12,9.75,209.35,110.84,240.4-8.44,16.82-3.98,34.09,12.16,43.82-22.47,35.78-37.95,75.39-51.99,115.17-21.58,18.12-51.91,49.52-47.68,80.15.93,6.65,7.2,13.09,7.6,16.43.55,4.64-3.34,11.55-2.24,18.64.74,4.83,7.08,13.08,6.67,17.52-.23,2.41-21.26,35.42-24.52,41.64-16.47,31.46-36.37,79-33.44,114.79,4.26,52.07,50.9,74.64,90.39,98.62-5.18,19.25-9.29,39.01-10.8,58.96-13.13,2.84-15.7,18.45-17.43,29.99-2.2,14.68-5.24,35.22,9.95,43.63l-3.4,31c-17.47-4.23-34.13-.23-41.09,17.54-2.02,5.16-2.9,15.5-5.47,18.78-4.45,5.65-27.34,19.57-34.95,25.72-21.58,17.46-51.78,44.12-54.62,73.44-4.49,46.46,17.85,72.28,60.97,84.6,62.8,17.91,111.72-2.25,159.38-42.18,23.52-19.71,51.18-46.22,58.68-76.79h1.99c2.21,2.44,4.72,4.43,7.8,5.69,86.01,34.82,123.22-21.86,135.55-99.6,2.45-15.47,2.36-33.03,6.01-47.91,8.88-36.17,38.08-85.8,4.38-119.75-8.28-8.34-19.65-10.33-26.27-15.52-2.18-1.71-6.2-10.18-9.45-13.47-15.97-16.14-47.14-24.09-67.51-12.12-4.85,2.86-7.16,7.52-12.08,8.8.16-14.03-9.29-17.52-20.18-22.32,9.17-23.02,18-46.25,28.02-68.91,3.64-8.22,19.2-45.24,23.02-49.44,1.28-1.4,4.88-1.01,7.39-2.36,13.13-7.13,14.42-24.92,20.06-30.49,1.51-1.48,8.53-4.15,11.66-6.54,23.24-17.75,43.03-79.09,52.71-107.7,7.14-21.1,13.61-42.41,18.87-64.06,2.09.22,2.04,2.05,2.59,3.46,11.13,28.42,16.69,61.41,29.09,89.53,3.8,8.61,7.01,10.57,11.11,17.2,5.74,9.31,7.9,23.04,13.55,32.28,1.63,2.66,6.43,6.51,6.79,8.09.46,1.97-1.17,5.16-1.2,7.76-.28,21.46-.15,39.93,10.64,59.18l-39.5,41.37c-8.64,33.27-32.01,70.55-39.23,103.65-.92,4.19-2.09,9.97,4,9.53,16.49-7.63,33.83-13.56,50.23-21.34,17.85-8.47,34.25-19.92,52.91-26.62l36.54-39.04c3.11-1.4,11.69,4,16.94,4.61,15.19,1.75,28.06-4.93,35.86-17.78,2.31-3.79,5.9-15.74,6.77-16.8.57-.69,12.04-4.92,15.76-7.86,7.56-5.96,10.39-16.09,14.98-20.06,3.29-2.83,11.92-4.81,17.51-9.46,10.31-8.56,10.77-17.32,16.9-24.88,1.7-2.1,5.76-3.41,7.98-5.49,16.2-15.14,19.49-35.86,18.28-57.3-.27-4.83-3.71-13.21-2.1-16.76,15.06-16.42,30.1-32.96,44.54-49.9,4.02-4.72,7.79-11.36,11.42-15.56,2.57-2.99,8.01-5.34,10.81-9.4,2.79-4.03,2.79-8.38,4.77-11.4,2.13-3.24,15.22-16.98,19.52-22.27,11.96-14.68,23.79-21.88,19.57-43.9ZM421.53,1463.82c-.66-3.37-4.19-3.88-4.03-7.95.04-.96,4.68-17.74,5.41-18.37.49-.43,3.03,1.25,4.46.97,2.8-.58,7.86-5.03,11.07-4.97l11.39,8.73c-15.53,13.06-14.73,32.43-3.26,47.93l-20.99,67.32c-6.2-3.83-11.48-8.69-17.62-12.7-4.12-2.68-12.23-4.08-11.97-9.33.07-1.23,1.33-9.6,1.58-10.04.35-.61,8.32-4.7,11.09-8.45,6.79-9.19,15-42.19,12.87-53.14ZM370.31,1211.04l-18.86,62.01c-26.78-10.72,9.06-48.28,18.86-62.01ZM416.16,1650.48c-1.99-1.93,8.24-12.2,9.99-14.94,21.39-33.42,3.46-71.24-29.55-87.5-4.58,12.27,9.06,17.62,14.75,25.69,5.28,7.49,7.39,16.77,5.82,25.88-.65,3.81-6.15,12.6-6.05,13.82.07.84,6.07,6.13,7.09,10.04,4.7,17.86-9.99,40.67-29.94,31.29-31.6-14.85-60.69-49.75-94.44-63.27-8.42-3.37-19.53-4.29-25.96-9.75,20.91-5.8,41.11,7.31,57.84,18.31,19.26,12.67,37.38,29.17,56.86,41.54,8.18,5.2,17.19,13.01,24.76,2.09,15.03-21.66-14.6-30.6-27.75-39.54-21.45-14.57-43.5-33.56-66.32-45.56-11.58-6.08-26.18-12.64-38.58-4.42-9.69,6.43-7.74,17.46-11.51,26.23-3.29,7.63-43.46,34.79-53.27,43.78-34.83,31.92-56.52,70.49-2.71,98.44,57.91,30.09,117.62,10.66,163.78-29.04,5.86-5.07,18.52-20.61,24.32-22.87,6.17-2.4-4.5,11.08-5.41,12.13-21.57,25.58-61,54.09-94.55,59.12-43.71,6.55-90.99-.38-120.7-35.32-1.01-1.19-2.64-4.37-2.44-.26,16.26,49.13,88.12,60.31,131.84,49.67,37.14-9.04,87.13-48.2,110.72-77.99,9.25-11.66,19.34-25.72,20.25-41.06l-8.16,10.02-10.69,3.45ZM390.55,1566.23c-7.76-10.55-2.97-26.19-2.71-38.42-19.61,2.47-37.78,2.25-56.9-3.07-6.54-1.82-12.08-5.15-18.58-6.36l-4.17,27.49,95.15,62.8c14.32-22.13-2.66-28.63-12.81-42.43ZM308.99,1451.01c-5.74,9.95-10.5,37.92-4.49,47.6,12.43,19.99,72.49,25.07,91.81,15.43,10.68-5.34,13.78-31.8,15.8-42.82-31.69,14.63-78.06,2.8-103.12-20.21ZM578.58,1378.21c-.42,4.8,1.77,9.29,2.08,14.1,1.39,21.9-2.63,80.49-22.51,93.51-11.11,7.27-29.84,6.87-32.49-8.87-.65-3.84.92-20.35-2.33-20.53-12.36,11-52.22,26.54-64.07,10.1-2.37-3.29-4.45-10.08-.65-12.81l3.36,4.02c.07-13.49-11.7-8.2-14.18,1.31-8.01,30.67,23.99,39.67,47.96,34.48,8.79-1.9,15.45-7.06,24.2-7.47-16.23,20.04-45.08,21.59-67.38,10.77l-21.51,68.14c8.16,11.36,13.55,26.26,13.55,40.37-.01,12.47-7.21,18.4,3.19,30.37,18.71,21.53,65.39-3.36,80.22-20.96,27.77-32.98,24.12-72.33,36.79-108.79.69-1.97,1.33-4.5,3.67-5.08-5.53,51.8-14.41,117.74-67.8,141.79l-23.83,7.82c46.69,9,75.53-14.54,91.34-56.24,12.21-32.23,10.3-59.14,17.09-90.75,2.82-13.08,9.92-27.09,13.55-40.37,8.8-32.19,13.43-65.96-20.22-84.91ZM483.74,1359.51c-2.98,26.57-17.35,51.13-36.56,69.23,12.13,11.28,17.87,6.93,22.3,24.87,2.63,10.66-2.24,12.12,13.24,10.69,34.89-3.24,50.99-28.21,53.39-61.18,2.56-35.25-17.32-54.35-52.37-43.61ZM541.5,1349.24c-11.89-5.47-34.29-8.79-44.47.63,14.17-3.53,29.22.5,38.05,12.51,23.16,31.54-.66,70.01-1.67,104.16-.15,5.05.71,9.3,3.03,13.79,23.31,8.9,29.66-23.66,32.73-40.1,6.17-32.93,7.95-74.58-27.67-90.99ZM472.35,1342.21c-1.33-1.43-12.28-6.38-13.05-5.81l-32.35,91.66c15.6-3.57,26.6-16.39,34.39-29.63,6.83-11.62,21.53-44.95,11.01-56.22ZM712.96,1305.82c-2.31-4-.94-8.94-1.89-12.94-1.02-4.43-11.46-14.06-15.87-15.18-5.08-1.28-7.35,1.06-11.35.73-8.86-.74-5.81-10.08-9.29-14.42-.61-.75-4.6-3.1-5.5-2.95l-3.34,3.44-23.1,56.43c11.54.15,22.69,9.21,24.26,20.88,14.02-7.71,29.1-14.21,42.69-22.67,2.87-1.81,9.45-4.6,9.91-7.63.5-3.28-4.38-1.95-6.52-5.67ZM766.61,1243.41l-47.8,52.58c-3.76,8.26,4.88,7.09,8.71,13.45,12.67-21.84,46.6-36.1,39.09-66.04ZM749.77,1208.39l-58.62,59.97c-.46,2.84.46,1.58,1.85,2.13,10.47,4.11,20.03,8.36,23.76,20.08l48.3-52.19c1.9-6.46-9.27-25.6-15.29-29.99ZM746.37,1204.98c-4.48-5.19-12.28-11.79-19.38-7.27l-52.73,55.09-.63,2.7c5.77,1.55,10.02,7.49,9.44,13.51l63.31-64.03ZM863.24,1062.53c-21.26-10.68-44.85-3.48-64.3,7.63-6.12,3.5-23.33,18.59-26.49,19.34-1.06.26-2.06.34-3.13.23.04-7.04,7.32-10.8,10.77-16.16-35.38,6.62-68.89,29.26-80.22,64.68-6.79,21.27-6.78,50.85,5.41,70.08,15.93-15.15,20.02-31.77,43.7-14.01,22.77,17.09,34.78,55.33,21.68,81.42,16.76,6.35,31.03,2.28,38.93-14.3,10.34-21.74,5.77-47.7-3.64-68.81-4.23-9.48-11.63-17.48-13.71-27.39,3.99-4,18.35,18.25,19.94,21.15,4.66,8.44,11.35,25.42,12.4,34.78.78,6.98-.57,15.12,0,22.24,31.3-19.11,28.21-56.03,15.06-85.83-1.4-3.19-11.48-18.71-9.65-20.65,5.85.46,9.6,6.52,12.67,10.89,12.75,18.16,18.25,44.06,14.29,65.93,39.87-24.41,22.96-71.83,5.38-105.13,6.25-4.8,19.45,21.97,21.26,26.6,5.26,13.55,8.67,30.46,5.72,44.83,33.43-30.9,10.51-99.16-26.06-117.52ZM776.06,1035.15c-43.4-5.07-87.42,24.06-101.89,64.7l16.96,37.04c12.79-40.59,50.95-68.07,92.73-72.41,3.26-.34,6.11,2.59,8.36-1.02l-16.15-28.31ZM955.34,1031.78l-53.27,56.68-.46,2.95,5.22,11.79,49.16-55.28-.65-16.15ZM946.59,1018.27c-2.37-2.93-12.95-14.1-15.92-13.32l-52.02,54.69c-.93,3.5,5.9,6.69,8.63,9.85,3.99,4.64,6.98,10.1,10.82,14.84l53-57.63c.54-2.8-2.72-6.24-4.52-8.44ZM908.18,996.07l-49.87,53.89,16.12,8.76,51.95-57.96c-4.64-3.09-12.74-7.21-18.2-4.69ZM940.08,977.6c-14.94-6.38-18.14-3.84-26.53,9.66,23.6,5.51,43.49,24.71,51.92,47.19,23.6-17.9-6.43-48.76-25.4-56.86ZM968.12,972.48c-9.5-7.89-28.99-19.17-38.38-6.07l23.85,11.17c9.02,6.23,17.71,14.25,23.58,23.59,1.37,2.18,4.83,13.83,7.8,11.71,7.37-12.79-6.87-32.12-16.85-40.41ZM994.89,936.29c-22.51-15.3-32.66-1.06-46.29,15.93,21.2,7.36,40.22,23.66,45.84,45.84,23.31-18.94,27.26-43.57.44-61.78ZM480.19,856.52c-8.21-.4-18.4-3.07-26.27-3.41-1.13-.04-1.62-1.94-1.39,1.4.24,3.75,12.13,40.36,14.15,39.75l18.18-11.47,63.38-30.29c-22.46,3.29-45.29,5.15-68.06,4.02ZM686.7,785.37c-2.41.71-15.7,13.03-18.48,15.88l48.53-13.45c-8.8-.42-21.55-4.96-30.05-2.43ZM577.91,755.44c-28.25-11.51-58.57-5.46-76.17,20.21-5.39-.65-1.81-4.99-.42-8.52l6.48-9c-7.78,2.04-15.04,1.25-23.17,3.1-14.17,3.24-28.73,12.64-36.13,25.19,35.84,8.55,75.07,4.08,107.9-12.72,2.88-1.48,24.14-14.81,21.5-18.25ZM534.19,700.08c-8.84,16.89-33.62,12.51-46.57,2.78-2.17,9.69-16.97,8.87-24.95,8.07-10.18-1.01-18.82-5.85-26.72-11.94-10.58,7.75-24.53,13.6-37.93,11.89-1.43-.18-9.33-4.95-7.47-.62.44,1.02,6.74,6.94,8.17,8.02,23.14,17.38,64.62,16.03,91.82,11.12,19.41-3.5,37.92-10.55,50.97-25.87l-7.32-3.45ZM548.28,664.43c-16.39-9.17-56.37-19.01-74.81-18.28-4.18.18-16.88,6.28-23.56,7.56-17.13,3.28-30.73,2.49-46.83-4.49-1.99-.86-3.64-3.57-5.05-3.79-8.82-1.32-49.48,11.35-58.73,16.28-22.78,12.2-37.31,44.48-.01,33.7,6.74-1.95,11.36-6.24,17.56-8.72-3.25,30.81,29.98,14.21,38.43-1.36,4.58-1.43.5,10.96.88,12.55,1.46,6.34,16.01,3.32,20.37,1.97,8.45-2.59,13.68-8.3,20.53-13.22,3.26-.01,5.34,5.89,8.07,8.17,7.89,6.56,24.37,8.59,33.85,5.51,4.14-4.29,1.19-10.03,2.56-14.96,10.14,11.89,30.33,24.69,44.56,12.1l-2.09-13.47c12.37,6.66,29.82,18.84,44.06,11.05,14.06-7.7-12.08-26.31-19.79-30.61ZM859.6,567.42c-23.68-29.44-60.63-25.09-84.23,1.98-8.71,9.97-18.39,36.44-32.35,35.17-20.87-1.9-7.37-43.74-7.39-56.72-18.31,1.6-35.83-2.94-53.93-4.04,3.77,80.85-84.37,125.86-154.15,95.52-41.29-17.95-65.94-52.34-65.55-98.21l-20.3-.78-6.62,29.04c7.89,1.04,20.7,6.78,20.17,16.23-12.93-3.84-22.48-9.77-36.72-7.74-22.92,3.29-34.32,34.56-21.23,52.89,11.23,15.72,33.9,17.12,51.26,13.53,5.27-1.09,22.3-8.82,23.55-8.75,1.73.07,3.36,2.14,5.51,2.51,32.69,5.53,63.07,5.69,90.15,28.46,2.51,2.12,10.24,11.74,11.03,11.97,3.87,1.12,10.58-3.18,20.23,1.25,30.07,13.84,6.5,58.81-7.08,76.96-26.33,35.17-87.13,49.09-128.93,42.88-41.92-6.23-94.05-39.43-95.4-85.91-8.2.38-17.46-3.19-18.89-12.13-20.31,10.72-50.02,6.71-39.72-22.89,9.23-26.54,55.59-36.84,80.18-40.47l-5.38-10.22c-12.41,2.47-24.3,7.8-37.1,8.86-34.4,2.8-62.45-10.55-85.57-35.03-41.49,92.69,8.82,177.96,95.75,216.31,126.59,55.85,308.09,22.38,372.73-109.75,1.68-3.45,5.84-17.42,7.33-18.35,4.12-2.57,17.43,11.3,22.21,14.27,74.66,46.41,149.56-75.77,100.44-136.83ZM561.46,451.2c-96.6,9.06-110.75,143.34-23.35,176.22,52.53,19.76,116.46-7.43,125.9-65.58,10.58-65.21-36.71-116.81-102.55-110.64ZM333.65,447.15c-36.85,3.8-67.01,30.72-74.58,66.95-16.5,79.06,50.02,129.47,122.07,96.46,3.91-21.7,13.97-39.29,37.04-43.84,24.72-62.33-14.14-126.84-84.53-119.58ZM716.75,406.32c-25.71-2.91-48.61-16.61-60.66-39.77-2.49-4.79-3.32-9.77-6.08-14.15-42.19,32.63-107.38,29.21-140.18-14.81-35.21,46.91-109.13,40.03-146.93,0-16.82,21.1-37.11,37.19-65.12,39.31-8.48,23.97-13.33,48.66-16.43,73.88,10.07-4.23,18.84-10.89,29.28-14.52,63.41-21.96,124.61,15.34,130,82.39l1.91,2.09,21.96-1.37c15.73-73.72,98.43-107.43,163.31-70.62,27.09,15.38,44.89,38.43,51.44,69.2l59.05,12.39c1.62-11.27,3.49-23.14,9.29-33.07-33.08-18.44-48.03-55.66-30.84-90.95Z"/>
          <path class="cls-4" d="M871.84,513.55c-3.32.69-17.7-.23-17.56,2.62,14.84,8.53,17.86,24.87,10.73,39.77-.85.63-13.99-9.61-16.61-11.01-32.54-17.48-64.89-3.6-85.58,24.05-2.76,3.68-15.27,25.46-17.07,25.72-5.39.8-4.92-10.34-4.72-13.79,1-16.28,5.76-47.15,9.81-62.98,2.12-8.24,3.6-14.95,10.33-20.68,2.28-1.94,5.69-1.83,6.79-4.65-17.16-4.91-30.1-11.5-39.64-27.08-10.06-16.4-11.12-33.29-4.14-51.09,2.66-6.77,7.33-12.27,10.1-18.9-7.06-.63-15.38.88-22.24,0-4.68-.59-16.43-5.07-20.96-7.35-22.63-11.42-33.13-35.34-32.3-60.04-2.57-.63-2.59.94-3.79,2.25-9.33,10.23-12.66,16.88-26.29,23.6-41.88,20.66-104.78,8.8-118.86-40.68-5.15,5.89-5.27,14.13-10.12,20.88-30.18,41.99-104.97,28.13-134-10.22-6.43-8.51-8.52-19.94-16.94-26.84-4.45,11.4,2.51,21.15,6.44,31.43-10.54,16.31-25.71,31.07-45.28,35.55-16.35,3.75-32.98,3.73-42.03-12.46-3.28-1.98-5.98.97-6.17,4.07-.73,11.55,16.15,20.35,26.35,19.59-10.06,27.69-16.36,55.59-16.45,85.31l-22.2,29.09c-40.17,1.95-56.04-63.11-20.26-78.3,2.28-.97,11.63-1.25,10.38-4.41-1.68-4.21-12.89-4.27-17.24-5.69-66.82-21.62-35.37-128.95,33.42-104.2-.23-4.06-3.67-6.62-5.1-10.39-21.5-56.4,35.68-111.25,87.97-75.84l14.18,13.44c.77-39.43,25.56-69.38,64.43-76.43,35.71-6.48,76.89,10.41,97.13,40.67,2.72,4.04,5.05,8.34,6.96,12.85,1.87.38,1.71.27,2.79-.86,3.33-3.49,5.78-7.78,10.03-11.24,33.7-27.46,90.11-17.86,121.26,9.44,2.06-3.09,4.25-5.85,6.52-8.33,37.77-41.27,101.19-1.11,96.62,52.79,51.79-18.33,93.6,23.36,78.18,75.49,30.02-12.12,59.19-5.84,68.79,27.59,10.03,34.95-7.31,63.45-37.76,79.57,3.68,3.75,9.03,4.27,13.36,6.82,29.05,17.07,25.6,73.69-9.27,80.88Z"/>
          <path class="cls-1" d="M753.82,1026.38c-34.85,3.93-72.5,33.37-84.92,66.04-20.44-44.19-29.78-94.35-48.2-139.17-1.37-3.34-6.87-19.43-11.1-18.53-2.67.57-1.95,5.11-1.73,7.04,1.39,12.02,14.07,32.3,12.62,42.84-17.65,45.89-28.97,96.3-49.09,141.08-3.66,8.15-18.33,37.98-27.84,38.21-2.83-6.33-8.29-11.65-13.54-16.16-45.63-39.13-169.96-87.12-229.03-76.79-4.74.83-7.14,4.44-11.52,5.31-7.88-18.05,7.03-40.05,18.16-53.93,6.5-8.11,20.78-19.54,25.51-27.06,11.35-18.09,22.26-58.08,32.91-80.32,2.86-5.98,13.38-28.07,17.13-31.45,1.57-1.42,1.31-1.32,3.35-.81,4.46,1.11,24.97,16.92,28.28,14.28-8.77-24.44-56.37-28.36-41.65-60.53l45.63,10.73c.32,14.27,8.14,30.61,17.03,41.61,2.95,3.65,7.96,9.87,12.69,9.54,1.42-1.41-11.91-23.44-13.71-27.39-3.2-7-6.04-14.27-7.87-21.79l14.88,2.65c3.74,15.95,9.02,31.46,18.64,44.85l-3.84,11.11c3.1,2.95,20.9-10.31,24.7-12.36,47.33-25.46,105.28-52.16,155.01-72.79,27.21-11.29,54.08-15.06,81.47-23.67,40.8-12.83-4.65-26.23-22.6-21.94l20.89-23.05c73.31,3.79,71.59,90.26,26.96,129.55-9.43-24.26-26.84-49.06-55.28-51.19-33.08-2.48-90.5,41.14-123.76,55.47-19.15,8.25-38.15,11.81-56.9,18.58-2.43.88-8.34,2.14-7.37,5.44,5.59,4.76,45.81-6.88,54.25-9.77,33.53-11.47,58.28-30.18,88.61-46.19,42.39-22.37,69.96-17.81,89.65,27.68,19.15,44.27,26.96,97.44,46.5,142.22.37,4.1-1.46.64-2,.64-7.11,0-16.15-.76-22.92,0ZM348.76,1002.13c-4.41,5.81,20.4,5.33,22.06,5.55,10.65,1.41,21.37,3.6,31.86,5.88,24.51,5.31,56.37,19.11,79.19,21.94,2.88.36,5.03,1.21,7.04-1.7-43.04-18.37-92.82-36.52-140.16-31.66ZM518.58,1118.04c-1.39-8.55-8.64-13.61-12.36-22-4.69-10.6-5.99-21-5.13-32.57.48-6.44,4.2-16.16,4.07-21.65-.05-2.23-.07-3.26-2.07-4.63-5.46,4.03-6.68,9.88-8.1,16.13-5.75,25.29-.92,52.03,23.59,64.72Z"/>
          <path class="cls-5" d="M461.99,541.1c-.39,45.88,24.27,80.26,65.56,98.22,69.78,30.34,157.92-14.67,154.14-95.52,18.11,1.11,35.64,5.65,53.93,4.05.02,12.98-13.48,54.83,7.4,56.73,13.96,1.27,23.64-25.19,32.35-35.17,23.6-27.07,60.55-31.42,84.23-1.98,49.11,61.06-25.77,183.24-100.43,136.83-4.79-2.98-18.09-16.85-22.22-14.27-1.5.93-5.65,14.9-7.33,18.34-64.63,132.14-246.13,165.6-372.73,109.75-86.92-38.34-137.22-123.62-95.73-216.3,23.11,24.47,51.17,37.83,85.56,35.02,12.79-1.05,24.69-6.39,37.1-8.85l5.37,10.21c-24.59,3.63-70.94,13.93-80.17,40.47-10.3,29.59,19.41,33.6,39.72,22.88,1.43,8.93,10.69,12.5,18.89,12.14,1.35,46.47,53.48,79.67,95.4,85.9,41.79,6.21,102.61-7.72,128.92-42.89,13.58-18.14,37.15-63.11,7.09-76.95-9.65-4.44-16.37-.13-20.24-1.26-.78-.23-8.51-9.85-11.02-11.96-27.08-22.77-57.47-22.93-90.15-28.46-2.16-.36-3.79-2.43-5.52-2.51-1.25-.06-18.28,7.66-23.55,8.75-17.35,3.6-40.03,2.19-51.26-13.53-13.09-18.33-1.68-49.6,21.24-52.88,14.23-2.04,23.79,3.89,36.71,7.73.55-9.45-12.27-15.19-20.16-16.22l6.63-29.04,20.29.78ZM800.33,613.88c7.23-11.25,24.66-19.75,35.06-7.42,4.32,5.13,5.61,14.02,10.76,18.91,3.95,1.71,2.57-8.83,2.34-10.45-2.98-21-24.03-30.02-42.38-20.17-13.9,7.46-31.52,33.81-32.73,49.49-.16,2.09-.84,12.61,4.07,9.47,5.39-8.79,10.05-34.51,24.61-30.12,16.87,5.09,10.9,47.51-8.99,49.52l-.84,4.14c32.7,2.32,39.85-56.75,8.1-63.36Z"/>
          <path class="cls-5" d="M716.75,406.32c-17.19,35.29-2.23,72.51,30.84,90.95-5.8,9.93-7.67,21.8-9.29,33.06l-59.06-12.38c-6.56-30.79-24.34-53.83-51.44-69.21-64.88-36.82-147.58-3.1-163.31,70.62l-21.96,1.37-1.91-2.09c-5.4-67.05-66.59-104.35-130-82.38-10.44,3.62-19.21,10.28-29.28,14.52,3.09-25.22,7.95-49.92,16.42-73.88,28.02-2.12,48.3-18.21,65.13-39.31,37.8,40.04,111.72,46.91,146.93,0,32.8,44.02,97.98,47.45,140.17,14.81,2.77,4.39,3.6,9.38,6.08,14.15,12.05,23.16,34.96,36.86,60.66,39.77ZM355.22,377.05c-17.75,1.76-38.25,10.67-49.37,24.77-4.28,5.43-16.6,26.82-13.07,32.84,1.68,1.98,5.11-.37,7.01-1.16,28.25-11.74,37.75-22.92,72.54-20.43,7.83.56,33.05,7.96,37.89,4.15,5.58-4.38.04-17.51-3.5-22.37-11.42-15.65-33.25-19.61-51.5-17.8ZM509.49,419.47c4.77,4.79,30.55-1.89,38.11-2.36,19.2-1.21,40.36,2.16,58.91,7.11,7.79,2.08,40.92,15.78,45.62,12.51,5.49-3.82-6.81-23.56-10.18-27.73-23.21-28.8-91.51-41.06-120.67-16.85-5.36,4.45-18.31,20.79-11.79,27.33Z"/>
          <path class="cls-2" d="M561.46,451.2c65.84-6.17,113.14,45.43,102.56,110.64-9.44,58.14-73.38,85.33-125.91,65.57-87.4-32.88-73.25-167.15,23.35-176.21ZM573.51,491.55c-45.03,7.64-52.01,109.91,3.78,106.21,58.14-3.86,58.27-116.74-3.78-106.21Z"/>
          <path class="cls-2" d="M333.65,447.15c70.39-7.26,109.25,57.25,84.54,119.59-23.09,4.53-33.13,22.12-37.05,43.83-72.05,33.01-138.57-17.4-122.07-96.46,7.57-36.24,37.73-63.16,74.57-66.96ZM367.3,488.89c-43.11,5.95-50.79,96.62-3.04,97.28,53.13.73,55-104.44,3.04-97.28Z"/>
          <path class="cls-4" d="M524,683.99l2.08,13.46c-14.23,12.58-34.42-.21-44.56-12.11-1.37,4.94,1.58,10.69-2.56,14.96-9.47,3.07-25.96,1.05-33.85-5.51-2.74-2.28-4.81-8.18-8.07-8.16-6.85,4.91-12.08,10.63-20.53,13.23-4.37,1.34-18.92,4.37-20.38-1.98-.37-1.59,3.71-13.98-.87-12.55-8.46,15.57-41.68,32.19-38.44,1.36-6.2,2.48-10.83,6.77-17.55,8.72-37.31,10.79-22.77-21.49.01-33.69,9.24-4.94,49.91-17.61,58.72-16.28,1.42.21,3.07,2.92,5.06,3.78,16.09,6.98,29.69,7.76,46.82,4.48,6.7-1.28,19.39-7.39,23.56-7.55,18.44-.73,58.43,9.11,74.81,18.27,7.71,4.31,33.85,22.93,19.79,30.61-14.25,7.79-31.69-4.39-44.06-11.05Z"/>
          <path class="cls-1" d="M691.12,1136.9l-16.96-37.05c14.48-40.64,58.49-69.77,101.89-64.71l16.15,28.31c-2.24,3.61-5.09.69-8.35,1.03-41.78,4.34-79.94,31.83-92.73,72.42Z"/>
          <path class="cls-6" d="M577.9,755.45c2.64,3.43-18.61,16.76-21.5,18.24-32.84,16.82-72.06,21.28-107.9,12.73,7.4-12.55,21.95-21.96,36.12-25.2,8.12-1.85,15.4-1.07,23.17-3.1l-6.48,9c-1.39,3.53-4.97,7.87.41,8.51,17.61-25.66,47.93-31.71,76.18-20.2Z"/>
          <path class="cls-2" d="M487.62,702.86c12.95,9.73,37.73,14.11,46.56-2.78l7.32,3.45c-13.04,15.31-31.56,22.36-50.97,25.87-27.2,4.91-68.68,6.26-91.82-11.12-1.42-1.07-7.72-6.99-8.17-8.02-1.86-4.32,6.03.44,7.47.62,13.4,1.71,27.35-4.14,37.93-11.89,7.9,6.09,16.54,10.94,26.72,11.95,7.97.79,22.77,1.61,24.95-8.08Z"/>
          <path class="cls-3" d="M930.67,1004.95c2.96-.77,13.54,10.4,15.92,13.32,1.79,2.2,5.05,5.63,4.51,8.44l-53,57.63c-3.84-4.75-6.83-10.2-10.82-14.84-2.72-3.17-9.56-6.35-8.62-9.85l52.02-54.69Z"/>
          <path class="cls-7" d="M994.44,998.07c-5.62-22.19-24.64-38.49-45.84-45.85,13.62-17,23.77-31.23,46.28-15.94,26.82,18.22,22.86,42.85-.44,61.78Z"/>
          <path class="cls-5" d="M548.25,852.5l-63.38,30.29-18.18,11.47c-2.03.6-13.92-36.01-14.16-39.75-.22-3.35.26-1.45,1.4-1.4,7.87.33,18.06,3,26.27,3.41,22.77,1.12,45.59-.73,68.05-4.02Z"/>
          <path class="cls-8" d="M913.55,987.27c8.39-13.51,11.59-16.04,26.52-9.66,18.97,8.1,49,38.95,25.39,56.85-8.44-22.47-28.31-41.67-51.92-47.19Z"/>
          <path class="cls-3" d="M874.43,1058.73l-16.12-8.76,49.87-53.9c5.46-2.52,13.56,1.6,18.19,4.69l-51.95,57.97Z"/>
          <polygon class="cls-3" points="955.33 1031.77 955.98 1047.92 906.83 1103.21 901.6 1091.42 902.07 1088.46 955.33 1031.77"/>
          <path class="cls-8" d="M984.97,1012.89c-2.99,2.13-6.44-9.53-7.81-11.71-5.87-9.34-14.56-17.36-23.58-23.59l-23.84-11.18c9.39-13.1,28.87-1.82,38.38,6.08,9.98,8.29,24.22,27.61,16.85,40.4Z"/>
          <path class="cls-1" d="M716.74,787.8l-48.52,13.45c2.78-2.84,16.06-15.17,18.47-15.89,8.5-2.52,21.25,2.01,30.05,2.44Z"/>
          <path d="M348.76,1002.13c47.34-4.85,97.11,13.3,140.16,31.66-2.01,2.91-4.16,2.06-7.04,1.7-22.82-2.83-54.68-16.62-79.19-21.94-10.49-2.27-21.22-4.46-31.86-5.88-1.66-.22-26.48.26-22.06-5.55Z"/>
          <path d="M518.58,1118.04c-24.51-12.68-29.34-39.43-23.59-64.72,1.42-6.26,2.65-12.1,8.1-16.13,1.99,1.37,2.01,2.4,2.07,4.63.13,5.49-3.59,15.21-4.07,21.65-.85,11.57.44,21.97,5.13,32.57,3.72,8.39,10.97,13.45,12.36,22Z"/>
          <path d="M800.33,613.88c31.76,6.61,24.61,65.68-8.1,63.36l.84-4.14c19.89-2,25.86-44.43,8.99-49.52-14.56-4.39-19.22,21.33-24.61,30.12-4.91,3.14-4.23-7.37-4.07-9.47,1.21-15.68,18.83-42.03,32.73-49.49,18.35-9.85,39.4-.83,42.38,20.17.23,1.62,1.61,12.17-2.34,10.45-5.15-4.88-6.44-13.78-10.76-18.91-10.4-12.33-27.83-3.83-35.06,7.42Z"/>
          <path d="M509.49,419.47c-6.52-6.54,6.43-22.88,11.79-27.33,29.17-24.21,97.47-11.95,120.67,16.85,3.36,4.17,15.67,23.91,10.18,27.73-4.71,3.28-37.83-10.43-45.62-12.51-18.55-4.95-39.71-8.32-58.91-7.11-7.56.47-33.33,7.15-38.11,2.36Z"/>
          <path d="M355.22,377.05c18.25-1.81,40.08,2.15,51.5,17.8,3.54,4.86,9.08,17.99,3.5,22.37-4.84,3.8-30.06-3.59-37.89-4.15-34.78-2.48-44.29,8.7-72.54,20.43-1.9.79-5.33,3.13-7.01,1.16-3.53-6.02,8.79-27.41,13.07-32.84,11.12-14.1,31.62-23.01,49.37-24.77Z"/>
          <path d="M573.51,491.55c62.05-10.53,61.92,102.35,3.78,106.21-55.78,3.7-48.8-98.57-3.78-106.21Z"/>
          <path d="M367.3,488.89c51.96-7.17,50.09,98.01-3.04,97.28-47.74-.66-40.07-91.33,3.04-97.28Z"/>
          <ellipse class="cls-2" cx="386.39" cy="528.71" rx="13.01" ry="18.17"/>
          <ellipse class="cls-2" cx="600.93" cy="533.09" rx="13.01" ry="18.17"/>
          <path d="M661.92,190.42c-2.28,2.48-4.46,5.24-6.52,8.33-31.15-27.3-87.56-36.89-121.26-9.44-4.25,3.46-6.7,7.75-10.03,11.24-1.08,1.13-.92,1.24-2.79.86-1.9-4.5-4.23-8.8-6.96-12.85,2.18-2.41,4.66-4.72,7.4-6.86.78,1.16,1.52,2.33,2.25,3.53h2.64c2.4-5.81,9.3-9.67,14.92-12.22,1.11-1.05.76-.85,2.28-1.66,3.07-1.24,3.61-1.97,6.94-2.94.55-.22.97-.45,1.51-.71,30.17-8.14,64.43-5.23,91.65,10.78.9.67.78.69,2.28,1.26,3.34,1.94,2.42,1.35,5.82,3.39,1.35.46,1.84,1.48,3.34.72.03-.01.05-.03.09-.05,2.39,2.09,4.54,4.3,6.43,6.59Z"/>
        </g>
      </g>
    </g>
  </g>
</svg>