<?xml version="1.0" encoding="UTF-8"?>
<svg id="Calque_2" data-name="Calque 2" xmlns="http://www.w3.org/2000/svg" viewBox="0 0 1738.53 1530.34">
  <defs>
    <style>
      .cls-1 {
        fill: #201c14;
      }

      .cls-2 {
        fill: #fcefd9;
      }

      .cls-3 {
        fill: #f9b233;
      }
    </style>
  </defs>
  <g id="Calque_3" data-name="Calque 3">
    <g>
      <path class="cls-1" d="M1734.36,401.09c-3.95-10.43-10.85-18.5-19.93-23.34-8.74-4.65-22.49-7.33-42.46-10.88-6.36-1.13-15.19-2.7-20.41-4.01-.15-.39-.3-.77-.43-1.12-2.37-6.19-4.06-10.48-5.85-13.58-10.54-18.2-29.9-26.78-45.46-33.68-1.39-.62-2.78-1.23-4.14-1.85-25.6-11.53-52.86-21.23-79.23-30.6-23.25-8.27-47.23-16.8-69.67-26.47-1.68-3.29-3.26-6.55-4.8-9.74-4.66-9.63-9.48-19.58-16.78-30.09-12.17-17.51-26.63-33.92-43-48.76-16.36-14.84-34.33-27.85-53.4-38.67-40.34-22.89-83.91-34.99-125.99-34.99-19.31,0-38.29,2.55-56.42,7.57-10.9,3.02-20.75,7.29-30.27,11.42-8.33,3.61-16.28,7.06-24.17,9.31L783.47,2.94l-.8-.31-.83-.22c-5.97-1.6-12.09-2.41-18.21-2.41-11.72,0-23.4,2.92-34.72,8.67-10.08,5.12-19.62,12.35-28.36,21.51-8.15,8.54-15.3,18.4-21.24,29.32-5.9,10.85-10.31,22.18-13.11,33.69-4.57,18.78-4.48,36.9.25,52.41,5.6,18.34,17.52,32.68,34.48,41.45,35.88,18.56,80.93,34.08,124.49,49.1,27.11,9.34,52.73,18.17,75.73,27.5.92.38,2.33.91,4.27,1.66,3.09,1.19,5.89,2.28,8.4,3.28-15.16,18.12-28.97,36.9-41.21,56.05-17.1,26.76-31.11,54.23-41.65,81.66-11.41,29.69-18.84,59.6-22.1,88.9-3.07,27.64-2.46,55.09,1.81,81.76-6.15,4.3-11.2,9.42-15.08,15.32-5.38,8.17-8.51,17.84-9.29,28.72-1.05,14.6,2.18,29.79,6.13,43.73l-174.01,161.38-30.33,28.12h313.18l4.69-4.43,58.93-55.68c.89.01,1.78.02,2.66.02,17.85,0,43.79-2.54,65.97-14.67,20.4-11.15,33.24-28.07,37.59-49.36,19.67-6.85,37.17-17.74,53.93-33.53,9.55,4.18,18.44,7.45,26.95,9.92,13.99,4.06,27.04,6.04,39.91,6.04,17.13,0,33.97-3.68,50.04-10.93,24.37-11,48.35-34.36,65.77-64.11,8.32-14.2,14.78-29.41,18.67-43.97,4.34-16.23,5.57-31.5,3.68-45.39-.63-4.59-2.5-9.4-4.32-14.05-.14-.36-.29-.75-.45-1.15.84-.95,1.72-1.94,2.53-2.85,10.71-12.04,19.19-21.85,22.78-29.46,4.42-9.35,6.1-19.93,7.58-29.26.64-4.05,1.6-10.1,2.43-12.17,3.89-6.5,10.83-10.52,18.25-10.52,2.53,0,5.02.47,7.42,1.39l150.48,57.99c4.37,2.4,9.44,3.61,15.11,3.61,9.13,0,18.39-3.14,25.84-5.66,1.57-.53,3.51-1.19,5.02-1.65,1.13.66,2.88,1.78,5.45,3.65,3.98,2.91,8.54,6.58,13.36,10.47,9.75,7.87,19.14,15.44,28.01,20.36l4.73,174.84.38,14.12,14.04,1.56,11.74,1.31,17.51,1.95.5-17.61,2.1-73.72,9.51-2.32.55-12.15,4.45-99.08c.99-1.23,1.98-2.46,2.95-3.66,11.16-13.83,22.7-28.13,30.4-47.32,2.24-5.59,9.59-25.58,10.06-48.04.22-10.49-1.18-19.78-4.15-27.62Z"/>
      <g id="DoTzyX">
        <g>
          <path class="cls-1" d="M1706.8,392.08c-13.86-7.38-60.79-11.09-67.46-16.65-1.08-.89-5.64-14.85-8.12-19.13-8.67-14.97-26.62-21.84-42.22-28.86-49.26-22.19-104.31-37.23-153.95-59.29-8.18-15.13-13.13-28.67-23.19-43.15-55.85-80.37-163.23-135.59-261.15-108.46-21.03,5.83-39.36,17.54-59.79,22.1L777.64,18.08c-72.31-19.39-138.71,118.63-69.26,154.56,56.42,29.19,137.71,51.16,198.87,75.98,4.8,1.95,32.56,12.09,32.54,14.81-77.68,86.23-135.11,203-111.12,321.91-36.5,16.69-27.4,53.38-17.82,84.43l-181.41,168.24h265.37l63.84-60.33c41.08,2.13,94.71-9.95,97.75-60.02,26.32-7.04,46.64-21.01,65.17-40.53,37.09,17.85,74.1,27.55,113.69,9.69,44.28-19.98,85.34-87.91,78.72-136.49-.8-5.89-7.14-17.55-6.43-21.21.44-2.23,23.73-25.58,28.39-35.43,6.28-13.27,6-33.35,10.23-41.9.02-.04.04-.07.06-.11,9.14-16.18,28.56-23.44,45.9-16.76l151.73,58.48c10.96,7.19,34.58-7.02,41.03-5.67,12.61,2.63,44.37,36.77,60.62,40.27l5.01,185.25,11.74,1.31,2.46-86.09,9.72-2.37,4.69-104.35c13.12-16.63,26.17-30.85,34.26-51.03,8.38-20.9,17.54-65.78-6.59-78.62ZM747.95,163.91c37.12-22.89,61.68-71.36,52.11-114.91l274.81,104.26c1.03,4.4-1.49,4.59-3.94,6.7-13.72,11.81-34.85,22.94-50.31,34.99-9.94,7.75-54.96,50.09-60.78,50.67l-211.9-81.72ZM957.51,757.53c-42.95-3.08-83.98-32.72-108.7-66.63-15.62-21.43-47.64-75.02-8.53-87.46,26.92,80.39,114.01,119.66,194.31,111.36,3.63,38.67-48.37,44.79-77.08,42.73ZM1308.29,499.21c-2.36,2.85-14.77,16.25-17.75,14.17-8.35-15.85-21.18-32.7-33.15-46.25-6.69-7.58-40.14-42.81-46.13-46.26-6.99-4.03-16.75-4-14.41,5.11,2,7.8,23.84,23.13,30.9,30.52,21.83,22.86,63.66,69.91,66.95,101.39,5.28,50.52-50.05,117.67-102.51,119.14-13.01.37-53.53-10.71-62.19-19.7-12.38-12.86,11.09-48.85,22.17-50.97,7.14-1.37,25.08,8.17,31.18-4.07-3.16-12.49-14.1-7.05-23.8-8.88-8.92-1.69-18.35-9.36-24.39-15.94-2.36-2.57-9.62-21.45-16.48-7.19-5.03,10.46,11.47,22.48,17.78,29.59-8.01,8.4-17.82,19.34-21.77,30.31-3.51,9.76-1.12,19.66-3.05,25.19-7.6,21.84-51.67,43-73.5,45.18-86.26,8.61-168.9-32.59-190-120.34-39.82-165.57,123.73-356.3,262.24-425.83,95.63-48,179.99-23.87,255.03,47.21,22.09,20.92,55.62,61.6,47.18,93.88-6.33,24.22-64.85,40.81-87.34,40.02-32.31-1.13-73.83-24.6-89.33-53.25l23.52-24.04-5.96-10.05-57.15,44.48c-10.72,2.29-38.4-28.96-49.13-28.2-7.02.5-7.92,7.9-3.55,13.16,5.01,6.02,37.65,26.05,46.61,31.57,13.91,8.56,28.36,14,42.71,23.63,47.59,31.93,124.39,107.2,75.32,166.41ZM1402.98,415.88l-94.37-35.51c-28.74-31.29-60.85-59.19-98.67-79.04l12.78-8.2c34.33,44.22,82.13,66.45,138.38,52.75,25.58-6.23,62.94-23.87,66.94-52.71,75.29,5.71,25.4,116.61-25.06,122.71ZM1550.08,473.06c-2.79-.45-5.66-1.49-6.06-4.66,22.74-4.89,42.89-30.49,51.79-51.3,1.23-2.88,7.45-17.62,7.45-18.62,0-12.57.58-25.38,0-37.91-.05-1.08-6.09-4.11,1.15-3.53,38.28,30.14-11.7,122.87-54.32,116.02Z"/>
          <path class="cls-2" d="M1365.41,201.6c22.08,20.92,55.61,61.6,47.18,93.88-6.33,24.22-64.85,40.81-87.34,40.02-32.31-1.14-73.83-24.61-89.33-53.25l23.52-24.04-5.96-10.05-57.15,44.48c-10.72,2.29-38.4-28.96-49.13-28.2-7.02.5-7.93,7.9-3.55,13.16,5.01,6.02,37.65,26.05,46.61,31.57,13.91,8.56,28.36,14,42.71,23.63,47.59,31.93,124.39,107.2,75.32,166.41-2.36,2.85-14.77,16.25-17.76,14.17-8.34-15.85-21.18-32.7-33.15-46.25-6.69-7.58-40.14-42.8-46.13-46.26-6.99-4.03-16.75-3.99-14.41,5.11,2,7.8,23.84,23.13,30.89,30.52,21.83,22.86,63.66,69.91,66.95,101.39,5.28,50.51-50.05,117.67-102.51,119.14-13.02.36-53.53-10.7-62.19-19.7-12.38-12.86,11.08-48.85,22.17-50.97,7.14-1.37,25.08,8.17,31.18-4.07-3.16-12.49-14.11-7.04-23.8-8.88-8.92-1.69-18.34-9.36-24.39-15.94-2.36-2.57-9.62-21.45-16.48-7.19-5.03,10.46,11.47,22.48,17.79,29.59-8.01,8.39-17.82,19.33-21.77,30.3-3.51,9.77-1.12,19.66-3.05,25.19-7.6,21.84-51.67,43-73.5,45.18-86.26,8.61-168.9-32.59-190.01-120.34-39.82-165.57,123.72-356.3,262.25-425.83,95.63-48,179.99-23.87,255.03,47.22ZM974.78,336.3c-9.11-8.91-35.65,13.98-43.3,20.66-10.62,9.26-54.36,50.83-25.93,56.82,5.45-.46,24.02-29.01,30.62-35.54,7.95-7.87,40.04-27.47,40.99-34.63.28-2.15-.83-5.8-2.37-7.3ZM972.65,388.16c-8.63-5.47-28.36,11.51-35.22,17.4-9.81,8.42-41.43,42.32-40.31,54.42.48,5.2,5.44,9,10.61,8.51,7.19-.69,12.17-15.17,16.9-21.24,13.27-17.05,29.01-32.33,47.66-43.52,3.99-4.68,3-10.49.36-15.57ZM958.08,456.96c-1.51.46-14.74,11.52-17.13,13.73-10.47,9.71-50.71,59.08-47.55,71.19,1.46,5.6,5.82,8.48,11.62,6.74,4.32-1.3,26.06-38.1,32.51-45.81,6.36-7.61,29.21-26.28,31.88-32.09,4.53-9.84-.52-17.02-11.32-13.75Z"/>
          <path class="cls-3" d="M1074.87,153.27c1.03,4.4-1.49,4.59-3.94,6.7-13.72,11.81-34.85,22.95-50.3,34.99-9.95,7.75-54.96,50.09-60.78,50.67l-211.9-81.72c37.11-22.89,61.68-71.36,52.1-114.91l274.81,104.27Z"/>
          <path class="cls-3" d="M1428.05,293.17c75.29,5.71,25.39,116.61-25.06,122.71l-94.38-35.51c-28.74-31.29-60.85-59.19-98.66-79.04l12.77-8.2c34.33,44.23,82.14,66.45,138.38,52.75,25.58-6.23,62.94-23.87,66.95-52.71Z"/>
          <path class="cls-2" d="M840.28,603.43c26.91,80.39,114.01,119.66,194.31,111.36,3.62,38.67-48.37,44.79-77.08,42.73-42.96-3.08-83.99-32.72-108.7-66.63-15.62-21.43-47.64-75.02-8.53-87.46Z"/>
          <path class="cls-3" d="M1603.25,360.57c-.05-1.08-6.09-4.11,1.15-3.53,38.28,30.14-11.7,122.87-54.32,116.03-2.79-.45-5.65-1.49-6.06-4.66,22.74-4.88,42.89-30.49,51.79-51.3,1.23-2.87,7.45-17.61,7.45-18.62,0-12.57.58-25.38,0-37.91Z"/>
          <path class="cls-1" d="M958.08,456.96c10.8-3.27,15.85,3.91,11.32,13.75-2.67,5.81-25.52,24.48-31.88,32.09-6.44,7.71-28.18,44.51-32.51,45.81-5.8,1.75-10.16-1.13-11.62-6.74-3.16-12.1,37.09-61.47,47.55-71.19,2.38-2.21,15.62-13.27,17.13-13.73Z"/>
          <path class="cls-1" d="M974.78,336.3c1.54,1.5,2.66,5.15,2.37,7.3-.95,7.16-33.03,26.76-40.99,34.63-6.6,6.53-25.18,35.08-30.62,35.54-28.43-5.98,15.32-47.55,25.93-56.82,7.66-6.68,34.19-29.57,43.3-20.66Z"/>
          <path class="cls-1" d="M972.65,388.16c2.65,5.08,3.64,10.89-.36,15.57-18.66,11.19-34.39,26.47-47.66,43.52-4.73,6.07-9.71,20.55-16.9,21.24-5.17.49-10.12-3.31-10.61-8.51-1.12-12.1,30.5-46,40.31-54.42,6.85-5.88,26.58-22.87,35.22-17.4Z"/>
        </g>
      </g>
      <path class="cls-1" d="M926.21,255.15c17.49-19.15,37.19-36.13,56.84-53.06,23.48-20.23,47.1-40.55,73.57-56.66,4.14-2.52,8.58-5,13.43-5.13,4.65-.12,9.5,2.34,11.42,6.58,2.98,6.59-1.71,14.02-6.61,19.34-11.4,12.37-25.18,22.25-38.85,32.04-30.53,21.86-61.06,43.72-91.59,65.58"/>
      <polyline class="cls-1" points="0 1386.96 751.37 701.82 906.14 849.78 335.98 1530.34"/>
    </g>
  </g>
</svg>