<?xml version="1.0" encoding="UTF-8"?>
<svg id="Calque_2" data-name="Calque 2" xmlns="http://www.w3.org/2000/svg" viewBox="0 0 1075.7 794.13">
  <defs>
    <style>
      .cls-1 {
        fill: #201c14;
      }

      .cls-2 {
        fill: #fcefd9;
      }

      .cls-3 {
        fill: #f9b233;
      }
    </style>
  </defs>
  <g id="Calque_3" data-name="Calque 3">
    <g>
      <path class="cls-1" d="M1075.67,428.71c-.46,22.45-7.81,42.44-10.05,48.03-7.7,19.2-19.24,33.5-30.4,47.32-.97,1.21-1.96,2.43-2.95,3.67l-4.45,99.08-.55,12.15-9.51,2.32-2.11,73.73-.5,17.61-17.51-1.95-11.74-1.31-14.04-1.56-.39-14.12-4.73-174.85c-8.87-4.92-18.26-12.49-28.01-20.36-4.82-3.89-9.37-7.56-13.36-10.47-2.57-1.88-4.32-3-5.45-3.65-1.51.46-3.45,1.11-5.02,1.65-7.44,2.52-16.71,5.66-25.84,5.66-5.67,0-10.74-1.21-15.11-3.61l-150.48-57.99c-2.39-.93-4.89-1.39-7.42-1.39-7.42,0-14.36,4.01-18.25,10.52-.83,2.07-1.79,8.12-2.44,12.17-1.48,9.33-3.16,19.91-7.58,29.26-3.59,7.6-12.07,17.41-22.78,29.45-.82.92-1.69,1.9-2.53,2.85.15.41.31.8.45,1.16,1.81,4.64,3.69,9.45,4.31,14.05,1.9,13.89.66,29.16-3.68,45.39-3.89,14.57-10.35,29.77-18.67,43.97-17.42,29.75-41.4,53.12-65.77,64.11-16.07,7.25-32.91,10.93-50.04,10.93-12.87,0-25.92-1.98-39.91-6.04-8.51-2.47-17.4-5.74-26.95-9.91-16.76,15.79-34.27,26.67-53.93,33.53-4.35,21.28-17.18,38.2-37.59,49.35-12.2,6.67-25.54,10.44-38.04,12.48-10.23,1.67-19.9,2.19-27.93,2.19-.47,0-.95,0-1.42-.01-6.85-.63-13.79-1.97-20.74-3.92-57.89-16.17-117.35-73.99-148.23-107.74-4.14-4.53-2.57-7.97-3.57-11.97l-1.17-5.77c-3.95-13.93-7.18-29.12-6.13-43.72.79-10.89,3.91-20.55,9.3-28.72,1.64-2.49,3.48-4.85,5.53-7.05,2.81-3.03,6-5.79,9.55-8.27-4.27-26.67-4.89-54.12-1.82-81.76,3.26-29.3,10.69-59.21,22.1-88.9,10.54-27.43,24.55-54.9,41.65-81.66,12.24-19.15,26.06-37.93,41.21-56.05-2.51-1-5.31-2.09-8.4-3.28-1.94-.74-3.34-1.28-4.26-1.66-23.01-9.34-48.62-18.16-75.73-27.5-43.57-15.02-88.62-30.54-124.5-49.1-16.96-8.78-28.88-23.11-34.48-41.46-4.73-15.51-4.82-33.63-.25-52.4,2.8-11.52,7.21-22.85,13.11-33.7,5.94-10.92,13.09-20.78,21.24-29.32,8.74-9.15,18.29-16.39,28.37-21.51C77.4,2.91,89.08,0,100.8,0c6.12,0,12.25.81,18.21,2.41l.83.22.8.31,308.46,118.68c7.89-2.25,15.84-5.69,24.17-9.31,9.53-4.13,19.38-8.4,30.28-11.42,18.13-5.03,37.1-7.57,56.42-7.58,42.08,0,85.65,12.1,125.99,34.99,19.07,10.82,37.04,23.83,53.4,38.67s30.83,31.25,42.99,48.76c7.31,10.51,12.13,20.46,16.79,30.09,1.54,3.19,3.13,6.45,4.8,9.74,22.44,9.68,46.42,18.2,69.67,26.47,26.36,9.38,53.62,19.07,79.23,30.6,1.36.62,2.74,1.23,4.14,1.85,15.55,6.9,34.92,15.49,45.46,33.68,1.79,3.1,3.48,7.39,5.85,13.58.13.35.28.73.43,1.12,5.22,1.31,14.06,2.88,20.41,4.01,19.98,3.55,33.72,6.23,42.46,10.88,9.09,4.84,15.98,12.91,19.94,23.34,2.97,7.84,4.36,17.13,4.14,27.62Z"/>
      <g id="DoTzyX">
        <g>
          <path class="cls-1" d="M1043.97,392.08c-13.86-7.38-60.79-11.1-67.46-16.65-1.07-.89-5.64-14.85-8.12-19.14-8.67-14.96-26.61-21.83-42.22-28.86-49.26-22.19-104.31-37.23-153.95-59.29-8.18-15.13-13.13-28.67-23.19-43.15-55.85-80.37-163.23-135.6-261.15-108.46-21.03,5.82-39.36,17.53-59.79,22.09L114.81,18.08C42.5-1.31-23.9,136.71,45.55,172.64c56.42,29.19,137.71,51.15,198.87,75.97,4.8,1.96,32.54,12.09,32.54,14.81-77.69,86.23-135.12,203.01-111.12,321.91-4.39,2.01-8.13,4.31-11.28,6.86-23.02,18.59-14.97,50.26-6.54,77.57l-13.69,12.7c30.88,33.75,90.34,91.57,148.23,107.74l13.26-12.53c27.17,1.41,59.82-3.4,79.7-21.29,10.19-9.16,17.03-21.76,18.06-38.72,26.32-7.04,46.64-21.01,65.16-40.54,37.1,17.85,74.1,27.55,113.7,9.69,44.28-19.98,85.33-87.91,78.71-136.49-.8-5.89-7.14-17.55-6.43-21.21.44-2.23,23.74-25.58,28.39-35.43,6.28-13.27,6.01-33.35,10.23-41.89.02-.04.04-.08.06-.12,9.14-16.17,28.56-23.44,45.9-16.76l151.73,58.48c10.96,7.19,34.59-7.02,41.03-5.67,12.61,2.62,44.37,36.77,60.62,40.27l5.01,185.25,11.74,1.31,2.46-86.09,9.72-2.38,4.68-104.34c13.12-16.63,26.17-30.86,34.27-51.04,8.37-20.9,17.53-65.78-6.59-78.62ZM85.13,163.91c.87-.54,1.72-1.08,2.57-1.64.79-.52,1.57-1.05,2.35-1.6.12-.08.23-.16.34-.24.65-.46,1.3-.92,1.95-1.41,0,0,.02-.01.03-.02.32-.23.62-.46.93-.7.63-.47,1.25-.95,1.87-1.44.62-.49,1.23-.99,1.84-1.49.3-.25.6-.5.89-.75.14-.11.28-.23.41-.35.44-.36.88-.74,1.31-1.13,1.01-.89,2-1.79,2.97-2.71.63-.59,1.25-1.19,1.86-1.8,1.26-1.26,2.5-2.54,3.72-3.86.4-.44.8-.88,1.2-1.33.79-.89,1.58-1.79,2.35-2.7.77-.92,1.52-1.85,2.27-2.79.74-.94,1.47-1.89,2.19-2.85.72-.97,1.42-1.94,2.11-2.93.51-.74,1.02-1.48,1.52-2.23s.99-1.51,1.48-2.27c.48-.76.96-1.53,1.42-2.3.47-.77.93-1.55,1.38-2.33,2.4-4.18,4.55-8.5,6.42-12.92.24-.55.47-1.11.69-1.66.91-2.23,1.74-4.48,2.5-6.75.17-.49.33-.99.49-1.49.21-.64.41-1.29.6-1.93.14-.45.27-.89.4-1.34.53-1.85,1.01-3.71,1.44-5.58.14-.58.27-1.17.39-1.75.38-1.75.71-3.5.99-5.26.09-.58.18-1.17.27-1.75.05-.36.1-.72.15-1.08.05-.38.1-.75.14-1.13.06-.5.12-.99.17-1.49.19-1.71.33-3.43.42-5.15.04-.59.06-1.18.08-1.77.03-.59.04-1.18.05-1.78,0-.58.02-1.17.02-1.76,0-6.52-.67-13.04-2.08-19.45l274.81,104.26c1.03,4.4-1.48,4.6-3.93,6.71-13.72,11.81-34.86,22.94-50.31,34.99-9.95,7.75-54.96,50.09-60.77,50.67l-211.9-81.72ZM369.87,730.14c-.1.27-.21.54-.32.8-.02.07-.05.14-.09.21-.12.29-.25.58-.38.86,0,.03-.02.06-.04.08-.15.32-.3.63-.46.93-.49.96-1.03,1.88-1.63,2.77-.16.25-.33.49-.5.73-.04.07-.09.14-.15.21-.19.27-.39.53-.59.79-.19.26-.39.51-.59.75-.04.05-.08.11-.13.16-.21.25-.42.5-.64.74-.27.32-.55.62-.85.93-.2.21-.41.43-.62.64-.51.51-1.03,1-1.57,1.48-.24.21-.48.42-.72.61-.33.29-.66.56-1,.82-.27.22-.55.43-.83.64-1.18.89-2.42,1.72-3.72,2.5-.32.19-.65.39-.98.57-.33.19-.66.38-1,.56-.33.19-.67.37-1.02.54-.33.18-.67.35-1.01.52-2.15,1.06-4.4,2-6.74,2.84-.32.12-.64.23-.96.34-3.05,1.06-6.22,1.94-9.46,2.67-.41.1-.81.18-1.22.27-.18.04-.35.08-.53.11-.24.05-.48.1-.72.15-.8.16-1.61.32-2.43.46-.34.06-.67.12-1.01.18-1.3.22-2.61.42-3.93.6-.82.11-1.65.22-2.47.31-1.48.17-2.95.32-4.42.44-.4.04-.79.07-1.18.1-.71.05-1.41.1-2.12.14-.95.06-1.89.11-2.82.15-.29,0-.58.02-.87.03-.65.03-1.29.05-1.93.06-.39.01-.78.02-1.16.02-4.41.07-8.59-.06-12.37-.33-42.96-3.08-83.99-32.72-108.71-66.63-15.62-21.43-47.64-75.02-8.53-87.46,7.67,22.92,20.24,42.49,36.14,58.57,2.38,2.42,4.85,4.75,7.38,7.01,4.22,3.76,8.63,7.3,13.21,10.61,2.75,1.99,5.56,3.9,8.42,5.73,2.87,1.83,5.79,3.58,8.76,5.25,3.97,2.22,8.02,4.3,12.15,6.24,2.07.97,4.15,1.9,6.26,2.8,4.2,1.79,8.48,3.43,12.82,4.93,2.16.75,4.35,1.46,6.54,2.14,19.77,6.08,40.6,9.17,61.38,9.17.89,0,1.77-.01,2.66-.02.89-.01,1.78-.03,2.66-.05.71-.02,1.42-.04,2.12-.06.56-.02,1.12-.04,1.67-.07.05,0,.09,0,.13,0,.97-.04,1.94-.09,2.91-.15.82-.04,1.63-.1,2.44-.15.37-.03.74-.05,1.11-.08.85-.07,1.69-.14,2.52-.21,1.01-.09,2.02-.19,3.03-.29.17,1.81.22,3.55.15,5.22,0,.28-.02.56-.05.83-.01.36-.04.71-.08,1.06-.03.42-.08.84-.14,1.25-.04.38-.1.76-.17,1.14-.04.25-.09.5-.14.74-.05.28-.11.56-.17.84-.02.13-.05.25-.09.37-.07.32-.15.64-.24.95-.02.14-.06.27-.11.4-.1.39-.22.77-.35,1.15.01,0,0,0,0,0-.13.4-.27.8-.42,1.2,0,.04-.02.07-.04.1,0,.03-.02.06-.04.09ZM645.46,499.2c-2.36,2.85-14.77,16.25-17.75,14.18-.37-.7-.75-1.41-1.14-2.11-.7-1.29-1.43-2.58-2.19-3.87-.27-.47-.55-.93-.83-1.4-.31-.54-.64-1.07-.97-1.62-.62-1-1.25-2.01-1.89-3.01-1.28-2.01-2.61-4.02-3.98-6.02-.86-1.25-1.73-2.49-2.61-3.73-.45-.62-.89-1.24-1.34-1.86-.45-.61-.9-1.23-1.35-1.84-.45-.61-.91-1.22-1.37-1.83-.45-.61-.91-1.22-1.38-1.82-.4-.53-.8-1.06-1.21-1.58-4.25-5.48-8.62-10.73-12.89-15.56-6.69-7.58-40.14-42.81-46.13-46.26-6.99-4.04-16.75-4-14.42,5.11,2,7.79,23.84,23.13,30.9,30.52,21.83,22.86,63.66,69.91,66.95,101.39.12,1.12.2,2.26.26,3.4.06,1.15.09,2.31.09,3.47,0,.71-.01,1.43-.04,2.15,0,.1,0,.2-.01.3-.02.69-.05,1.38-.09,2.08-.05.67-.1,1.35-.16,2.04-.03.38-.07.76-.12,1.14-.06.66-.14,1.32-.22,1.98-.09.69-.19,1.38-.3,2.08-.12.8-.26,1.6-.41,2.4-.12.7-.26,1.39-.41,2.09-.12.62-.26,1.23-.41,1.85-.1.45-.21.91-.32,1.36,0,.03,0,.06-.02.09-.15.61-.3,1.21-.47,1.82-.18.68-.37,1.36-.57,2.04-.44,1.55-.93,3.11-1.47,4.67-.2.57-.4,1.15-.61,1.72-2.14,5.97-4.85,11.92-8.05,17.72-.24.43-.47.85-.71,1.27-.12.23-.25.46-.39.69-.28.49-.56.98-.85,1.46-.33.57-.67,1.14-1.02,1.7-.71,1.18-1.45,2.36-2.21,3.53-.69,1.06-1.39,2.1-2.1,3.14-.72,1.04-1.45,2.08-2.19,3.1-.09.14-.19.27-.29.4-.31.43-.63.85-.95,1.28-.42.57-.84,1.13-1.28,1.69-.82,1.06-1.65,2.11-2.5,3.15-.42.52-.85,1.03-1.28,1.55-.86,1.03-1.73,2.04-2.62,3.04-.44.5-.89,1-1.34,1.49-.04.06-.09.11-.14.16-.41.44-.81.88-1.22,1.32-.45.49-.91.97-1.38,1.45-.38.4-.77.8-1.15,1.19-2.89,2.94-5.89,5.73-8.99,8.37-.49.43-.99.84-1.49,1.25-3.62,3-7.36,5.77-11.2,8.29-.47.3-.94.61-1.41.9-.51.33-1.02.65-1.53.96-.12.08-.25.15-.37.23-.45.27-.9.54-1.36.81-1.09.64-2.19,1.26-3.29,1.86-.5.27-1,.54-1.5.8-1.22.64-2.45,1.25-3.68,1.83-.5.23-.99.46-1.49.68,0,0-.02,0-.03,0-.56.26-1.13.5-1.69.74-.56.25-1.13.48-1.7.71,0,0-.02,0-.04.02-.54.22-1.09.43-1.64.64-.01,0-.02.01-.04.02-1.7.64-3.4,1.23-5.11,1.75-.06.03-.13.05-.19.06-.51.16-1.02.31-1.53.45-.58.17-1.15.32-1.73.47-.6.16-1.21.31-1.82.45-.53.13-1.06.25-1.59.36-1.3.27-2.6.51-3.9.71-1.5.23-2.99.41-4.48.54-.73.07-1.46.12-2.18.16-.53.02-1.05.05-1.58.06-13.02.37-53.53-10.7-62.19-19.7-12.38-12.86,11.08-48.85,22.17-50.97,7.14-1.37,25.08,8.16,31.18-4.07-3.16-12.49-14.11-7.05-23.81-8.88-8.91-1.69-18.34-9.36-24.39-15.94-.17-.18-.36-.44-.57-.77-.06-.1-.13-.2-.19-.31-.93-1.48-2.22-3.94-3.76-6.2-.14-.21-.29-.42-.44-.63-.14-.2-.29-.41-.45-.61-.25-.34-.51-.67-.78-.98-.81-.94-1.67-1.75-2.56-2.29-.13-.08-.27-.15-.41-.22-.11-.06-.23-.11-.35-.16-.09-.04-.18-.07-.27-.1-.08-.03-.15-.05-.23-.07-.81-.22-1.64-.17-2.48.24-.13.06-.26.13-.39.21-.39.24-.78.55-1.17.96-.23.24-.46.51-.69.81-.38.5-.76,1.08-1.13,1.76-.09.15-.18.31-.26.48-.12.22-.23.45-.35.69-5.03,10.46,11.47,22.48,17.79,29.59-8.01,8.4-17.83,19.34-21.77,30.31-3.51,9.77-1.12,19.66-3.05,25.19-7.59,21.84-51.67,43-73.5,45.18-9.94.99-19.82,1.32-29.57,1h-.11c-1.14-.04-2.27-.09-3.41-.15-.11,0-.23-.01-.34-.01-.92-.05-1.85-.1-2.77-.16-.3-.02-.59-.04-.87-.06-2.25-.15-4.49-.34-6.72-.57-.17-.02-.35-.04-.52-.06-.78-.07-1.55-.15-2.32-.25-1.71-.19-3.41-.41-5.11-.65-.77-.1-1.54-.21-2.31-.33-.35-.06-.71-.11-1.06-.17-1-.15-1.99-.31-2.98-.49-1.16-.19-2.32-.41-3.48-.63-1.16-.22-2.31-.45-3.46-.69-1.15-.24-2.29-.49-3.43-.75-.02,0-.04,0-.05,0-1.13-.26-2.25-.53-3.37-.81-1.13-.27-2.26-.56-3.39-.87-1.07-.28-2.13-.57-3.19-.88-.05-.02-.11-.03-.17-.05-1.12-.32-2.22-.65-3.33-.99-1.11-.34-2.21-.69-3.31-1.05-1.1-.36-2.19-.73-3.28-1.11-1-.35-2-.71-2.99-1.07l-.54-.21c-.99-.36-1.97-.74-2.94-1.12-.88-.34-1.76-.7-2.63-1.06-.3-.12-.6-.24-.9-.38-.8-.32-1.59-.66-2.37-1-2.49-1.09-4.96-2.23-7.38-3.43-.46-.22-.92-.45-1.37-.69-.55-.27-1.1-.55-1.65-.84-.99-.51-1.97-1.03-2.94-1.56-.79-.43-1.57-.86-2.34-1.3-.99-.55-1.97-1.12-2.94-1.7-.88-.52-1.75-1.05-2.62-1.59-.36-.22-.72-.44-1.07-.67-.63-.39-1.25-.79-1.87-1.2-.11-.06-.21-.13-.3-.2-.91-.58-1.81-1.19-2.71-1.8-.78-.53-1.56-1.08-2.33-1.62-.85-.6-1.69-1.21-2.52-1.84-.4-.29-.8-.58-1.2-.89-.85-.64-1.69-1.29-2.52-1.94-.75-.59-1.5-1.2-2.24-1.81-.85-.69-1.69-1.39-2.52-2.11-.05-.04-.1-.08-.14-.12-.82-.7-1.63-1.41-2.43-2.13-.01,0-.03-.02-.04-.04-.83-.73-1.64-1.48-2.45-2.25-.05-.03-.09-.08-.14-.13-.73-.67-1.44-1.36-2.15-2.05l-.27-.27c-1.57-1.55-3.11-3.13-4.61-4.75-.04-.03-.07-.06-.1-.1-.76-.81-1.51-1.64-2.24-2.47-.76-.85-1.5-1.71-2.23-2.58-.62-.73-1.24-1.47-1.84-2.22-.24-.28-.47-.57-.69-.86-.5-.62-.99-1.24-1.47-1.87-.15-.18-.29-.36-.43-.55-.62-.81-1.24-1.62-1.83-2.45-.1-.13-.2-.26-.28-.39-.57-.76-1.11-1.52-1.64-2.29-.1-.14-.2-.27-.29-.41-.63-.9-1.24-1.8-1.85-2.72-3.97-6-7.56-12.38-10.71-19.13-.28-.6-.55-1.2-.83-1.8-.27-.6-.54-1.2-.8-1.81-.28-.6-.54-1.21-.79-1.83-.21-.5-.42-1-.62-1.5-.34-.79-.66-1.58-.97-2.38-.43-1.12-.86-2.26-1.28-3.4-.03-.07-.06-.14-.08-.21-.32-.87-.63-1.75-.93-2.63-.13-.39-.27-.77-.39-1.16-.39-1.14-.76-2.3-1.12-3.47-.34-1.06-.66-2.12-.96-3.2-.32-1.09-.63-2.2-.92-3.31-.11-.39-.21-.79-.31-1.19-.25-.96-.5-1.93-.73-2.9-4.62-19.19-6.5-38.71-6-58.34,0-.61.03-1.22.05-1.83.03-.93.06-1.87.11-2.8.05-1.19.11-2.37.18-3.56.05-.98.12-1.97.19-2.95h0c.03-.54.07-1.07.12-1.6.05-.7.1-1.4.16-2.09.03-.34.05-.67.09-1,.09-1.02.18-2.04.29-3.06.1-1.05.21-2.1.33-3.14.03-.29.06-.59.1-.88.12-1.04.25-2.07.38-3.1.62-4.91,1.39-9.81,2.29-14.7.16-.91.34-1.83.52-2.75.05-.3.1-.6.17-.9.2-1.02.4-2.04.62-3.06.24-1.19.5-2.38.76-3.57.26-1.19.53-2.37.81-3.56.25-1.08.5-2.15.77-3.23.19-.8.39-1.61.6-2.41.19-.74.38-1.49.57-2.23.08-.32.16-.64.25-.95.2-.75.4-1.51.61-2.26.29-1.1.6-2.21.92-3.31.32-1.12.64-2.25.98-3.37.2-.7.4-1.39.62-2.08.23-.79.48-1.57.72-2.35.27-.88.55-1.77.84-2.66.35-1.11.72-2.22,1.08-3.33,1.25-3.79,2.58-7.57,3.98-11.35.7-1.89,1.42-3.77,2.15-5.65.6-1.57,1.22-3.13,1.86-4.69.36-.91.73-1.81,1.11-2.72,1.54-3.73,3.15-7.45,4.83-11.16.46-1.05.94-2.1,1.43-3.14.94-2.06,1.91-4.11,2.9-6.16.46-.97.93-1.94,1.41-2.91.45-.92.91-1.84,1.37-2.76.89-1.8,1.81-3.6,2.74-5.39.49-.96,1-1.92,1.5-2.88.48-.92.97-1.83,1.46-2.74.38-.72.77-1.44,1.17-2.16.43-.81.88-1.62,1.33-2.43.5-.92,1.01-1.85,1.53-2.77,1.38-2.46,2.78-4.91,4.22-7.36.62-1.08,1.26-2.15,1.89-3.22.75-1.26,1.5-2.51,2.26-3.76.62-1.01,1.24-2.02,1.87-3.04.68-1.11,1.37-2.21,2.07-3.32.45-.72.9-1.44,1.36-2.15.94-1.49,1.9-2.97,2.86-4.45,1.42-2.19,2.86-4.37,4.33-6.54.97-1.44,1.95-2.88,2.94-4.31,1.19-1.74,2.4-3.47,3.62-5.2,1.29-1.83,2.59-3.65,3.92-5.47,1.16-1.61,2.33-3.21,3.52-4.81,1.22-1.65,2.45-3.29,3.69-4.92.05-.07.11-.15.17-.22,1.23-1.62,2.47-3.23,3.72-4.84.07-.09.14-.19.22-.28,1.24-1.6,2.5-3.2,3.77-4.78.02-.04.05-.08.09-.12,1.28-1.61,2.56-3.21,3.87-4.8.04-.07.1-.13.16-.2,1.14-1.4,2.29-2.81,3.45-4.2.17-.2.34-.41.51-.61,1.36-1.63,2.72-3.25,4.1-4.86,1.01-1.19,2.03-2.38,3.05-3.56,1.77-2.05,3.56-4.09,5.37-6.11,1.38-1.55,2.77-3.09,4.16-4.62,1.2-1.33,2.41-2.64,3.62-3.95,1.78-1.92,3.57-3.83,5.38-5.73,1.25-1.32,2.51-2.63,3.78-3.93.15-.17.32-.34.49-.51,2.57-2.65,5.15-5.26,7.76-7.85.56-.56,1.12-1.11,1.68-1.66.04-.05.08-.09.13-.13,1.16-1.14,2.32-2.27,3.48-3.4,1.5-1.45,3.01-2.9,4.52-4.33.08-.09.17-.17.26-.25,1.33-1.26,2.66-2.51,4-3.75.2-.19.39-.37.59-.55,1.3-1.21,2.6-2.41,3.91-3.6.31-.29.63-.57.95-.86,1.31-1.2,2.63-2.38,3.94-3.55.03-.02.06-.05.08-.07,1.54-1.37,3.07-2.72,4.61-4.06,1.47-1.28,2.94-2.55,4.41-3.81.13-.11.25-.22.37-.32,1.51-1.29,3.02-2.57,4.54-3.83,1.56-1.31,3.12-2.6,4.69-3.88,1.57-1.29,3.13-2.55,4.7-3.81,1.56-1.25,3.12-2.49,4.69-3.71.03-.02.06-.05.09-.07,1.55-1.22,3.12-2.43,4.68-3.63,1.96-1.51,3.93-2.99,5.9-4.46,1.97-1.47,3.94-2.92,5.91-4.34,1.98-1.43,3.95-2.83,5.93-4.23,1.97-1.39,3.95-2.76,5.93-4.1.99-.67,1.98-1.34,2.96-2.01,1.98-1.33,3.96-2.64,5.94-3.92.99-.64,1.97-1.28,2.96-1.91.99-.64,1.98-1.27,2.97-1.88.99-.63,1.97-1.25,2.96-1.85,3.95-2.45,7.89-4.81,11.82-7.08,1.97-1.13,3.93-2.25,5.89-3.33.98-.55,1.96-1.09,2.94-1.62.98-.54,1.95-1.07,2.93-1.58.98-.53,1.95-1.05,2.93-1.55,1.95-1.03,3.89-2.03,5.83-3,1.06-.53,2.12-1.06,3.18-1.56.93-.46,1.85-.9,2.77-1.33.4-.19.79-.37,1.18-.56,1.85-.86,3.68-1.7,5.52-2.5,1.05-.47,2.1-.92,3.15-1.36,1.04-.45,2.09-.88,3.13-1.31,2.09-.86,4.17-1.68,6.24-2.46h0c1.04-.4,2.08-.78,3.11-1.15,1.04-.38,2.07-.75,3.1-1.1,1.03-.36,2.06-.71,3.09-1.05,1.19-.39,2.37-.77,3.55-1.14.86-.28,1.71-.54,2.56-.79.02,0,.05-.01.08-.03,1.02-.3,2.03-.6,3.04-.88,1.08-.3,2.16-.6,3.25-.9.87-.23,1.73-.46,2.59-.68,2.81-.71,5.62-1.36,8.41-1.95.58-.13,1.16-.25,1.74-.36,1.51-.31,3.02-.59,4.52-.86.76-.14,1.51-.27,2.26-.39.75-.13,1.5-.25,2.25-.36.75-.12,1.5-.23,2.25-.34,1-.14,2-.28,2.99-.4.88-.11,1.76-.22,2.64-.32.2-.02.4-.04.6-.07.91-.1,1.81-.19,2.71-.27.98-.09,1.98-.18,2.97-.26.79-.07,1.58-.12,2.37-.18.44-.03.88-.05,1.33-.08,1.47-.09,2.95-.16,4.43-.21.52-.02,1.04-.04,1.56-.05,1.67-.04,3.35-.07,5.02-.07,1.11,0,2.21.01,3.31.03.4,0,.8.02,1.19.03,1.04.02,2.08.06,3.11.1,1.18.05,2.36.11,3.54.19.22.01.45.02.68.04.84.05,1.68.11,2.51.18.43.03.86.06,1.29.1,1.17.11,2.33.22,3.5.34,1.19.12,2.37.26,3.55.41,2.36.29,4.71.64,7.06,1.03.24.04.49.08.74.12,1.12.19,2.24.39,3.36.6,1.23.23,2.44.47,3.66.73.02.01.05.01.08.02,1.22.25,2.43.52,3.64.8,1.21.28,2.42.57,3.62.87,1.31.33,2.61.67,3.92,1.03,2.26.62,4.51,1.28,6.75,1.99,1.31.41,2.62.83,3.93,1.27.58.2,1.16.4,1.74.6,2.56.88,5.11,1.82,7.65,2.82.68.26,1.35.53,2.03.81.93.38,1.86.76,2.79,1.15.56.23,1.13.48,1.69.72.72.31,1.45.63,2.17.94,1.44.64,2.87,1.3,4.31,1.97,1.44.68,2.86,1.37,4.29,2.08.61.3,1.23.61,1.84.92.81.41,1.62.82,2.43,1.25,1.43.74,2.84,1.5,4.26,2.28,1.42.77,2.83,1.56,4.24,2.37,1.61.93,3.21,1.87,4.81,2.84t.01,0c1.15.7,2.29,1.4,3.44,2.11,2.28,1.43,4.55,2.9,6.82,4.4.04.03.09.06.13.09,1.11.75,2.22,1.5,3.32,2.26.99.68,1.98,1.37,2.97,2.07.86.61,1.72,1.22,2.58,1.85.65.47,1.31.94,1.96,1.43.89.65,1.78,1.31,2.66,1.98,1.02.76,2.03,1.53,3.04,2.32.5.38,1,.77,1.5,1.17.78.6,1.56,1.21,2.33,1.84,1.21.96,2.42,1.94,3.63,2.93.85.69,1.69,1.39,2.53,2.1,1.96,1.64,3.91,3.31,5.85,5.01.61.53,1.23,1.07,1.85,1.63.77.68,1.53,1.36,2.29,2.05.57.51,1.15,1.03,1.72,1.56.62.56,1.23,1.13,1.85,1.7,1.09,1.01,2.18,2.03,3.27,3.06.62.59,1.25,1.19,1.88,1.8.31.3.63.61.95.93.63.62,1.28,1.26,1.93,1.92.33.33.66.66.99,1,2.3,2.34,4.67,4.85,7.06,7.5.69.76,1.37,1.53,2.05,2.31.69.77,1.37,1.56,2.05,2.36.69.8,1.37,1.61,2.05,2.43.68.82,1.36,1.65,2.03,2.49.34.42.68.84,1.01,1.27.67.84,1.34,1.7,2,2.56,1.33,1.73,2.63,3.49,3.91,5.28.63.9,1.27,1.8,1.89,2.7,1.24,1.81,2.45,3.65,3.62,5.51.58.93,1.16,1.87,1.72,2.8.56.94,1.1,1.89,1.64,2.83.54.94,1.06,1.89,1.57,2.85.25.48.5.95.75,1.43,1.24,2.39,2.38,4.8,3.41,7.22.21.48.41.96.6,1.45.18.42.35.85.51,1.28.22.54.42,1.08.62,1.63.18.48.35.97.52,1.45.34.97.66,1.94.95,2.91.15.47.28.94.42,1.41.07.26.15.51.21.77.1.36.2.73.29,1.09.09.36.18.72.27,1.09.11.48.22.96.32,1.44.06.24.11.49.15.73.08.36.15.72.21,1.08.16.84.3,1.68.41,2.52.07.48.13.96.18,1.44.1.83.17,1.67.22,2.5.03.36.05.71.06,1.07.2,4.37-.19,8.67-1.28,12.83-6.33,24.22-64.85,40.81-87.33,40.02-1.07-.04-2.15-.1-3.25-.19-.45-.03-.9-.07-1.35-.12-.49-.04-.98-.09-1.48-.15-2.11-.24-4.24-.57-6.4-.98-.53-.1-1.07-.21-1.6-.32-.4-.08-.81-.16-1.22-.26-.35-.07-.71-.15-1.07-.24-.53-.12-1.07-.25-1.61-.39-.44-.1-.89-.22-1.34-.34-.47-.12-.95-.25-1.42-.38-.47-.13-.95-.26-1.42-.4-1.08-.31-2.17-.65-3.25-1-.71-.23-1.41-.46-2.12-.71-.65-.22-1.3-.45-1.95-.69-.56-.2-1.11-.4-1.66-.61-2.97-1.13-5.92-2.38-8.84-3.75-.5-.23-1-.46-1.49-.71-.57-.27-1.13-.55-1.7-.83-1.05-.52-2.11-1.07-3.15-1.63-1.05-.56-2.08-1.13-3.11-1.72-1.03-.58-2.06-1.18-3.07-1.8-.51-.3-1.01-.61-1.51-.93-2.57-1.59-5.08-3.28-7.51-5.04-.42-.3-.83-.6-1.24-.91-2.36-1.74-4.63-3.57-6.81-5.45-.65-.55-1.28-1.12-1.91-1.69-.02-.01-.03-.02-.04-.04-.63-.56-1.25-1.14-1.86-1.72-2.47-2.34-4.79-4.77-6.92-7.27-.36-.42-.71-.83-1.05-1.25-1.77-2.14-3.41-4.34-4.88-6.57-.26-.39-.52-.78-.76-1.17-.84-1.32-1.62-2.65-2.35-3.99l23.53-24.04-5.97-10.05-57.15,44.48c-10.72,2.3-38.4-28.96-49.12-28.2-7.03.5-7.93,7.9-3.55,13.16,5.01,6.02,37.65,26.05,46.61,31.57,13.91,8.56,28.36,14,42.71,23.63,47.59,31.93,124.39,107.2,75.32,166.4ZM803.52,336.21c-.04.41-.07.82-.11,1.23-.09.95-.2,1.89-.32,2.85-.16,1.19-.36,2.39-.58,3.6-.14.75-.3,1.51-.46,2.26-.35,1.6-.75,3.2-1.19,4.8-.23.8-.46,1.61-.71,2.41-.15.48-.3.96-.46,1.45-.07.23-.14.46-.22.68-.08.24-.16.49-.25.74-.19.55-.38,1.11-.59,1.66-.27.76-.56,1.51-.85,2.26s-.59,1.5-.9,2.24c-.48,1.15-.99,2.29-1.51,3.43-.36.79-.74,1.58-1.13,2.37-.05.11-.1.23-.17.34-.38.79-.78,1.58-1.19,2.36-.38.74-.78,1.46-1.18,2.19-.41.73-.82,1.45-1.24,2.17-.22.41-.46.81-.71,1.21-.26.45-.53.89-.79,1.32-.6.98-1.22,1.94-1.85,2.9-.69,1.06-1.4,2.1-2.13,3.13-1.1,1.54-2.22,3.05-3.38,4.52h0c-1.17,1.48-2.36,2.92-3.58,4.31-1.63,1.86-3.32,3.65-5.05,5.33-.86.85-1.74,1.67-2.62,2.47-.88.8-1.78,1.58-2.68,2.33-.34.28-.68.56-1.03.83-.35.27-.69.54-1.03.81-.35.27-.69.53-1.04.79-.34.27-.69.52-1.04.77-.93.67-1.87,1.31-2.81,1.93h0c-.94.61-1.89,1.19-2.85,1.75h-.01c-.96.55-1.92,1.07-2.89,1.56-4.85,2.44-9.83,4.06-14.81,4.66l-51.37-19.33-43-16.17h0c-4.49-4.9-9.06-9.7-13.73-14.4-.93-.94-1.87-1.88-2.81-2.81-2.47-2.45-4.96-4.87-7.48-7.26-.84-.8-1.68-1.59-2.53-2.38-.84-.79-1.69-1.57-2.55-2.36-.85-.78-1.7-1.56-2.56-2.33-.86-.78-1.72-1.55-2.59-2.32-4.82-4.28-9.73-8.43-14.76-12.45-1.29-1.03-2.58-2.05-3.89-3.06-1.13-.88-2.27-1.75-3.41-2.62-.37-.29-.75-.57-1.14-.86-1.11-.83-2.23-1.66-3.35-2.48-1.33-.97-2.67-1.93-4.02-2.89-2.15-1.53-4.32-3.03-6.52-4.5-2.19-1.48-4.41-2.92-6.64-4.34-1.12-.71-2.24-1.42-3.37-2.11-2.26-1.39-4.53-2.75-6.83-4.09-1.15-.66-2.3-1.32-3.46-1.97s-2.32-1.3-3.49-1.93c-1.17-.64-2.35-1.27-3.53-1.89l12.77-8.19c34.33,44.22,82.14,66.45,138.38,52.75,1.6-.39,3.24-.82,4.92-1.3,1.68-.48,3.4-1,5.14-1.57,1.73-.56,3.5-1.18,5.27-1.84,1.78-.65,3.57-1.36,5.36-2.1,1.79-.75,3.58-1.54,5.37-2.37.89-.42,1.78-.85,2.66-1.29.89-.44,1.77-.89,2.65-1.35.87-.46,1.75-.93,2.61-1.41,1.73-.97,3.44-1.98,5.11-3.03.78-.5,1.56-1.01,2.33-1.53.46-.3.91-.61,1.35-.92.3-.21.59-.41.87-.62,1.76-1.25,3.45-2.55,5.07-3.91.6-.5,1.19-1.01,1.77-1.53.58-.51,1.15-1.04,1.7-1.57.56-.53,1.11-1.07,1.64-1.61.66-.67,1.3-1.35,1.92-2.04s1.22-1.4,1.8-2.11c.29-.36.58-.72.85-1.08.56-.73,1.09-1.47,1.61-2.21.23-.33.45-.66.66-.99.43-.66.84-1.33,1.24-2.01.78-1.36,1.5-2.76,2.13-4.18.32-.72.61-1.44.89-2.17.12-.32.24-.65.35-.99.15-.42.29-.85.42-1.28.08-.25.15-.51.22-.76.08-.27.16-.54.22-.82.03-.08.05-.17.07-.26.06-.22.11-.44.16-.66.06-.28.12-.57.18-.86.08-.38.15-.77.22-1.16s.13-.78.18-1.18h0c1.31.1,2.58.23,3.82.39.4.05.79.11,1.18.17,1.24.18,2.44.4,3.6.65.34.07.67.15,1.01.23.29.06.57.13.85.2.44.11.88.23,1.31.35.3.08.59.16.88.25.75.23,1.48.46,2.19.72.33.11.66.23.98.36.96.36,1.89.76,2.79,1.18.41.19.81.38,1.2.58.48.24.94.49,1.4.75,1.1.63,2.15,1.29,3.13,2t.01,0c.99.7,1.93,1.45,2.81,2.24.49.44.96.89,1.42,1.35.23.23.45.47.67.71.22.23.44.47.65.72.2.23.4.46.6.7.41.5.81,1.02,1.19,1.55.18.26.37.52.54.78.18.26.36.53.53.8.34.54.66,1.09.97,1.64.15.28.3.56.45.84,1.9,3.68,3.13,7.74,3.76,12.06.15,1,.26,2.01.35,3.03.08,1.03.13,2.06.16,3.11.01.61,0,1.24,0,1.86,0,.37,0,.74-.02,1.11-.02.79-.06,1.59-.11,2.39-.01.11-.01.21-.02.32ZM887.25,473.06c-2.79-.45-5.65-1.49-6.06-4.66,22.74-4.88,42.88-30.49,51.78-51.3,1.23-2.88,7.45-17.62,7.45-18.62,0-12.57.58-25.38,0-37.91-.05-1.08-6.09-4.11,1.15-3.53,38.28,30.13-11.69,122.87-54.32,116.02Z"/>
          <path class="cls-2" d="M702.58,201.6c22.08,20.92,55.61,61.6,47.18,93.88-6.33,24.22-64.85,40.81-87.34,40.02-32.31-1.14-73.83-24.61-89.33-53.25l23.52-24.04-5.96-10.05-57.15,44.48c-10.72,2.29-38.4-28.96-49.13-28.2-7.02.5-7.93,7.9-3.55,13.16,5.01,6.02,37.65,26.05,46.61,31.57,13.91,8.56,28.36,14,42.71,23.63,47.59,31.93,124.39,107.2,75.32,166.41-2.36,2.85-14.77,16.25-17.76,14.17-8.34-15.85-21.18-32.7-33.15-46.25-6.69-7.58-40.14-42.8-46.13-46.26-6.99-4.03-16.75-3.99-14.41,5.11,2,7.8,23.84,23.13,30.89,30.52,21.83,22.86,63.66,69.91,66.95,101.39,5.28,50.51-50.05,117.67-102.51,119.14-13.02.36-53.53-10.7-62.19-19.7-12.38-12.86,11.08-48.85,22.17-50.97,7.14-1.37,25.08,8.17,31.18-4.07-3.16-12.49-14.11-7.04-23.8-8.88-8.92-1.69-18.34-9.36-24.39-15.94-2.36-2.57-9.62-21.45-16.48-7.19-5.03,10.46,11.47,22.48,17.79,29.59-8.01,8.39-17.82,19.33-21.77,30.3-3.51,9.77-1.12,19.66-3.05,25.19-7.6,21.84-51.67,43-73.5,45.18-86.26,8.61-168.9-32.59-190.01-120.34-39.82-165.57,123.72-356.3,262.25-425.83,95.63-48,179.99-23.87,255.03,47.22ZM311.95,336.3c-9.11-8.91-35.65,13.98-43.3,20.66-10.62,9.26-54.36,50.83-25.93,56.82,5.45-.46,24.02-29.01,30.62-35.54,7.95-7.87,40.04-27.47,40.99-34.63.28-2.15-.83-5.8-2.37-7.3ZM309.82,388.16c-8.63-5.47-28.36,11.51-35.22,17.4-9.81,8.42-41.43,42.32-40.31,54.42.48,5.2,5.44,9,10.61,8.51,7.19-.69,12.17-15.17,16.9-21.24,13.27-17.05,29.01-32.33,47.66-43.52,3.99-4.68,3-10.49.36-15.57ZM295.26,456.96c-1.51.46-14.74,11.52-17.13,13.73-10.47,9.71-50.71,59.08-47.55,71.19,1.46,5.6,5.82,8.48,11.62,6.74,4.32-1.3,26.06-38.1,32.51-45.81,6.36-7.61,29.21-26.28,31.88-32.09,4.53-9.84-.52-17.02-11.32-13.75Z"/>
          <path class="cls-3" d="M412.05,153.26c1.03,4.4-1.49,4.59-3.94,6.7-13.72,11.81-34.85,22.95-50.3,34.99-9.95,7.75-54.96,50.09-60.78,50.67l-211.9-81.72c37.11-22.89,61.68-71.36,52.1-114.91l274.81,104.27Z"/>
          <path class="cls-3" d="M765.22,293.17c75.29,5.71,25.39,116.61-25.06,122.71l-94.38-35.51c-28.74-31.29-60.85-59.19-98.66-79.04l12.77-8.2c34.33,44.23,82.14,66.45,138.38,52.75,25.58-6.23,62.94-23.87,66.95-52.71Z"/>
          <path class="cls-2" d="M177.46,603.43c26.91,80.39,114.01,119.66,194.31,111.36,3.62,38.67-48.37,44.79-77.08,42.73-42.96-3.08-83.99-32.72-108.7-66.63-15.62-21.43-47.64-75.02-8.53-87.46Z"/>
          <path class="cls-3" d="M940.42,360.57c-.05-1.08-6.09-4.11,1.15-3.53,38.28,30.14-11.7,122.87-54.32,116.03-2.79-.45-5.65-1.49-6.06-4.66,22.74-4.88,42.89-30.49,51.79-51.3,1.23-2.87,7.45-17.61,7.45-18.62,0-12.57.58-25.38,0-37.91Z"/>
          <path class="cls-1" d="M295.26,456.96c10.8-3.27,15.85,3.91,11.32,13.75-2.67,5.81-25.52,24.48-31.88,32.09-6.44,7.71-28.18,44.51-32.51,45.81-5.8,1.75-10.16-1.13-11.62-6.74-3.16-12.1,37.09-61.47,47.55-71.19,2.38-2.21,15.62-13.27,17.13-13.73Z"/>
          <path class="cls-1" d="M311.95,336.3c1.54,1.5,2.66,5.15,2.37,7.3-.95,7.16-33.03,26.76-40.99,34.63-6.6,6.53-25.18,35.08-30.62,35.54-28.43-5.98,15.32-47.55,25.93-56.82,7.66-6.68,34.19-29.57,43.3-20.66Z"/>
          <path class="cls-1" d="M309.82,388.16c2.65,5.08,3.64,10.89-.36,15.57-18.66,11.19-34.39,26.47-47.66,43.52-4.73,6.07-9.71,20.55-16.9,21.24-5.17.49-10.12-3.31-10.61-8.51-1.12-12.1,30.5-46,40.31-54.42,6.85-5.88,26.58-22.87,35.22-17.4Z"/>
        </g>
      </g>
      <path class="cls-1" d="M263.39,255.14c17.49-19.15,37.19-36.13,56.84-53.06,23.48-20.23,47.1-40.55,73.57-56.66,4.14-2.52,8.58-5,13.43-5.13,4.65-.12,9.5,2.34,11.42,6.58,2.98,6.59-1.71,14.02-6.61,19.34-11.4,12.37-25.18,22.25-38.85,32.04-30.53,21.86-61.06,43.72-91.59,65.58"/>
    </g>
  </g>
</svg>