<?xml version="1.0" encoding="UTF-8"?>
<svg id="Calque_2" data-name="Calque 2" xmlns="http://www.w3.org/2000/svg" xmlns:xlink="http://www.w3.org/1999/xlink" viewBox="0 0 1048 1048">
  <defs>
    <style>
      .cls-1 {
        fill: #1f1c15;
      }

      .cls-2 {
        fill: #f8b521;
      }

      .cls-3 {
        fill: #f2a275;
      }

      .cls-4 {
        fill: #5e6b28;
      }

      .cls-5 {
        fill: #f5bd5a;
      }

      .cls-6 {
        fill: #ffe5a3;
      }

      .cls-7 {
        fill: #e46460;
      }

      .cls-8 {
        fill: #aba397;
      }

      .cls-9 {
        clip-path: url(#clippath);
      }
    </style>
    <clipPath id="clippath">
      <circle class="cls-2" cx="524" cy="524" r="524"/>
    </clipPath>
  </defs>
  <g id="Calque_1-2" data-name="Calque 1">
    <g>
      <circle class="cls-2" cx="524" cy="524" r="524"/>
      <g class="cls-9">
        <g>
          <path d="M300.25,610.98c-73.54,35.18-161.73,51.29-234.42,85.81-74.7,35.49-80.71,81.72-40.93,151.1,28.47,49.63,61.11,89.81,82.19,145.03,5.3,13.9,27.07,80.31,19.46,89.89-5.45,1.81-7.91-7.96-9.51-11.98-12.38-30.85-19.42-62.33-34.29-93.78-25.85-54.61-101.91-147.81-99.73-203.1,1.89-47.52,42.23-78.01,82.13-95.16-68.12-72.12-212.4-69.95-214.43,52.51l39.65,33.49c-8.19-29.69,11.49-106.23,35.27-38.97,15.96,45.17,23.8,89.76,44.22,134.46,37.31,81.73,85.19,176.79,130.41,254.21,3.64,6.22,26.79,35.11,22.05,40.45l-18.77-5.76c-21.78,16.83-47.32,26.54-73.69,33.7l-3.54,24.97c12.41-3.47,24.36-8.64,35.86-14.4,6.48-3.22,42.43-26.73,44.87-24.45.82,7.87-9.25,16.57-15.17,21.71-17.82,15.48-44.6,29.46-68.39,30.84l-15.23,76.7c54.48,22.67,58.25-56.94,98.48-72.98,4.6,5.37-20.57,40.48-22.15,47.99-.73,3.45-.91,3,1.54,5.55,5.86,6.05,43.29,22.29,53.43,26.71,37.7,16.46,105,32.33,135.83,50.2,12.84,7.43,32.71,30.56,46.62,40.94,23.8,17.75,61.35,41.33,90.98,27.13-1.72-7.23-7.86-11.04-9.53-18.88-20.66-97.88,52.12-307.99,114.68-386.35,7.22-9.03,15.76-18.44,26.16-23.53-.94-15.85-51.53-38.57-65.32-44.2-75.86-30.94-160.55-46.86-238.11-73.62-17.66-1.79-50.72,20.52-70.69,23.54-3.2.49-10.73,1.95-11.83-2.47-1.75-6.98,24.76-17.09,30.23-19.58,73.65-33.32,156.76-51.82,229.24-88.49-55.2-18.79-106.49-79.85-115.08-137.72-1.65-11.24-.92-26.36-1.34-38.21-.03-.9,5.64-4.16-1.17-3.29ZM548.85,1012.18c-11.03,3.09-36.63,45.88-43.4,57.55-47.41,81.83-94.74,222.26-89.34,316.94.39,6.78,3.43,13.72,3.56,20.69,16.97,8.34,35.71,14.79,53.63,5.21-8.68-45.47-.48-92.9,9.88-137.48,16.47-70.81,51.44-164.11,94.66-222.64,5.01-6.79,11.93-17.38,19.49-19.92,2.76-4.15-40.2-22.67-48.48-20.36ZM666.23,1323.62c-20.68-11.54-39.29-26.51-59.33-39.04-11.65-.6-28.06,54.76-37.95,63.93-2.75,2.55-3.74,3.08-7.7,2.59-4.11-7.48,14.25-43.43,11.89-45.4-28.16,7.51-53.09-.77-79.11-10.73-6.04,34.41-13.67,70.51-5.53,105.01,66.9,38.03,145.85,81.96,223.5,91.41,106.8,13,140.76-60.19,186.53-140.03l-3.76-4.68-139.82-31.74c-20.56,42.08-56.7,26.58-88.72,8.69ZM498.43,1278.01c18.99,19.14,85.94,21.3,96.02-5.72,1.54-4.13-2.71-3.37-4.65-4.16-15.89-6.6-33.17-9.71-48.7-17.4l-1.63-6.85c6.12-.57,12.02-.58,18.13.38,40.11,6.22,100.46,31.03,143.16,42.34,107.09,28.41,217.9,53.54,327.75,68.3,6.87-.44,19.05-31.18,21.5-38.31,11.01-32.05,19.87-79.81,1.2-109.72-152-41.69-303.72-88.97-445.46-158.22-56.99,62.73-84.21,149.05-107.32,229.36ZM174.64,209.05c-37.68,8.59-79.37,69.2-51.43,104.34,10.22,12.87,32.35,24.23,40.69,35.61,3.07,4.19,3.87,9.52,6.74,13.78,9.8,14.53,53.72,38.65,69.81,51.05,30.83,23.76,59.16,54.16,90.57,77.75,3.41,13.27,3.32,25.56,6.87,39.27,4.04,15.7,12.33,29.54,18.43,44.31-14.31-.71-28.03,16.19-39.21,18.9-49.34,11.92-85.01,27.1-132.37,43.99-33.4,11.9-67.6,21.7-100.76,34.33-43.34-34.71-82.26-63.39-141.43-57.92-58.05,5.36-94.52,33.15-104.95,91.27-.79,4.42,1.34,17.78-3.78,15.97l-63.1-34.88c56.41-72.63,14.19-168.79-61.26-207.2-54.96-27.98-129.6-31.87-181.4,4.82-22.84-10.27-45.82-16.87-69.56-4.14-5.93-8.79-9.19-18.38-15.91-26.9-35.8-45.51-119.33-39.3-148.87,10.43-64.1-87.72-229.41-48.93-201.16,72.3-75.36-11.61-138.04,64.6-117.66,136.97-75.69,11.2-137.84,97.44-92.56,168.97,5.1,8.04,18.58,18.5,21.39,23.46,3.34-4.1,6.9-7.82,10.62-11.11-71.02-60.57-7.75-168.65,82.37-164.18-33.59-85.28,33.49-157.43,121.3-134.76-21.96-49.34-13.19-98.35,41.99-116.3,57.69-18.76,106.22,8.48,134.87,58.31,6.03-6.35,6.6-15.31,10.59-22.67,26.76-49.43,121.38-46.98,135.39,10.74,1.34,5.49.65,29.52,5.38,29.13,13.36-25.24,40.42-31.23,65.67-20.21,1.11,1.38-15.21,23.89-17.39,28.33-27.25,55.27-2.21,108.4,45.09,141.29,6.3,4.39,43.35,23.98,43.88,26.95,1.64,8.94-16.95,8.81-22.72,8.67-27.21-.71-78.95-6.85-105.58-12.69-13.86-3.05-25.13-5.13-35.08-16.01-3.37-3.69-3.39-9.38-8.15-11.06-7.18,28.9-17.41,50.86-42.84,67.68-26.77,17.72-54.86,20.48-84.94,9.88-11.44-4.03-20.88-11.51-32.1-15.73-.64,11.81,2.36,25.59,1.3,37.08-.72,7.83-7.49,27.69-11.03,35.38-17.72,38.4-57,57.31-98.22,57.35-.91,4.33,1.72,4.26,3.97,6.18,17.6,14.96,28.88,20.12,40.89,42.45,36.9,68.62,20.79,174.18-60.89,200.56,10.12,8.24,23.86,7.96,35.4,15.66,71.77,47.87,53.03,173.37-9.22,224.02-13.81,11.22-32.74,15.37-43.76,29.82,19.27,6.75,35.12-5.41,52.04-12.58,27.81,16.62,53.3,41.05,61.91,73.42,7.2,27.04,8.15,54.78-18.31,70.8-3.11,5.58,1.97,9.92,7.15,10.06,19.3.54,32.99-28.11,31.12-45.08,46.75,15.15,93.64,24.04,143.2,22.44l49.8,35.32c5.6,66.86-101.96,97.11-129.37,38.35-1.75-3.74-2.77-19.32-7.95-17.05-6.91,3.05-6.37,21.74-8.48,29.08-32.15,112.67-212.93,66.5-175.68-49.64-6.75.62-10.82,6.5-17.03,9.1-92.78,39.14-187.57-53-131.58-142.25l21.58-24.43c-65.78,1.02-117.17-38.56-131.19-102.97-12.89-59.16,12.86-128.8,62.14-164.33-4.15-3.5-8.14-7.5-11.87-11.94-103.61,74.35-93.85,265.69,45.36,291.73-5.42,15.65-15.57,28.43-17.65,45.49-11.34,93.24,71.59,155.35,158.69,127.32.03,117.84,174.43,143.29,210.5,33.16,42.93,44.31,123.99,25.68,143.25-32.74,1.75-5.33,2.93-22.51,6.85-24.05l7.61-.51c1.98,12.28-6.69,32.5,8.66,38.51,18.71,7.29,40.98-10.88,34.36-31.02,36.44,1,71.17-5.26,101.87-25.55,168.17,77.4,348.49-28.46,394.35-198.84,28.54,13.09,57.07,4.64,72.36-22.83,60.96,35.38,127.92,58.87,195.06,79.97,31.47,34.93,85.6,83.66,136.42,74.82,11.03-1.94,21.4-12.77,26.95-13.63,7.7-1.19,19.46,4.9,31.21,2.64,8-1.52,21.39-12.56,28.83-12.15,4.04.24,60.3,33.38,70.86,38.45,53.42,25.63,133.85,56.03,193.35,49.06,86.57-10.14,121.47-89.22,159.15-156.47,32.4,7.51,65.58,13.21,98.94,14.56,5.51,21.72,31.68,25.11,51.02,27.31,24.6,2.81,59.03,6.69,72.17-19.13l51.89,3.85c-6.04,29.37,1.61,56.92,31.64,67.48,8.73,3.07,26.02,3.93,31.63,8.03,9.68,7.09,34.23,44.44,44.92,56.78,30.36,34.96,76.58,83.75,125.63,86.78,77.73,4.77,119.47-33.97,137.49-106.59,26.2-105.76-10.27-186.14-79.62-263.28-34.23-38.07-80.05-82.64-131.46-93.35l-.12-3.33c3.94-3.83,7.12-8.12,9.03-13.34,53.03-145.44-43.64-204.17-173.98-220.2-25.94-3.19-55.2-2.01-80.23-7.23-60.82-12.7-145.27-58.49-199.92-.32-13.43,14.29-16.07,33.37-24.34,44.71-2.73,3.74-16.61,10.93-21.9,16.54-25.97,27.57-37.41,80-16.27,113.26,5.05,7.92,12.96,11.49,15.38,19.62-23.41.55-28.68,16.51-36.04,34.95-38.92-13.94-78.16-27.31-116.53-42.7-13.92-5.59-76.55-29.36-83.78-35.5-2.41-2.05-1.97-8.08-4.36-12.18-12.66-21.47-42.4-22.59-52.01-31.66-2.56-2.43-7.42-13.98-11.58-19.06-30.96-37.71-134.37-67.13-182.65-81.59-35.59-10.68-71.5-20.23-107.9-27.73.24-3.5,3.3-3.51,5.63-4.52,46.73-20.22,101.42-31.41,147.58-53.72,14.14-6.84,17.21-12.3,28.03-19.52,15.2-10.12,37.95-14.51,53.04-24.47,4.33-2.87,10.48-11.1,13.09-11.8,3.25-.88,8.68,1.65,13.02,1.55,35.8-.78,66.58-2.08,98.04-21.19l71.28,63.44c55.97,12.47,119.5,49.26,175.1,59.35,7.04,1.28,16.75,2.9,15.66-7.23-13.68-27.04-24.58-55.62-38.51-82.5-15.16-29.26-35.22-55.95-47.47-86.66l-67.22-58.65c-2.52-5.11,5.99-19.72,6.7-28.52,2.04-25.43-9.86-46.5-31.74-58.75-6.45-3.62-26.6-8.93-28.4-10.3-1.18-.9-8.91-19.78-14.02-25.81-10.38-12.26-27.44-16.39-34.32-23.8-4.91-5.32-8.72-19.59-16.8-28.64-14.87-16.69-29.51-16.95-42.47-26.73-3.61-2.71-6.02-9.4-9.61-12.98-26.18-26.13-60.92-30.41-96.61-27.13-8.03.73-21.81,6.95-27.81,4.48-28.25-24.15-56.71-48.26-85.8-71.35-8.1-6.42-19.4-12.33-26.6-18.13-5.14-4.12-9.37-13.04-16.3-17.48-6.88-4.42-14.14-4.16-19.29-7.29-5.52-3.36-29.21-24.38-38.27-31.24-25.17-19.08-37.86-38.39-74.34-30.07ZM1051.5,1180.98c-5.58,1.3-6.23,7.22-13.03,7.18-1.6-.01-29.85-6.76-30.95-7.94-.75-.78,1.91-5.13,1.36-7.5-1.13-4.64-8.84-12.81-8.94-18.16l13.9-19.5c22.68,25.13,54.93,22.67,80.11,2.64l113.46,31.07c-6.02,10.56-13.83,19.66-20.14,30.12-4.23,7.03-6.1,20.62-14.85,20.5-2.05-.04-16.08-1.66-16.84-2.04-1.03-.55-8.33-13.59-14.74-18-15.72-10.79-71.22-22.55-89.35-18.36ZM633.04,1281.13l104.48,27.82c-16.3,45.28-81.03-12.29-104.48-27.82ZM1363.05,1179.03c-3.1,3.44-20.82-13.02-25.49-15.78-56.96-33.72-118.98-1.62-144.16,54.37,20.72,6.93,28.85-16.13,41.98-26.09,12.19-9.25,27.53-13.29,42.81-11.22,6.4.86,21.37,9.51,23.39,9.29,1.39-.16,9.87-10.47,16.33-12.41,29.5-8.89,68.39,14.28,53.91,48.09-22.92,53.55-79.41,104.08-99.99,161.15-5.13,14.24-6.01,32.82-14.73,43.86-10.88-34.52,9.78-68.97,27.15-97.51,20-32.86,46.45-64.02,65.95-97.22,8.2-13.95,20.69-29.41,2.04-41.41-36.99-23.8-50.17,26.13-64.3,48.58-23.04,36.61-53.42,74.48-72.1,113.24-9.46,19.66-19.55,44.38-5.12,64.58,11.29,15.78,29.56,11.88,44.41,17.66,12.91,5.04,60.54,70.43,76.11,86.27,55.25,56.21,120.82,90.12,164.29-1.23,46.79-98.31,10.91-196.74-57.97-271.38-8.79-9.48-35.44-29.68-39.56-39.21-4.36-10.15,18.74,6.86,20.54,8.3,43.92,34.47,93.75,98.54,104.09,154.19,13.47,72.5,4.68,151.73-51.84,203.3-1.92,1.75-7.13,4.66-.28,4.08,80.97-29.97,95.41-150.44,75.13-222.73-17.25-61.39-85.45-142.46-136.5-180.06-19.98-14.74-44.01-30.75-69.64-31.36l17.17,13.01,6.38,17.62ZM1224.07,1226.65c-17.14,13.56-43.5,6.47-63.9,6.76,5.26,32.56,5.96,62.87-1.8,95.05-2.65,11.01-7.88,20.44-9.52,31.34l46.07,5.34,99.16-162.31c-37.74-22.58-47.58,6.1-70,23.83ZM1036.72,1369.37c16.92,8.99,63.83,15.3,79.62,4.71,32.6-21.89,37.57-122.33,20.38-153.98-9.52-17.49-53.82-21.11-72.32-23.84,26.23,51.99,9.23,129.99-27.67,173.11ZM899.6,924.12c8.03.42,15.38-3.49,23.39-4.28,36.44-3.59,134.35-.31,157.22,32.08,12.76,18.1,13.2,49.36-12.89,54.68-6.37,1.3-33.99-.34-34.09,5.09,19.06,19.97,47.3,85.52,20.57,106.23-5.35,4.15-16.55,8-21.31,1.83l6.5-5.83c-22.5.67-12.98,19.99,3.01,23.57,51.6,11.56,64.74-42.32,54.69-81.98-3.68-14.54-12.68-25.34-13.86-39.91,34.37,25.89,38.63,73.9,21.89,111.72l114.87,31.89c18.47-14.26,42.99-24.12,66.52-24.94,20.79-.71,31.1,10.95,50.45-7.1,34.8-32.45-9.41-108.83-39.63-132.52-56.62-44.37-122.01-35.99-183.54-54.99-3.32-1.03-7.58-1.96-8.69-5.82,86.69,6.19,197.16,17.16,240.37,104.78l14.43,39.28c12.29-78.38-28.66-125.08-99.09-149.01-54.45-18.48-99.2-13.72-152.3-23.2-21.97-3.93-45.75-14.96-68.1-20.23-54.18-12.8-110.75-18.54-140.39,38.67ZM873.96,1083.34c44.47,3.42,86.26,25.94,117.56,56.91,18.1-20.89,10.51-30.21,40.17-38.62,17.62-5,20.34,3.02,17.05-22.69-7.43-57.98-50.02-83.38-105.13-85.45-58.92-2.21-89.61,32.05-69.65,89.86ZM853.46,987.64c-8.43,20.14-12.65,57.69,3.65,74.11-6.72-23.42-.87-48.76,18.64-64.18,51.24-40.45,116.77-2.98,173.76-3.29,8.44-.05,15.47-1.73,22.81-5.86,13.47-39.38-41.17-48.06-68.77-52.23-55.27-8.37-124.82-8.91-150.09,51.45ZM845.79,1103.34c-2.3,2.31-9.91,20.85-8.93,22.09l154.72,48.59c-6.87-25.8-28.88-43.39-51.41-55.6-19.77-10.72-76.21-33.27-94.39-15.08ZM771.07,704.29c-6.54,4.08-14.85,2.09-21.47,3.9-7.33,1.97-22.77,19.92-24.38,27.34-1.84,8.55,2.2,12.19,1.88,18.88-.72,14.81-16.47,10.28-23.51,16.33-1.22,1.06-4.9,7.84-4.6,9.34l5.93,5.37,95.43,35.23c-.43-19.25,14.03-38.36,33.4-41.67-13.67-22.92-25.39-47.69-40.29-69.86-3.18-4.68-8.22-15.49-13.3-16.07-5.49-.64-3,7.42-9.08,11.21ZM663.88,618.48l90.46,76.63c14,5.79,11.54-8.55,21.92-15.3-37.15-19.85-62.91-75.59-112.39-61.32ZM606.47,648.6l103.41,94.24c4.77.6,2.6-.86,3.44-3.2,6.24-17.7,12.77-33.89,32.1-40.8l-89.84-77.48c-10.88-2.79-42.14,16.96-49.11,27.24ZM600.98,654.46c-8.39,7.76-18.95,21.16-10.98,32.74l94.93,84.71,4.53.9c2.25-9.71,11.91-17.14,21.97-16.52l-110.45-101.83ZM356.65,467.91c-16.56,36.07-3.18,74.98,16.47,106.76,6.2,10,32.35,37.82,33.8,43.03.49,1.76.68,3.42.56,5.2-11.73.34-18.43-11.57-27.58-17.01,13.1,58.61,52.81,113.16,112.51,129.97,35.86,10.09,85.17,8.34,116.53-13.1-26.19-25.68-54.14-31.52-25.9-72.05,27.17-38.96,90.23-61.21,134.48-40.89,9.61-28.31,1.99-51.87-26.12-64.07-36.86-15.97-79.88-6.84-114.52,10.08-15.55,7.61-28.47,20.42-44.87,24.46-6.91-6.42,29.36-31.65,34.1-34.47,13.8-8.27,41.73-20.41,57.26-22.71,11.6-1.71,25.25.06,37.08-1.3-33.7-51.07-95.07-43.77-143.98-20.1-5.24,2.52-30.53,20.24-33.87,17.3.42-9.78,10.32-16.38,17.42-21.76,29.53-22.32,72.41-33,109.09-27.67-43.03-65.06-121.11-34.08-175.6-2.83-8.37-10.15,35.5-33.71,43.1-36.99,22.28-9.56,50.29-16.23,74.42-12.15-53.46-53.94-165.94-11.74-194.42,50.3ZM316.09,614.88c-5.92,72.66,45.22,144.35,113.82,166.11l60.77-30.43c-68.42-18.96-116.47-80.98-126.15-150.38-.75-5.42,3.96-10.33-2.2-13.87l-46.25,28.58ZM300.01,316.16l97.62,85.51,4.95.59,19.36-9.39-95.04-78.74-26.89,2.02ZM278,331.53c-4.74,4.13-22.75,22.42-21.28,27.32l94.22,83.54c5.9,1.35,10.8-10.23,15.93-14.96,7.5-6.92,16.43-12.23,24.11-18.91l-99.17-85.01c-4.71-.74-10.25,4.9-13.81,8.02ZM243.23,396.86l92.76,80.01,13.67-27.39-99.67-83.24c-4.88,7.91-11.28,21.66-6.76,30.61ZM210.57,344.76c-9.76,25.27-5.35,30.48,17.66,43.67,7.82-39.68,38.66-73.95,75.65-89.33-31.22-38.31-80.92,13.57-93.32,45.66ZM200.4,298.31c-12.59,16.3-30.27,49.46-7.87,64.34l17.24-40.41c9.86-15.4,22.72-30.36,37.96-40.69,3.56-2.42,22.78-8.85,19.08-13.7-21.76-11.55-53.16,13.34-66.4,30.45ZM138.49,255.79c-24.2,38.43.13,54.52,29.27,76.25,11.03-35.78,37.1-68.45,73.76-79.11-32.94-37.75-74.23-42.9-103.03,2.86ZM35.52,1118.6c-.2,13.71-4.05,30.86-4.15,44,0,1.89-3.14,2.81,2.42,2.23,6.23-.62,66.58-22.58,65.45-25.92l-20.19-29.65-54.2-103.91c6.79,37.25,11.23,75.22,10.67,113.24ZM-95.16,778.44c1.33,3.98,22.65,25.42,27.55,29.89l-25.26-80.12c-.18,14.7-7.01,36.23-2.29,50.24ZM-138.7,961.58c-17.55,47.78-5.68,97.97,38.13,125.83-.76,9.03-8.21,3.3-14.18,1.19l-15.39-10.28c3.85,12.85,2.97,25.01,6.52,38.45,6.22,23.43,22.76,47.16,44.11,58.76,12.16-60.26,2.43-125.4-27.51-179.17-2.64-4.72-26.11-39.39-31.69-34.78ZM-228.46,1037.7c28.68,13.76,22.82,55.32,7.35,77.49,16.29,3.05,15.78,27.78,14.92,41.13-1.09,17.03-8.66,31.72-18.35,45.24,13.54,17.19,24.11,40.11,22.04,62.55-.21,2.39-7.7,15.84-.6,12.49,1.68-.8,11.18-11.64,12.9-14.09,27.62-39.6,22.95-108.68,13.18-153.75-6.98-32.16-19.81-62.61-46.1-83.47l-5.33,12.41ZM-288.72,1016.29c-14.33,27.86-28.4,95.1-26.11,125.8.54,6.96,11.46,27.77,13.98,38.84,6.46,28.37,5.95,51.1-4.75,78.34-1.32,3.38-5.74,6.28-6.02,8.65-1.69,14.78,21.81,81.84,30.58,96.97,21.67,37.27,76.34,59.61,56.19-1.94-3.65-11.12-11.07-18.58-15.57-28.78,51.57,3.62,21.94-50.81-4.51-64-2.65-7.56,18.24-1.47,20.87-2.19,10.48-2.8,4.59-26.89,2.09-34.07-4.81-13.94-14.64-22.33-23.25-33.46-.21-5.44,9.51-9.24,13.15-13.94,10.49-13.53,12.89-41.14,7.22-56.76-7.39-6.65-16.79-1.39-25.1-3.4,19.23-17.59,39.4-52.01,17.58-75.01l-22.33,4.27c10.38-21.02,29.68-50.81,15.86-74.12-13.65-22.99-43.17,21.67-49.89,34.78ZM-468.64,502.87c-47.7,41.21-38.29,102.56,8.22,140.33,17.14,13.94,61.82,28.53,60.52,51.89-1.95,34.9-72.5,14.85-94.14,15.63,3.74,30.43-2.81,59.91-3.6,90.16,134.58-11.01,214.77,133.33,168.25,251.45-27.53,69.89-83.42,113-159.93,115.03l-.12,33.89,48.8,9.34c1.27-13.21,10.1-34.92,25.88-34.57-5.65,21.78-14.98,38.06-10.76,61.67,6.82,38.02,59.63,55.2,89.43,32.31,25.55-19.64,26.56-57.52,19.57-86.26-2.13-8.72-16-36.66-15.96-38.75.01-2.88,3.38-5.72,3.86-9.34,7.31-54.82,5.8-105.49,42.18-151.97,3.38-4.3,18.98-17.77,19.31-19.08,1.64-6.52-5.92-17.46.91-33.81,21.33-50.95,97.68-14.26,128.72,7.31,60.17,41.84,86.94,142.41,79.02,212.47-7.94,70.26-60.25,159.11-137.67,164.07,1.11,13.64-4.31,29.29-19.13,32.2,19.05,33.24,14.11,83.01-35.84,67.57-44.79-13.85-64.67-90.54-72.15-131.32l-16.72,9.56c4.84,20.56,14.43,40.07,16.93,61.33,6.68,57.19-13.95,104.74-53.42,144.71,156.96,63.77,296.2-25.08,355.07-172.26,85.73-214.32,19.33-514.99-204.74-615.05-5.85-2.61-29.38-8.72-31.02-11.16-4.53-6.73,17.82-29.72,22.5-37.87,73.02-127.2-135.06-244.94-234-159.48ZM-645.02,1006.75c20.74,160.53,245.46,176.29,295.18,28.64,29.88-88.74-19.18-193.75-116.69-206.09-109.35-13.84-192.63,68.02-178.49,177.44ZM-638.47,1386.81c8.49,61.22,55.13,109.93,115.98,120.45,132.78,22.9,212.95-90.96,153.71-209.16-36.41-5.25-66.33-20.99-75.25-59.2-105.37-37.58-210.66,30.98-194.44,147.92ZM-728.9,750.46c-3.35,43.03-24.85,82.01-62.76,103.46-7.83,4.44-16.1,6.1-23.24,10.96,56.87,68.44,54.97,177.33-16.52,234.58,80.27,55.97,73.12,179.62,8.57,244.98,36.15,26.82,64.17,59.7,69.34,106.28,40.46,12.74,81.91,19.39,124.14,23.09-7.64-16.54-19.26-30.78-25.91-47.97-40.31-104.44,18.31-208.65,129.78-221.56l3.37-3.31-3.57-36.53c-123.83-21.93-184.87-157.84-127.27-268.16,24.06-46.07,61.46-77.08,112.38-89.8l17.21-99.19c-18.88-2.04-38.79-4.47-55.67-13.56-28.82,56.23-90,83.33-149.84,56.73Z"/>
          <path class="cls-1" d="M302.76,652.47c8.59,57.87,59.87,118.94,115.07,137.73-72.48,36.66-155.57,55.16-229.22,88.49-5.49,2.48-32,12.59-30.25,19.58,1.11,4.42,8.64,2.96,11.84,2.47,19.96-3.02,53.03-25.35,70.69-23.54,77.54,26.75,162.25,42.68,238.09,73.62,13.8,5.63,64.39,28.34,65.33,44.19-10.39,5.09-18.95,14.5-26.16,23.53-62.57,78.37-135.34,288.47-114.68,386.35,1.66,7.85,7.82,11.65,9.52,18.89-29.64,14.2-67.19-9.38-90.98-27.13-13.9-10.37-33.78-33.51-46.61-40.95-30.82-17.87-98.13-33.73-135.84-50.18-10.13-4.42-47.58-20.67-53.43-26.73-2.46-2.54-2.27-2.1-1.55-5.54,1.59-7.5,26.76-42.62,22.16-47.99-40.25,16.05-43.99,95.64-98.48,72.98l15.23-76.7c23.78-1.37,50.57-15.36,68.38-30.83,5.91-5.13,16-13.86,15.17-21.71-2.43-2.29-38.39,21.22-44.87,24.46-11.49,5.75-23.44,10.9-35.87,14.39l3.54-24.96c26.38-7.16,51.92-16.88,73.69-33.7l18.76,5.76c4.74-5.34-18.41-34.24-22.04-40.46-45.22-77.42-93.11-172.49-130.42-254.21-20.41-44.71-28.26-89.3-44.22-134.45-23.78-67.28-43.46,9.28-35.26,38.96l-39.66-33.48c2.04-122.46,146.31-124.62,214.43-52.5-39.9,17.14-80.23,47.62-82.12,95.15-2.2,55.31,73.88,148.5,99.71,203.11,14.87,31.44,21.92,62.93,34.31,93.78,1.61,4,4.06,13.77,9.5,11.97,7.61-9.59-14.15-75.99-19.46-89.89-21.09-55.24-53.73-95.41-82.18-145.04-39.78-69.38-33.78-115.61,40.92-151.09,72.69-34.52,160.89-50.63,234.42-85.83,6.82-.86,1.16,2.39,1.19,3.29.41,11.86-.33,26.97,1.34,38.21ZM285.96,1329.24c9.95,7.02,7.7-34.32,7.97-37.11,1.74-17.84,4.76-35.85,7.94-53.47,7.43-41.18,28.57-95.11,31.95-133.31.43-4.82,1.72-8.45-3.25-11.64-28.11,72.83-55.47,156.89-44.61,235.53ZM469.32,1039.33c-14.17,2.81-22.19,15.2-35.96,21.89-17.4,8.45-34.67,11.21-54,10.46-10.77-.42-27.19-6.06-36.34-5.52-3.71.22-5.43.31-7.6,3.72,7.04,8.86,16.86,10.56,27.37,12.57,42.5,8.1,86.81-1.5,106.53-43.11Z"/>
          <path class="cls-3" d="M-489.32,1167.35c76.52-2.02,132.41-45.15,159.93-115.04,46.52-118.12-33.67-262.45-168.26-251.43.79-30.26,7.35-59.75,3.6-90.16,21.64-.79,92.2,19.27,94.15-15.64,1.31-23.35-43.38-37.95-60.53-51.88-46.51-37.77-55.92-99.12-8.21-140.33,98.94-85.45,307.02,32.28,233.99,159.47-4.69,8.16-27.03,31.15-22.5,37.89,1.65,2.44,25.17,8.55,31.01,11.16C-2.04,811.43,64.34,1112.1-21.39,1326.44c-58.86,147.16-198.1,236.01-355.06,172.24,39.45-39.96,60.1-87.52,53.4-144.7-2.49-21.27-12.09-40.79-16.92-61.35l16.71-9.55c7.48,40.78,27.37,117.46,72.16,131.31,49.94,15.44,54.9-34.32,35.84-67.55,14.8-2.91,20.22-18.56,19.13-32.2,77.4-4.96,129.72-93.81,137.66-164.07,7.91-70.04-18.86-170.63-79.03-212.46-31.04-21.58-107.39-58.26-128.71-7.32-6.84,16.35.73,27.3-.92,33.82-.33,1.32-15.93,14.77-19.3,19.07-36.39,46.48-34.88,97.16-42.2,151.97-.48,3.61-3.83,6.45-3.86,9.34-.02,2.1,13.83,30.04,15.96,38.76,7.01,28.72,5.99,66.62-19.58,86.26-29.79,22.89-82.6,5.69-89.41-32.32-4.23-23.61,5.1-39.89,10.74-61.66-15.79-.36-24.61,21.35-25.87,34.57l-48.8-9.35.11-33.88ZM-387.71,599c-19.18-11.4-34.37-39.96-14.41-58.03,8.3-7.51,23.05-10.17,30.89-19.05,2.63-6.68-14.87-3.77-17.56-3.29-34.84,6.2-48.65,41.82-31.16,71.84,13.25,22.74,58.21,50.58,84.43,51.69,3.5.15,21.07.66,15.55-7.34-14.97-8.47-58.12-14.75-51.65-39.27,7.5-28.42,78.58-20.94,83.08,12.1l6.95,1.16c1.96-54.66-96.95-63.14-106.12-9.8Z"/>
          <path class="cls-3" d="M623.39,523.11c-15.55,2.3-43.46,14.44-57.27,22.7-4.73,2.83-41.01,28.06-34.1,34.49,16.41-4.04,29.32-16.85,44.87-24.45,34.64-16.93,77.68-26.07,114.52-10.09,28.12,12.19,35.72,35.77,26.12,64.07-44.26-20.33-107.32,1.94-134.49,40.9-28.25,40.51-.29,46.36,25.91,72.03-31.36,21.45-80.67,23.19-116.53,13.1-59.72-16.8-99.41-71.35-112.52-129.97,9.15,5.45,15.84,17.37,27.57,17.02.13-1.79-.07-3.45-.55-5.2-1.44-5.22-27.61-33.05-33.79-43.05-19.65-31.77-33.04-70.69-16.48-106.76,28.48-62.03,140.95-104.22,194.42-50.29-24.13-4.07-52.15,2.6-74.42,12.16-7.61,3.27-51.46,26.84-43.1,36.98,54.49-31.25,132.56-62.22,175.6,2.83-36.69-5.32-79.56,5.35-109.09,27.67-7.12,5.38-16.99,11.99-17.43,21.77,3.36,2.93,28.63-14.77,33.88-17.31,48.91-23.66,110.28-30.96,143.98,20.1-11.85,1.37-25.49-.42-37.08,1.3Z"/>
          <path class="cls-4" d="M1359.49,1077.9l-14.44-39.28c-43.21-87.62-153.67-98.58-240.36-104.79,1.09,3.87,5.36,4.8,8.68,5.82,61.52,19,126.93,10.6,183.54,54.98,30.22,23.69,74.42,100.07,39.64,132.52-19.35,18.05-29.67,6.39-50.45,7.11-23.54.82-48.05,10.67-66.52,24.94l-114.86-31.9c16.73-37.83,12.46-85.83-21.89-111.73,1.18,14.56,10.18,25.37,13.86,39.9,10.05,39.66-3.1,93.54-54.69,81.98-16-3.58-25.51-22.88-3.02-23.57l-6.49,5.83c4.75,6.18,15.97,2.32,21.32-1.82,26.72-20.72-1.52-86.26-20.59-106.23.12-5.42,27.73-3.79,34.11-5.09,26.09-5.32,25.66-36.57,12.88-54.67-22.86-32.39-120.78-35.68-157.22-32.07-8,.79-15.35,4.7-23.39,4.28,29.65-57.21,86.21-51.47,140.4-38.67,22.35,5.28,46.15,16.3,68.11,20.23,53.09,9.49,97.84,4.72,152.29,23.21,70.44,23.93,111.39,70.62,99.1,149.01ZM1147.39,1113.02c4.89,14.15,34.09,7.15,30.42-9.07s-37.88-12.53-30.42,9.07ZM1146.58,1022.87c-15.1,25.74,33.1,36.52,31.27,11-1.27-17.73-18.74-18.5-31.27-11ZM1232.2,1058.19c-6.21-6.41-25.74-4.59-28.12,4.23-4.42,16.39,25.07,21.7,31.06,7,.8-3.36-.55-8.75-2.94-11.22ZM1215.93,1129.11c1.01,12.52,20.21,17.83,29.83,6.9,16.96-19.26-31.76-30.95-29.83-6.9ZM1241.55,1039.96c3.78,11.02,31.85,11.58,28.76-4.95-2.64-14.16-35.07-13.44-28.76,4.95ZM1296.74,1102.04c13.38-15.93-19.21-28.04-28.85-12.65-2.19,15.47,19.15,24.2,28.85,12.65Z"/>
          <path class="cls-1" d="M597.34,1032.54c-7.56,2.55-14.5,13.14-19.49,19.91-43.22,58.54-78.19,151.85-94.65,222.65-10.36,44.58-18.58,92.01-9.89,137.48-17.92,9.57-36.65,3.13-53.63-5.22-.13-6.97-3.17-13.9-3.56-20.69-5.41-94.69,41.92-235.11,89.33-316.94,6.77-11.68,32.38-54.47,43.4-57.55,8.3-2.32,51.24,16.19,48.5,20.35Z"/>
          <path class="cls-6" d="M873.95,1083.35c-19.96-57.81,10.73-92.08,69.65-89.86,55.13,2.07,97.71,27.46,105.13,85.44,3.29,25.72.58,17.71-17.05,22.71-29.64,8.41-22.05,17.74-40.15,38.62-31.31-30.96-73.1-53.5-117.57-56.9Z"/>
          <path class="cls-1" d="M490.7,750.56l-60.78,30.43c-68.61-21.77-119.75-93.45-113.83-166.1l46.26-28.58c6.16,3.53,1.45,8.44,2.2,13.87,9.67,69.4,57.73,131.43,126.15,150.38Z"/>
          <path class="cls-4" d="M1072.32,988.42c-7.35,4.11-14.37,5.81-22.81,5.86-56.97.3-122.51-37.17-173.74,3.29-19.52,15.41-25.37,40.77-18.64,64.17-16.3-16.4-12.08-53.97-3.66-74.09,25.27-60.37,94.82-59.84,150.1-51.47,27.58,4.18,82.24,12.85,68.75,52.25ZM1058.46,977.64c13.04-12.92-37.32-30.6-40.33-14.68-2.07,10.93,30.97,23.95,40.33,14.68Z"/>
          <path class="cls-5" d="M703.59,770.74c7.03-6.06,22.8-1.52,23.51-16.33.32-6.69-3.72-10.33-1.88-18.87,1.6-7.43,17.06-25.38,24.39-27.35,6.63-1.79,14.93.19,21.46-3.9,6.08-3.8,3.6-11.84,9.08-11.21,5.09.59,10.13,11.38,13.29,16.08,14.92,22.15,26.63,46.93,40.31,69.84-19.38,3.32-33.83,22.43-33.4,41.68l-95.42-35.22-5.93-5.38c-.29-1.51,3.38-8.29,4.6-9.34Z"/>
          <path class="cls-2" d="M745.43,698.83c-19.33,6.93-25.86,23.11-32.1,40.8-.83,2.35,1.34,3.81-3.45,3.2l-103.41-94.25c6.99-10.28,38.25-30.02,49.13-27.22l89.83,77.46Z"/>
          <path class="cls-2" d="M256.72,358.85c-1.46-4.9,16.55-23.18,21.29-27.32,3.56-3.11,9.09-8.75,13.81-8.01l99.17,85.01c-7.69,6.68-16.61,11.98-24.11,18.9-5.12,4.72-10.03,16.31-15.92,14.95l-94.23-83.54Z"/>
          <path class="cls-7" d="M241.52,252.92c-36.67,10.67-62.73,43.33-73.76,79.11-29.14-21.72-53.46-37.8-29.27-76.23,28.81-45.77,70.11-40.62,103.04-2.88Z"/>
          <path class="cls-3" d="M24.85,1005.37l54.2,103.9,20.19,29.65c1.12,3.35-59.22,25.3-65.45,25.93-5.57.56-2.43-.35-2.42-2.25.09-13.14,3.96-30.29,4.15-44,.55-38.03-3.87-75.98-10.67-113.23Z"/>
          <path class="cls-2" d="M711.44,756.28c-10.05-.62-19.73,6.83-21.96,16.53l-4.54-.9-94.92-84.73c-7.97-11.57,2.57-24.97,10.98-32.73l110.45,101.82Z"/>
          <path class="cls-8" d="M228.24,388.42c-23.02-13.19-27.42-18.38-17.66-43.66,12.39-32.09,62.08-83.97,93.3-45.65-36.98,15.38-67.83,49.64-75.65,89.31Z"/>
          <path class="cls-2" d="M349.66,449.48l-13.67,27.39-92.77-80.01c-4.51-8.95,1.88-22.7,6.75-30.61l99.68,83.23Z"/>
          <polygon class="cls-2" points="300 316.17 326.89 314.14 421.93 392.87 402.58 402.27 397.62 401.66 300 316.17"/>
          <path class="cls-2" d="M776.26,679.81c-10.39,6.75-7.93,21.08-21.92,15.31l-90.47-76.63c49.48-14.26,75.24,41.48,112.39,61.33Z"/>
          <path class="cls-8" d="M266.78,267.85c3.72,4.86-15.51,11.29-19.06,13.7-15.23,10.33-28.1,25.29-37.96,40.7l-17.25,40.4c-22.39-14.88-4.72-48.02,7.89-64.34,13.23-17.12,44.62-42,66.38-30.46Z"/>
          <path d="M469.32,1039.33c-19.72,41.61-64.03,51.21-106.53,43.11-10.52-2.01-20.33-3.71-27.37-12.57,2.17-3.4,3.88-3.5,7.6-3.72,9.15-.54,25.57,5.1,36.34,5.52,19.33.75,36.6-2.01,54-10.46,13.77-6.69,21.79-19.08,35.96-21.89Z"/>
          <path d="M1058.46,977.64c-9.36,9.27-42.4-3.75-40.33-14.68,3.01-15.91,53.37,1.76,40.33,14.68Z"/>
        </g>
      </g>
    </g>
  </g>
</svg>