<?xml version="1.0" encoding="UTF-8"?>
<svg id="Calque_2" data-name="Calque 2" xmlns="http://www.w3.org/2000/svg" xmlns:xlink="http://www.w3.org/1999/xlink" viewBox="0 0 1048 1048">
  <defs>
    <style>
      .clss-1 {
        fill: #1f1c15;
      }

      .clss-2 {
        fill: #f8b521;
      }

      .clss-3 {
        fill: #f2a275;
      }

      .clss-4 {
        fill: #5e6b28;
      }

      .clss-5 {
        fill: #f5bd5a;
      }

      .clss-6 {
        fill: #ffe5a3;
      }

      .clss-7 {
        fill: #4c606d;
      }

      .clss-8 {
        clip-path: url(#clippath);
      }
    </style>
    <clipPath id="clippath">
      <circle class="clss-2" cx="524" cy="524" r="524"/>
    </clipPath>
  </defs>
  <g id="Calque_1-2" data-name="Calque 1">
    <g>
      <circle class="clss-2" cx="524" cy="524" r="524"/>
      <g class="clss-8">
        <g>
          <path d="M699.65-211.13c-49.14-36.42-90.77-89.24-139.18-125.33-49.75-37.08-82.51-24.84-114.56,25.89-22.92,36.3-38.1,72.04-67.32,105.4-7.36,8.39-43.75,46.13-52.78,44.45-3.11-2.98,2.5-8.04,4.6-10.51,16.11-19.03,34.51-34.75,50.15-55.65,27.14-36.31,62.24-119.45,99.68-137.41,32.18-15.42,66.55.62,91.92,21.07,23.92-70.48-28.16-165.39-110.08-123.76l-8.29,38.05c16.81-15.85,74.48-29.66,38.22,9.71-24.35,26.43-51.17,47.28-73.64,76.51-41.1,53.42-87.33,118.54-122.8,175.69-2.85,4.59-13.88,30.09-19.09,28.82l-2.77-14.46c-18.8-8.53-34.21-22.06-48.21-37.03l-17.8,6.42c6.66,7.01,14.28,13.12,22.13,18.73,4.41,3.17,32.62,18.75,31.96,21.17-4.93,3.3-14.24-.32-19.72-2.44-16.52-6.39-35.19-19.24-44.45-34.52l-56.21,16.82c4.09,44.08,58.2,18.64,82.96,39.69-1.95,4.94-34.06.57-39.59,2.15-2.54.72-2.31.45-3.14,2.97-1.96,6.01.41,36.53,1.04,44.8,2.32,30.78,15.41,80.97,14.38,107.68-.42,11.12-8.79,32.41-10.79,45.28-3.42,22.01-5.87,55.18,13.94,69.85,4.19-3.68,4.57-9.09,9.18-12.94,57.65-48.05,222.52-73.54,296.44-59.55,8.52,1.62,17.76,3.98,24.78,9.09,10.18-6.19,7.49-47.7,6.39-58.83-6.11-61.16-25.28-122.91-34.75-183.73-5.01-12.34-31.41-26.43-40.42-38.61-1.45-1.95-5.06-6.43-2.52-8.71,4.01-3.61,20.02,10.42,23.59,13.18,47.94,37.15,89.38,85.76,139.13,120.95-6.91-43.2,15.57-98.63,50.93-124.64,6.87-5.04,17.16-9.86,24.87-14.3.59-.34,4.74,2.28,1.77-1.93ZM520.86,94.53c-5.92-6.23-43.28-8.18-53.39-8.58-70.9-2.71-180.63,15.18-241.52,52-4.36,2.64-7.89,7.09-12.47,9.62.42,14.18,2.72,28.87,15.37,37.39,27.1-21.71,61.43-32.92,94.63-41.7,52.73-13.93,126.87-23.49,180.86-15.37,6.26.94,15.71,1.81,20.05,5.93,3.72.37.93-34.61-3.52-39.29ZM355.54,281.67c.39-17.76,3.78-35.36,5.06-53.04-3.69-7.94-46.16.62-55.71-2.73-2.65-.93-3.35-1.4-4.42-4.19,3.52-5.35,33.8-5.79,34.28-8.05-14.86-16.04-18.12-35.47-20.65-56.23-24.94,8.07-51.55,15.68-71.57,33.19-1.74,57.71-3.16,125.48,17.82,180.28,28.86,75.38,89.32,72.21,158.32,74.54l1.78-4.14-28.02-103.85c-35.12,1.14-37.52-28.27-36.9-55.78ZM326.9,154.4c-6.03,19.31,16.04,64.46,37.49,61.66,3.28-.43,1.29-2.98,1.13-4.54-1.2-12.85-5.2-25.4-5.55-38.4l3.97-3.49c2.53,3.86,4.6,7.77,6.11,12.15,9.95,28.78,14.68,77.5,22.17,109.79,18.75,80.98,40.97,163.28,69.74,241.3,2.7,4.4,27.36,1.69,32.95.81,25.11-3.95,59.9-14.84,73.18-37.71-25.7-115.42-47.6-232.62-51.43-350.91-61.6-15.77-128.39-3.53-189.76,9.33ZM922.08-435.48c-18.92-21.97-73.75-28.34-87.24,2.51-4.95,11.29-4.71,29.96-9.33,39.48-1.7,3.51-4.95,5.9-6.77,9.31-6.2,11.6-6.77,49.18-9.35,64.21-4.94,28.78-15.15,58.24-19.77,87.34-7.6,6.92-15.78,11.17-23.63,18.34-8.99,8.19-15.26,18.54-22.92,27.77-4.55-9.74-20.58-12.91-26.3-19.37-25.22-28.53-47.8-46.86-75.63-72.34-19.62-17.97-38.11-37.21-58.13-54.76,7.81-40.92,13.16-76.79-11.23-114.11-23.93-36.61-55.15-51.04-97.36-37.56-3.21,1.03-11.32,7.13-11.92,3.1l.98-54.08c67.96,11.92,116.91-49.83,115.89-113.34-.73-46.27-24.35-97.13-66.86-118.6-1.2-18.75-4.89-36.3-21.67-47.58,3.75-7.02,8.96-12.55,12.25-19.99,17.61-39.71-15.82-92.92-59.16-95.06,35.67-73.29-48.07-169.3-118.54-108.02-18.75-54.05-91.28-68.86-132.12-29.95-33.99-46.26-112.99-57.2-144.53-2.07-3.54,6.2-5.75,18.81-8.05,22.42,3.89.78,7.61,1.83,11.09,3.14,15.24-68.35,109.12-64.33,137.78-3,44.76-52.2,116.14-33.05,131.93,33.14,25.01-31.88,60.59-43.26,91.86-12.97,32.69,31.67,31.66,73.41,8.67,109.9,6.33,1.77,12.47-1,18.75-.93,42.17.4,73.75,64,40.39,93.55-3.17,2.81-19.35,10.79-17.43,13.8,21.43,0,34.9,15.84,36.45,36.46-.53,1.22-21.18-1.7-24.89-1.59-46.22,1.33-72.66,36.58-77.86,79.49-.7,5.72-.69,37.16-2.47,38.55-5.35,4.23-11.79-8.15-13.72-12.02-9.08-18.29-23.17-54.76-28.64-74.46-2.84-10.26-5.42-18.47-1.7-28.88,1.26-3.53,5.03-5.54,4.47-9.28-21.68,5.38-39.84,6.3-59.91-4.65-21.15-11.53-32.84-29.19-36.36-52.85-1.34-9,.3-17.89-.83-26.81-8.06,3.72-16.14,10.55-24.13,13.88-5.45,2.27-20.99,4.75-27.33,5.1-31.68,1.73-58-17.68-72.5-45-3.19.92-2.22,2.64-2.71,4.81-3.74,16.92-3.21,26.21-13.8,42.01-32.55,48.55-108.2,74.92-154.36,30.01-1.91,9.6,3.09,18.62,2.04,28.97-6.55,64.39-96.35,96.01-151.78,72.51-12.28-5.22-21.68-16.32-35.13-18.55,2.29,15.15,15.91,21.39,26.6,30.09-1.26,24.27-8.51,49.75-26.96,66.82-15.4,14.27-33.46,24.63-53.38,12.71-4.79-.11-5.89,4.79-4.16,8.27,6.42,12.99,30.22,12.01,40.81,4.81,6.36,36.32,16.92,70.53,35.38,102.83l-5.94,45.42c-42.37,27.18-100.18-33.53-70.83-72.33,1.87-2.47,11.84-8.62,8.51-11.26-4.45-3.51-16.65,3.4-22.26,4.58-85.99,18.22-118.83-117.86-28.74-133.91-2.78-4.26-8.11-4.89-12.01-8.1-58.52-47.79-30.69-142.98,48.14-137.17l23.77,5.74c-23.76-43.26-15.55-91.23,22.24-123.13,34.7-29.31,89.92-36.68,130.77-16.47.86-3.98,2.12-8.03,3.75-12.06-85.67-42.61-209.11,31.01-177.53,132.46-12.28,1.9-24.31-.35-36.36,4.26-65.81,25.2-77.88,102-28.73,149.91-78.13,41.38-33.79,165.96,51.89,151.22-14.32,44.02,26.49,91.23,71.98,83.5,4.15-.71,15.96-5.96,18.35-3.89l3.01,4.87c-7.45,5.63-23.9,6.97-22.5,19.26,1.73,14.96,21.6,23.35,32.63,11.9,12.13,24.52,28.47,45.35,52.7,58.59C-132.6-215.94.88-133.52,129.95-162.91c1.34,23.52,16.95,39.47,40.53,39.97-2.06,52.84,5.86,105.48,15.43,157.41-12.12,33.12-25.43,86.12-1.73,116.72,5.16,6.63,15.98,9.71,18.5,13.09,3.49,4.69,3.58,14.62,9.2,21.63,3.82,4.77,15.84,9.77,18.17,14.85,1.26,2.76-.97,51.7-.63,60.48,1.75,44.42,9.82,108.42,35.32,145.43,37.11,53.85,101.79,49.24,159.61,50.62,6.39,24.12,14.26,48.12,25.07,70.71-12.47,11.28-5.53,29.82-.2,43.42,6.77,17.3,16.28,41.49,38.02,41.14l15.66,35.76c-21.6,6.31-37.18,21.04-33.64,44.66,1.03,6.86,6.53,18.63,5.78,23.79-1.3,8.9-17.45,38.29-21.88,49.71-12.53,32.41-28.66,80.17-13.45,113.76,24.12,53.22,64.46,67.3,118.94,53.76,79.32-19.74,119.82-72.14,146.64-145.2,13.23-36.06,26.7-82.09,15.76-119.94l2.16-1.24c3.92,1.27,7.89,1.87,12.02,1.3,115.06-15.88,120.07-100.6,84.95-192.64-6.99-18.32-18.04-37.31-23.36-55.74-12.92-44.79-12.2-116.86-69.96-132.68-14.19-3.89-27.77,1.06-38.19-.45-3.44-.5-13.08-7.17-18.65-8.72-27.4-7.54-66.18,3.27-80.81,28.96-3.48,6.13-3.07,12.63-7.61,17.09-8.58-15.33-21.01-13.22-35.82-11.63-4.42-30.7-9.33-61.41-12.58-92.26-1.18-11.19-7.39-61.06-5.86-68.02.51-2.32,4.66-4.14,6.54-7.17,9.8-15.93.1-36.04,2.74-45.6.71-2.55,6.67-9.83,8.57-14.37,14.14-33.76-2.65-112.66-10-149.75-5.41-27.35-11.68-54.51-19.48-81.28,2.4-1.07,3.49.95,4.97,2.14,29.81,23.89,56.42,56.23,87.42,79.01,9.5,6.98,14.2,7.09,22.78,11.73,12.04,6.52,22.94,20.07,34.84,26.58,3.43,1.86,11.04,3.05,12.42,4.54,1.73,1.85,1.95,6.33,3.54,9.17,13.08,23.46,24.75,43.42,48.46,57.58l-17.05,69.53c11.38,41.49,9.28,96.53,22.1,136.94,1.62,5.12,3.96,12.13,10.29,7.84,13.13-18.56,28.25-35.82,41.19-54.49,14.09-20.32,24.74-42.99,40.8-61.9l15.3-65.16c2.5-3.46,15.18-2.95,21.26-5.57,17.58-7.58,27.38-22.86,27.82-41.66.14-5.55-3.42-20.77-3.14-22.45.19-1.1,9.99-12.85,12.2-18.36,4.49-11.18,1.24-23.95,3.74-31.11,1.8-5.12,9.93-12.66,13.1-21.19,5.85-15.72.88-25.51,2.82-37.55.53-3.34,4.12-7.29,5.24-10.93,8.14-26.53-1.22-51.07-15.91-73.58-3.3-5.07-12.26-12.02-12.73-16.87,6.1-27.21,12.1-54.54,17.2-81.93,1.42-7.63,1.37-17.19,2.68-24,.93-4.85,5.36-10.79,5.87-16.94.51-6.11-2.2-10.84-1.94-15.35.29-4.84,5.92-27.92,7.29-36.34,3.82-23.39,12.17-38.58-6.15-59.85ZM585.35,487.08c-2.82-3.24-6.97-1.6-9.34-6.12-.55-1.06-5.99-22.17-5.6-23.31.26-.77,4.07-.53,5.45-1.73,2.68-2.38,5.39-10.36,8.91-12.3l17.81,2.37c-8.7,23.86,4.25,44.38,26.36,54.05l19.22,86.14c-9.12-.29-17.89-2.27-27.04-2.79-6.15-.34-15.81,3.2-18.81-2.65-.69-1.37-4.54-11.25-4.55-11.88,0-.88,6.09-10.29,6.77-16.09,1.64-14.21-10.04-55.14-19.18-65.69ZM372.07,244.75l18.22,79.05c-35.75,5.08-20.29-58.05-18.22-79.05ZM695.98,692.98c-3.37-.85,1.33-18.38,1.52-22.44,2.37-49.61-40.68-79.47-86.65-76.51,2.68,16.17,20.82,13.47,32.03,18.68,10.41,4.84,18.48,13.59,22.47,24.45,1.68,4.54,1.19,17.51,2.05,18.77.59.86,10.41,2.87,13.96,6.47,16.25,16.45,14.53,50.36-12.97,52.63-43.55,3.59-96.89-16.13-141.95-9.74-11.24,1.6-23.87,7.53-34.25,5.62,19.07-19.33,49.17-17.72,74.18-16.22,28.81,1.73,58.76,8.33,87.61,9.61,12.12.54,26.76,3.39,28.17-13.18,2.8-32.88-34.93-24.1-54.78-25.59-32.36-2.43-68.14-9.28-100.39-8.06-16.36.63-36.29,2.61-44.62,19.27-6.51,13.02,2.49,23.77,3.87,35.65,1.19,10.33-25.45,64.86-30.49,80.74-17.88,56.37-17.36,111.75,58.47,108.51,81.61-3.48,134.29-61.81,159.6-133.68,3.2-9.16,7.24-33.92,12.12-39.99,5.2-6.46,2.03,14.83,1.7,16.54-7.44,41.22-32.44,96.75-65.71,123.14-43.35,34.38-98.97,56.35-153,36.98-1.84-.66-5.59-3.09-2.81,1.24,48.29,43.17,133.24,10.47,174.06-28.35,34.65-32.98,64.48-106.66,71.49-153.71,2.76-18.42,4.94-39.98-3.65-57.18l-2.6,15.96-9.45,10.41ZM615.63,617.54c-15.01-6.61-19.56-26.57-26.91-40-19.74,14.91-39.6,26.01-63.66,32.16-8.23,2.1-16.32,1.95-24.13,4.68l12.63,32.42,142.43,8.79c1.73-32.95-20.74-29.41-40.37-38.06ZM455.24,543.39c-.02,14.38,12.26,47.7,24.82,54.45,25.96,13.94,94.31-18.02,109.25-40.53,8.25-12.45-4.89-43.1-9.57-56.33-25.26,35.64-82.96,51.74-124.5,42.41ZM702.36,296.21c2.54,5.47,7.71,8.98,11.05,14,15.17,22.9,47.36,88.98,33.91,115.51-7.52,14.81-28.1,26.08-40.78,10.64-3.1-3.77-11.7-22.66-15.34-20.82-6.55,19.65-40.11,61.38-63.22,50.93-4.63-2.09-11.12-8.17-8.69-13.49l6.15,2.26c-8.34-14.68-17.81-1.59-14.57,10.27,10.44,38.27,50.79,28.08,73.55,7.5,8.35-7.55,12.36-17.3,21.6-23.2-5.11,31.88-35.44,51.55-66.4,53.73l19.16,87.36c15.94,7.24,31.08,20.04,39.89,35.36,7.76,13.54,3.65,24.46,22.41,30.96,33.73,11.69,68.86-44.44,73.97-72.79,9.55-53.12-18.96-93.53-27.96-141-.48-2.56-1.36-5.72.81-7.8,26.32,59.66,57.82,136.76,14.88,196.16l-20.98,23.35c56.29-19.36,72.88-62.9,64.03-118.01-6.85-42.59-25.72-70.59-38.07-109.13-5.1-15.95-6.14-35.59-10.49-52.26-10.53-40.42-26.58-79.95-74.91-79.52ZM587.78,335.09c13.34,30.69,13.07,66.3,3.52,97.93,20.2,4.67,23.72-3.63,39.71,13.08,9.5,9.93,5.13,14.55,21.03,3.34,35.84-25.27,37.73-62.43,19.77-99.7-19.21-39.85-52.7-48.17-84.03-14.65ZM644.05,287.91c-16.32,1.48-42.69,11.86-47.86,28.43,13.17-12.67,32.02-17.69,49.1-10.17,44.81,19.78,42.96,76.38,63.17,114.07,2.99,5.58,6.58,9.65,11.89,13.07,30.84-4.89,17.42-44.17,10.5-63.93-13.84-39.59-37.9-85.89-86.79-81.47ZM564.63,323.43c-2.34-.72-17.3.74-17.78,1.84l22.08,119.65c14.7-13.61,18.63-34.38,18.83-53.6.17-16.87-4.69-62.21-23.13-67.88ZM803.02,133.82c-5-2.91-6.6-9.11-10.12-12.86-3.88-4.17-21.2-8.11-26.69-6.57-6.31,1.78-7.31,5.74-11.86,7.87-10.07,4.72-12.59-7.32-19.08-9.86-1.13-.44-6.92-.5-7.81.23l-1.48,5.82,10.13,75.64c12.61-7.04,30.36-4.16,39.35,7.52,10.4-17.11,22.72-33.57,32.18-51.24,1.99-3.75,7.39-10.88,5.99-14.46-1.5-3.87-5.97.61-10.62-2.09ZM822.3,32.63l-19.06,86.88c1.07,11.31,9.72,4.65,17.84,9.17.13-31.6,28.05-68.24,1.22-96.05ZM782.18,5.13l-26.2,101.65c1.28,3.37,1.48,1.43,3.33,1.16,13.93-2.07,26.95-3.43,38.32,6.97l19.85-86.77c-1.97-8.19-26.03-21.99-35.3-23.01ZM776.37,3.55c-8.09-2.84-20.68-5.14-25.57,4.21l-22.85,92.68.99,3.32c7.23-1.92,15.54,1.88,18.67,8.77l28.76-108.98ZM814.31-223.94c-29.73,1.68-50.83,24.2-65.01,48.39-4.45,7.62-13.72,34.73-16.67,37.51-1,.94-2.03,1.65-3.25,2.2-4.35-7.66,1.21-16.28,1.6-24.26-34.27,29.26-56.5,74.74-46.7,120.22,5.9,27.32,24.36,59.4,49.59,72.67,7.84-26.38,1.9-46.96,38.68-42.46,35.37,4.34,72.26,38.35,74.31,74.82,22.14-3.56,35.09-16.89,33.32-39.81-2.35-30.04-23.5-55.36-46.88-72.4-10.5-7.64-23.53-11.71-31.96-21.17,1.83-6.83,31.29,8.36,34.83,10.51,10.33,6.25,28.18,20.51,35.15,30,5.2,7.09,8.82,16.76,13.88,24.13,22.04-40.27-4.34-78.41-37.2-102.52-3.51-2.59-24.13-13.14-23.36-16.39,6.63-3.15,14.48,1.09,20.54,3.91,25.16,11.75,47.3,36.43,56.64,62.63,28.04-51.36-19.9-92.27-59.75-117.43,3.79-9.11,34.81,11.71,39.66,15.6,14.16,11.42,28.41,27.65,34.17,45.08,17-54.38-50.45-114.16-101.59-111.26ZM702.62-199.25c-50.26,21.58-79.85,80.64-70.2,133.78l41.51,29.62c-11.44-52.02,12.82-105.65,55.44-136.42,3.33-2.4,8.24-1,8.43-6.33l-35.18-20.64ZM895.06-314.75l-22.44,94.74,1.34,3.49,13.02,9.54,18.86-90.65-10.78-17.12ZM877.14-323.95c-4.4-1.69-22.85-7.22-25.58-4.52l-22.33,91.79c1.18,4.38,10.58,3.57,15.51,5.31,7.22,2.54,13.88,6.6,21,9.35l21.56-95.6c-1.16-3.38-6.85-5.07-10.16-6.34ZM821.62-324.08l-20.5,89.59,22.96-.55,20.21-95.31c-6.96-.46-18.32.12-22.67,6.26ZM844.71-364.02c-20.18,2.4-22.08,7.15-22.76,27.04,29.05-8.74,62.6-.32,85.78,18.82,14.44-34.15-37.39-48.89-63.03-45.85ZM871.93-387.07c-15.23-2.63-43.42-2.71-45.43,17.36l32.85-2.75c13.67,1.13,28.11,4.41,40.3,10.89,2.85,1.51,13.86,12,15.78,7.84.02-18.48-27.5-30.57-43.5-33.34ZM878.4-443.04c-33.97-2.56-36.11,19.22-40.29,46.17,27.6-5.24,58.41.58,78.35,21.15,13.47-35.09,2.4-64.28-38.06-67.31ZM270.13-208.51c-9.16,4.68-21.88,8.14-30.64,12.69-1.25.66-2.97-1.1-.63,2.39,2.6,3.91,38.34,36.22,40.16,34.31l12.58-23.79,49.88-72.41c-22.32,17.58-45.93,33.84-71.35,46.82ZM449.83-414.54c-2.17,2.28-8.91,23.94-10.15,28.76l44.26-44.87c-9.81,5.04-26.48,8.06-34.12,16.11ZM313.11-379.14c-37.84,5.13-66.96,30.61-70.05,69.45-6.25,2.66-5.07-4.29-5.77-8.98l1.42-13.82c-7.17,7.06-15.54,10.75-23.21,17.82-13.35,12.35-23.28,31.64-23.48,49.88,44.23-13.09,84.01-42.4,109.15-81.13,2.21-3.41,16.95-31.14,11.94-33.22ZM231.14-411.94c.94,23.84-28.68,34.55-48.8,32.07,3.69,11.87-12.88,20.21-22.04,24.33-11.67,5.25-24.07,5.39-36.44,3.71-6.65,15.01-18.14,30.06-33.74,36.57-1.66.7-13.21.45-8.49,3.99,1.12.83,11.64,3.33,13.87,3.61,35.95,4.42,80.12-22.92,106.58-45.22,18.88-15.91,34.56-35.11,39.17-59.87l-10.1.82ZM224.18-459.42c-23.5.28-73.03,14.54-92.58,26.84-4.43,2.8-14.39,17.34-20.85,22.91-16.55,14.24-31.79,21.88-53.61,24.34-2.7.31-6.18-1.61-7.85-.96-10.39,4.07-46.62,43.19-53.57,54.31-17.11,27.45-12.74,71.55,21.01,36.58,6.09-6.33,8.44-13.86,13.62-20.42,15.7,35.46,41.39-3.29,40.85-25.45,4.08-4.41,7.38,11.58,8.78,13.07,5.53,5.97,19.45-6.39,23.33-10.57,7.56-8.08,9.67-17.55,14.03-27.16,3.53-2.05,9.47,3.06,13.86,3.83,12.65,2.2,31.8-5.89,40.17-15.13,1.82-7.23-4.97-11.62-6.56-17.83,18.42,6.58,48.32,7.88,55.91-14.67l-10.67-13.31c17.58-.49,44.11,1.85,54.71-15.5,10.45-17.12-29.52-21.02-40.57-20.87ZM501.48-758.92c-44.07-17.17-81.44,10.6-90.17,54.7-3.23,16.26,2.78,51.01-13.16,58.34-23.83,10.96-35.29-42.86-43.4-56.94-18.86,13.16-40.71,19.16-61.05,29.26,54.54,85.38-13.03,189.21-107.69,199.82-56,6.27-104.21-15.66-132.4-65.68l-22.52,11.82,10.93,35.64c9.2-3.79,26.7-5.56,32.01,5.03-16.42,3.9-30.49,3.42-44.67,14.51-22.81,17.87-15.68,58.91,9.96,70.64,21.99,10.05,47.47-2.57,64.07-17.3,5.04-4.47,18.69-23.48,20.1-24.18,1.91-1,4.98.23,7.55-.72,38.92-14.4,71.99-33.18,115.58-25.36,4.04.73,18.44,6.35,19.43,6.11,4.9-1.2,9.5-10.05,22.74-11.26,41.27-3.74,43.74,59.76,40.33,87.92-6.63,54.59-63.92,107.63-113.16,126.96-49.38,19.4-126.65,15.89-157.11-33.7-8.66,5.52-20.93,7.42-28.06-1.38-15.36,24.3-50.09,38.49-57.39-.05-6.54-34.56,37.34-74.66,61.76-93.93l-12.21-7.73c-11.93,10.42-21.5,23.63-34.73,32.75-35.58,24.5-74.35,27.51-114.71,15.37C-113.68-221.83-5.9-160.69,112.36-173.3c172.2-18.37,348.28-167.92,335.98-351.62-.32-4.8-4.53-22.54-3.49-24.48,2.87-5.37,25.96,1.38,33.01,1.63,109.97,3.78,115.02-175.52,23.62-211.14ZM105.46-699.03c-99.17,70.09-30.75,224.64,84.6,205.78,69.33-11.33,121.74-80.72,95.7-149.7-29.2-77.37-112.71-103.86-180.31-56.08ZM-144.26-561.3c-37.62,27.12-53.55,75.14-39.16,119.18,31.42,96.08,135.05,109.29,192.64,28.52C-.08-439.59-.14-464.95,22.06-484.28c-12.06-83.06-94.48-128.82-166.33-77.02ZM245.96-844.6c-29.71,12.88-63.11,12.3-90.63-5.31-5.69-3.64-9.7-8.54-15.43-11.57-25.42,61.73-98.3,98.69-161.35,71.37-8.94,72.87-93.44,111.52-159.43,91.66-5.09,33.39-17.07,63.51-46.14,83.28,5.75,31.3,15.89,61.12,28.26,90.42,8.29-10.87,13.65-23.58,22.71-34.02,55.11-63.39,144.78-61.09,192.46,8.3l3.38,1.07,22.97-15.19c-28.92-89.81,39.78-177.98,133.15-178.51,39-.21,72.68,13.7,98.99,43l71.81-23.4c-5.27-13.24-10.65-27.29-10.55-41.67-47.4.63-86.84-30.43-90.21-79.45Z"/>
          <path class="clss-1" d="M673.02-194.9c-35.36,26.01-57.85,81.44-50.94,124.64-49.75-35.2-91.18-83.8-139.12-120.94-3.57-2.77-19.58-16.8-23.6-13.19-2.54,2.29,1.07,6.77,2.52,8.72,9.01,12.17,35.42,26.27,40.42,38.62,9.48,60.8,28.64,122.57,34.74,183.72,1.11,11.13,3.81,52.64-6.38,58.83-7.02-5.1-16.26-7.48-24.78-9.09-73.93-13.99-238.78,11.5-296.44,59.55-4.63,3.86-4.98,9.27-9.19,12.95-19.82-14.67-17.36-47.84-13.94-69.85,2-12.86,10.36-34.16,10.79-45.28,1.04-26.71-12.08-76.91-14.4-107.69-.62-8.27-2.99-38.8-1.03-44.81.82-2.52.6-2.25,3.13-2.97,5.53-1.58,37.65,2.78,39.6-2.15-24.77-21.05-78.86,4.4-82.96-39.69l56.21-16.82c9.26,15.29,27.93,28.14,44.44,34.53,5.48,2.12,14.8,5.74,19.72,2.44.67-2.42-27.54-18.01-31.96-21.17-7.85-5.6-15.46-11.72-22.13-18.73l17.8-6.41c14.01,14.98,29.42,28.5,48.21,37.04l2.77,14.46c5.21,1.27,16.24-24.22,19.09-28.82,35.47-57.16,81.7-122.28,122.79-175.7,22.48-29.23,49.29-50.08,73.63-76.51,36.27-39.38-21.41-25.56-38.21-9.71l8.29-38.05c81.92-41.62,133.99,53.28,110.07,123.76-25.37-20.44-59.73-36.49-91.92-21.06-37.44,17.95-72.54,101.11-99.69,137.41-15.63,20.9-34.03,36.62-50.15,55.66-2.09,2.47-7.71,7.52-4.61,10.5,9.03,1.68,45.42-36.05,52.78-44.45,29.23-33.37,44.41-69.11,67.33-105.4,32.04-50.73,64.81-62.98,114.55-25.89,48.4,36.09,90.04,88.92,139.18,125.32,2.97,4.22-1.18,1.6-1.77,1.94-7.72,4.44-18,9.24-24.87,14.3ZM218.36,31.49c-1.16,9.06,25.46-6.94,27.4-7.74,12.44-5.11,25.44-9.42,38.24-13.5,29.91-9.53,73.09-14.44,99.62-25.6,3.34-1.41,6.21-1.82,6.58-6.24-58.16,6.92-123.5,18.28-171.84,53.08ZM474.95,51.32c-6.84-8.41-17.87-9.38-27.13-16.17-11.71-8.57-19.6-19.05-25.89-32.14-3.5-7.29-5.52-20.15-9.09-26.03-1.45-2.39-2.11-3.49-5.13-3.73-3.4,7.78-1.09,14.89,1.27,22.56,9.54,31.03,31.46,57.04,65.97,55.51Z"/>
          <path class="clss-7" d="M363.93,169.63l-3.97,3.5c.35,12.99,4.35,25.54,5.56,38.39.15,1.57,2.15,4.13-1.14,4.55-21.44,2.79-43.52-42.36-37.5-61.67,61.37-12.86,128.17-25.1,189.76-9.33,3.84,118.29,25.73,235.5,51.43,350.91-13.28,22.87-48.06,33.76-73.16,37.71-5.6.88-30.25,3.59-32.96-.8-28.76-78.03-50.99-160.32-69.75-241.31-7.47-32.28-12.21-81-22.16-109.78-1.52-4.4-3.59-8.3-6.12-12.16Z"/>
          <path class="clss-4" d="M695.97,692.98l9.46-10.41,2.59-15.96c8.58,17.22,6.41,38.78,3.66,57.19-7.02,47.04-36.84,120.73-71.51,153.7-40.8,38.81-125.77,71.52-174.05,28.35-2.78-4.34.98-1.89,2.81-1.24,54.04,19.38,109.64-2.59,152.99-36.98,33.27-26.39,58.28-81.92,65.73-123.13.31-1.7,3.49-23-1.71-16.53-4.88,6.07-8.91,30.83-12.13,39.98-25.3,71.88-77.98,130.21-159.59,133.69-75.84,3.23-76.36-52.15-58.48-108.52,5.03-15.88,31.69-70.41,30.49-80.74-1.38-11.87-10.37-22.62-3.86-35.64,8.32-16.67,28.26-18.65,44.62-19.27,32.24-1.23,68.02,5.64,100.39,8.07,19.85,1.49,57.58-7.31,54.78,25.58-1.41,16.58-16.05,13.72-28.17,13.19-28.87-1.28-58.81-7.88-87.61-9.62-25.02-1.51-55.12-3.11-74.18,16.22,10.39,1.91,23-4.03,34.25-5.63,45.05-6.38,98.39,13.35,141.95,9.75,27.5-2.27,29.21-36.17,12.96-52.62-3.55-3.6-13.37-5.61-13.96-6.48-.86-1.25-.38-14.23-2.05-18.77-3.99-10.85-12.05-19.6-22.47-24.45-11.2-5.21-29.34-2.5-32.03-18.67,45.97-2.96,89.02,26.9,86.66,76.51-.19,4.07-4.89,21.59-1.53,22.44ZM507.03,737.75c-5.2,5.56,1.06,19.32,9.08,19.5,23.3-2.29,4.47-34.01-9.08-19.5ZM669.88,698.07c12.25.79-.1-28.32-7.01-26.85-10.19,2.17,2.32,26.55,7.01,26.85ZM483.42,802.95c10.21,3.94,18.58-8.35,10.37-17.59-13.48-15.19-27.4,11.02-10.37,17.59ZM574.91,747.36c-7.94,7.04-.15,21.03,9.88,20.99,22.84-.1,7.28-36.2-9.88-20.99ZM531.04,786.2c-9.64,10,7.41,30.45,19.9,16.59,9.17-10.18-9.14-27.75-19.9-16.59ZM487.86,836.33c-8.74,8.99,7.31,30.58,19.9,16.58,9.14-10.15-9.05-27.74-19.9-16.58ZM588.21,794.17c-10.54,9.06,6.08,27.38,16.06,19.35,12.3-9.9-4.46-29.32-16.06-19.35ZM551.32,853.41c17.48,2.75,16.31-23.18,2.11-23.78-17.48-.73-14.44,21.83-2.11,23.78Z"/>
          <path class="clss-3" d="M871.33-27.68c-6.98-9.5-24.83-23.75-35.15-30.01-3.54-2.14-33-17.34-34.84-10.51,8.44,9.46,21.46,13.53,31.96,21.17,23.38,17.03,44.55,42.36,46.88,72.4,1.78,22.92-11.18,36.24-33.32,39.81-2.05-36.49-38.95-70.49-74.32-74.83-36.78-4.51-30.84,16.07-38.67,42.46-25.23-13.27-43.69-45.36-49.58-72.67-9.82-45.49,12.42-90.96,46.69-120.23-.4,7.98-5.96,16.6-1.61,24.25,1.23-.54,2.26-1.26,3.25-2.19,2.96-2.78,12.23-29.9,16.69-37.52,14.17-24.18,35.28-46.72,65.01-48.4,51.13-2.89,118.58,56.89,101.59,111.27-5.77-17.43-20.02-33.67-34.18-45.08-4.84-3.9-35.86-24.71-39.65-15.6,39.85,25.16,87.78,66.06,59.75,117.43-9.35-26.2-31.47-50.88-56.64-62.62-6.06-2.83-13.92-7.06-20.55-3.92-.76,3.25,19.85,13.8,23.37,16.39,32.86,24.12,59.24,62.26,37.2,102.53-5.07-7.38-8.67-17.05-13.88-24.13Z"/>
          <path class="clss-4" d="M761.79,655.13l20.98-23.36c42.94-59.4,11.44-136.49-14.87-196.16-2.18,2.08-1.3,5.24-.81,7.8,8.99,47.47,37.52,87.89,27.96,141-5.1,28.36-40.24,84.47-73.97,72.79-18.76-6.5-14.65-17.43-22.42-30.96-8.8-15.32-23.94-28.12-39.89-35.36l-19.16-87.36c30.95-2.18,61.29-21.86,66.41-53.73-9.24,5.89-13.25,15.65-21.59,23.2-22.77,20.58-63.11,30.77-73.56-7.49-3.24-11.86,6.22-24.95,14.57-10.27l-6.14-2.26c-2.43,5.32,4.06,11.4,8.69,13.5,23.11,10.45,56.67-31.28,63.21-50.93,3.64-1.83,12.25,17.05,15.35,20.83,12.68,15.43,33.26,4.18,40.78-10.65,13.45-26.52-18.73-92.61-33.91-115.51-3.33-5.03-8.5-8.53-11.05-14,48.34-.42,64.38,39.1,74.92,79.52,4.34,16.67,5.39,36.32,10.49,52.26,12.34,38.54,31.21,66.53,38.06,109.13,8.86,55.11-7.73,98.65-64.03,118.01ZM664.06,526.81c-7.66,8.21,7.23,25.12,16.69,16.99,9.48-8.14-4.99-29.52-16.69-16.99ZM723.56,494.64c-22.37-.98-12.6,34.76,3.68,24.59,11.31-7.06,5.69-18.92-3.68-24.59ZM730.19,563.81c2.07-6.37-5.99-18.68-12.67-17.16-12.42,2.82-5.59,24.24,6.26,23.05,2.5-.65,5.61-3.43,6.41-5.89ZM677.45,577.91c-7.95,5.06-4.73,19.66,5.89,22.2,18.73,4.49,9.37-31.93-5.89-22.2ZM745.55,563.61c-5.98,6.38,3.5,25.18,13.38,17.34,8.46-6.72-3.4-27.97-13.38-17.34ZM723.76,621.99c15.26,3.28,11.85-22.58-1.74-23.57-11.03,3.98-9.32,21.19,1.74,23.57Z"/>
          <path class="clss-7" d="M314.11,157.43c2.53,20.75,5.78,40.18,20.64,56.23-.46,2.26-30.76,2.69-34.28,8.05,1.07,2.79,1.77,3.27,4.42,4.19,9.55,3.34,52.02-5.21,55.71,2.73-1.27,17.68-4.66,35.29-5.06,53.04-.62,27.52,1.79,56.91,36.91,55.78l28.01,103.85-1.78,4.15c-69.01-2.33-129.46.85-158.33-74.55-20.98-54.8-19.56-122.57-17.81-180.28,20.03-17.51,46.63-25.13,71.57-33.19Z"/>
          <path class="clss-1" d="M524.39,133.83c-4.34-4.12-13.8-5-20.05-5.94-53.99-8.11-128.13,1.44-180.86,15.38-33.2,8.77-67.53,19.97-94.64,41.69-12.64-8.52-14.93-23.21-15.36-37.39,4.57-2.53,8.1-6.98,12.47-9.62,60.89-36.82,170.62-54.72,241.51-52,10.12.39,47.48,2.35,53.39,8.58,4.45,4.69,7.24,39.66,3.53,39.3Z"/>
          <path class="clss-6" d="M587.77,335.09c31.33-33.52,64.82-25.2,84.03,14.64,17.97,37.28,16.08,74.43-19.76,99.7-15.9,11.21-11.54,6.6-21.04-3.34-15.98-16.7-19.5-8.4-39.7-13.07,9.54-31.63,9.82-67.25-3.53-97.93Z"/>
          <path class="clss-7" d="M579.73,500.99c4.69,13.23,17.83,43.88,9.57,56.33-14.93,22.51-83.28,54.48-109.24,40.53-12.57-6.75-24.85-40.08-24.82-54.45,41.54,9.34,99.24-6.77,124.49-42.41Z"/>
          <path class="clss-6" d="M588.73,577.54c7.35,13.43,11.89,33.39,26.89,40,19.63,8.65,42.11,5.11,40.37,38.06l-142.43-8.79-12.63-32.42c7.81-2.74,15.9-2.59,24.12-4.69,24.07-6.15,43.92-17.25,63.67-32.17Z"/>
          <path class="clss-4" d="M720.33,433.3c-5.31-3.43-8.9-7.49-11.89-13.07-20.2-37.67-18.35-94.28-63.16-114.06-17.07-7.53-35.94-2.51-49.09,10.16,5.16-16.56,31.54-26.95,47.85-28.43,48.9-4.43,72.96,41.87,86.81,81.47,6.91,19.75,20.34,59.04-10.51,63.93ZM722.62,420.33c13.15,4.11,7.19-35.48-4.42-31.89-7.98,2.47-5.01,28.94,4.42,31.89Z"/>
          <path class="clss-5" d="M735.27,112.4c6.49,2.54,9.01,14.58,19.08,9.86,4.55-2.13,5.54-6.09,11.85-7.87,5.49-1.54,22.81,2.41,26.7,6.57,3.51,3.77,5.12,9.96,10.12,12.86,4.65,2.7,9.12-1.77,10.62,2.09,1.39,3.58-3.99,10.71-6,14.46-9.45,17.67-21.77,34.13-32.16,51.24-9.01-11.68-26.75-14.56-39.36-7.52l-10.14-75.64,1.49-5.82c.89-.72,6.68-.67,7.8-.23Z"/>
          <path class="clss-2" d="M797.64,114.91c-11.38-10.39-24.4-9.03-38.32-6.97-1.85.27-2.05,2.22-3.33-1.16l26.2-101.65c9.27,1.02,33.33,14.83,35.29,23.02l-19.84,86.76Z"/>
          <path class="clss-7" d="M564.63,323.43c18.44,5.67,23.3,51,23.12,67.88-.2,19.23-4.14,40-18.84,53.6l-22.06-119.65c.47-1.08,15.44-2.56,17.78-1.84Z"/>
          <path class="clss-2" d="M747.61,112.53c-3.12-6.88-11.45-10.69-18.67-8.76l-1-3.33,22.87-92.68c4.88-9.35,17.46-7.06,25.56-4.2l-28.75,108.97Z"/>
          <path class="clss-2" d="M821.07,128.68c-8.12-4.52-16.76,2.14-17.84-9.16l19.06-86.89c26.82,27.8-1.1,64.45-1.22,96.05Z"/>
          <path d="M218.36,31.49C266.69-3.31,332.03-14.67,390.19-21.59c-.37,4.41-3.23,4.83-6.58,6.24-26.52,11.16-69.7,16.08-99.62,25.6-12.8,4.08-25.81,8.39-38.24,13.5-1.94.8-28.57,16.8-27.4,7.74Z"/>
          <path d="M474.95,51.32c-34.51,1.53-56.43-24.48-65.97-55.51-2.36-7.68-4.68-14.78-1.27-22.56,3.02.24,3.68,1.35,5.13,3.73,3.57,5.88,5.59,18.75,9.09,26.03,6.29,13.08,14.18,23.56,25.89,32.14,9.27,6.79,20.3,7.75,27.13,16.17Z"/>
          <path d="M531.04,786.2c10.77-11.16,29.08,6.41,19.9,16.59-12.49,13.86-29.55-6.59-19.9-16.59Z"/>
          <path d="M574.91,747.36c17.16-15.21,32.72,20.89,9.88,20.99-10.03.04-17.82-13.95-9.88-20.99Z"/>
          <path d="M487.86,836.33c10.85-11.16,29.04,6.43,19.9,16.58-12.59,13.99-28.64-7.59-19.9-16.58Z"/>
          <path d="M588.21,794.17c11.6-9.97,28.36,9.45,16.06,19.35-9.98,8.03-26.6-10.29-16.06-19.35Z"/>
          <path d="M551.32,853.41c-12.33-1.94-15.36-24.51,2.11-23.78,14.2.6,15.36,26.53-2.11,23.78Z"/>
          <path d="M507.03,737.75c13.55-14.51,32.38,17.21,9.08,19.5-8.02-.19-14.28-13.94-9.08-19.5Z"/>
          <path d="M483.42,802.95c-17.03-6.58-3.11-32.78,10.37-17.59,8.21,9.24-.16,21.54-10.37,17.59Z"/>
          <path d="M669.88,698.07c-4.69-.3-17.2-24.69-7.01-26.85,6.91-1.47,19.26,27.64,7.01,26.85Z"/>
          <path d="M723.56,494.64c9.38,5.68,14.99,17.53,3.68,24.59-16.28,10.17-26.05-25.57-3.68-24.59Z"/>
          <path d="M677.45,577.91c15.27-9.72,24.62,26.69,5.89,22.2-10.62-2.54-13.84-17.14-5.89-22.2Z"/>
          <path d="M664.06,526.81c11.7-12.53,26.17,8.85,16.69,16.99-9.46,8.12-24.35-8.79-16.69-16.99Z"/>
          <path d="M723.76,621.99c-11.06-2.38-12.76-19.59-1.74-23.57,13.59.99,17,26.85,1.74,23.57Z"/>
          <path d="M730.19,563.81c-.8,2.46-3.91,5.24-6.41,5.89-11.85,1.19-18.68-20.23-6.26-23.05,6.68-1.52,14.74,10.79,12.67,17.16Z"/>
          <path d="M745.55,563.61c9.98-10.63,21.84,10.61,13.38,17.34-9.88,7.85-19.36-10.96-13.38-17.34Z"/>
          <path d="M722.62,420.33c-9.43-2.95-12.39-29.43-4.42-31.89,11.61-3.59,17.56,36.01,4.42,31.89Z"/>
        </g>
      </g>
    </g>
  </g>
</svg>