<?xml version="1.0" encoding="UTF-8"?>
<svg id="Calque_2" data-name="Calque 2" xmlns="http://www.w3.org/2000/svg" viewBox="0 0 1016.96 956.83">
  <defs>
    <style>
      .cls-1 {
        fill: #201c14;
      }

      .cls-2 {
        fill: #fcefd9;
      }
    </style>
  </defs>
  <g id="Calque_3" data-name="Calque 3">
    <g>
      <path class="cls-1" d="M870.15,158.91c82.5-8.71,123.94,56.69,139.18,128.99,28.96,137.42-21.94,322.03-195.47,297.15-1.88,73.48,25.52,179.48,12.22,249.56-4.05,21.34-61.96,55.24-82.05,65.91-148.04,78.61-334.55,79.29-470.06-25.73,2.87-26.94,17.17-47.82,16.4-77.03-.66-25.25-14.55-46.83-19.19-70.9C140.96,763.96,17.63,685.87,1.82,549.43-15.57,399.35,93.18,219.62,258.45,226.89,285.41,83.66,438.83-33.27,585.79,8.62c63.51,18.1,39.85,22.1,113.96,21.16,77.55-.98,159.89,47.41,170.4,129.13ZM585.76,67.28C399.76,26.22,240,238.3,283.63,412.4l-22.77-54.2-7.97-75.26c-200.83-18.11-302.1,387.17-64.55,400.87,29.57,1.71,120.86-25.47,135.79-49.48,7.84-12.61-19.45-40.18-6.54-55.5,61.16,120.03,236.57,95.1,317.45,9.26,40.89-43.4,112.12-209.2,170.1-212.76,18.38-1.13,29.72,13.48,27.18,30.93-44.24-28.28-121.86,112.73-110.88,123.27,46.5.75,106.89-20.96,111.01-73.91,10.61-1.33,6.92,21.71,6.13,27.72-2.5,19.01-12.22,33.56-12.34,52.36,164.64,29.97,197.7-326.7,41.05-339.44l-34.84,49.71c34.88-154.38-145.51-206.7-249.6-116.98l-83.32,104.62,23.48-78.15,62.75-88.19ZM745.23,567.39c-61.89-17.15-65.5,41.09-99.97,77.16-73.33,76.73-194.07,92.68-283.41,33.94l-40.88,24.2,30.6,104.34,132.77-24.91,156.89,18.79-185.14,21.3c-27.54,9.54-63.86,15.68-89.8,27.37-7.24,3.26-11.14-2.88-8.58,12.8,86.13,59.07,187.24,52.12,283.29,21.44,22.08-7.05,100.87-38.31,114.64-51.82,7.89-7.74,7.85-11.38,9.22-21.61,3.87-28.91-2.21-231.84-19.63-243Z"/>
      <path class="cls-2" d="M585.76,67.28l-62.75,88.19-23.48,78.15,83.32-104.62c104.09-89.71,284.48-37.39,249.6,116.98l34.84-49.71c156.65,12.73,123.59,369.41-41.05,339.44.12-18.8,9.85-33.35,12.34-52.36.79-6.01,4.48-29.05-6.13-27.72-4.12,52.95-64.51,74.66-111.01,73.91-10.98-10.54,66.65-151.56,110.88-123.27,2.54-17.45-8.79-32.06-27.18-30.93-57.98,3.56-129.2,169.35-170.1,212.76-80.88,85.85-256.29,110.77-317.45-9.26-12.91,15.32,14.38,42.89,6.54,55.5-14.93,24.01-106.22,51.19-135.79,49.48-237.55-13.7-136.28-418.98,64.55-400.87l7.97,75.26,22.77,54.2C240,238.3,399.76,26.22,585.76,67.28Z"/>
      <path class="cls-2" d="M745.23,567.39c17.42,11.16,23.5,214.09,19.63,243-1.37,10.23-1.32,13.87-9.22,21.61-13.77,13.5-92.56,44.76-114.64,51.82-96.05,30.68-197.17,37.63-283.29-21.44-2.56-15.69,1.34-9.54,8.58-12.8,25.93-11.69,62.25-17.83,89.8-27.37l185.14-21.3-156.89-18.79-132.77,24.91-30.6-104.34,40.88-24.2c89.34,58.75,210.08,42.79,283.41-33.94,34.47-36.07,38.08-94.31,99.97-77.16Z"/>
    </g>
  </g>
</svg>