<?xml version="1.0" encoding="UTF-8"?>
<svg id="Calque_2" data-name="Calque 2" xmlns="http://www.w3.org/2000/svg" viewBox="0 0 955.28 1814.28">
  <defs>
    <style>
      .cls-1 {
        fill: #1f1c15;
      }

      .cls-2 {
        fill: #f9eace;
      }

      .cls-3 {
        fill: #f8b521;
      }

      .cls-4 {
        fill: #391a12;
      }

      .cls-5 {
        fill: #f2a275;
      }

      .cls-6 {
        fill: #d14c4c;
      }

      .cls-7 {
        fill: #5e6b28;
      }

      .cls-8 {
        fill: #f5bd5a;
      }

      .cls-9 {
        fill: #ffe5a3;
      }

      .cls-10 {
        fill: #e46460;
      }

      .cls-11 {
        fill: #aba397;
      }

      .cls-12 {
        fill: #4c606d;
      }
    </style>
  </defs>
  <g id="Calque_1-2" data-name="Calque 1">
    <g>
      <path d="M683.77,987.83c-21.71-49.79-30.38-108.88-51.67-158.08-21.89-50.56-52.53-55.64-99.65-30.77-33.71,17.8-61.22,38.59-98.48,51.34-9.38,3.21-54.1,16.15-60.3,10.86-1.08-3.67,5.48-5.08,8.2-6.05,20.83-7.52,41.95-11.48,63.24-20.65,36.96-15.94,100.78-64.41,137.55-61.67,31.6,2.37,50.95,29.93,61.44,56.9,49.61-43.67,51.52-139.78-29.96-143.99l-23.22,25.62c19.96-4.76,70.46,10.13,25.13,24.39-30.44,9.57-60.32,13.75-90.55,26.31-55.28,22.94-119.69,52.6-172.3,80.9-4.23,2.28-24,17.02-27.45,13.74l4.27-12.36c-10.7-14.89-16.57-32.12-20.72-49.85l-16.54-2.94c2.02,8.35,5.18,16.42,8.75,24.21,1.99,4.39,16.81,28.87,15.24,30.44-5.26.36-10.82-6.55-14.1-10.61-9.89-12.23-18.58-30.38-18.94-46.25l-50.71-11.93c-16.36,35.75,36.56,40.11,46.29,67.27-3.69,2.94-26.47-14.64-31.43-15.87-2.28-.57-1.98-.67-3.73.9-4.17,3.76-15.85,28.3-19.03,34.95-11.84,24.72-23.97,69.16-36.59,89.26-5.24,8.38-21.11,21.06-28.35,30.08-12.38,15.43-28.95,39.88-20.18,59.94,4.85-.97,7.54-4.97,12.79-5.9,65.65-11.48,203.85,41.88,254.56,85.35,5.84,5.02,11.91,10.92,15.06,17.96,10.58-.25,26.88-33.41,30.95-42.46,22.37-49.79,34.94-105.8,54.57-156.82,1.6-11.72-12.48-34.25-14.02-47.61-.25-2.14-1.05-7.19,1.92-7.82,4.69-1,10.8,16.88,12.33,20.59,20.47,49.82,30.85,105.58,53.58,154.69,13.8-36.32,55.64-69.04,94.37-73.41,7.52-.84,17.57,0,25.47,0,.6,0,2.64,3.85,2.22-.7ZM410.86,1144.01c-1.8-7.42-29.69-25.45-37.31-30.23-53.38-33.47-145.78-68.26-208.94-66.87-4.52.1-9.21,1.96-13.86,1.89-5.95,11.1-10.68,23.43-4.72,35.58,30.47-4.72,61.86,1.84,91.3,9.78,46.76,12.61,108.07,38.07,146.03,68.21,4.41,3.49,11.3,8.35,12.81,13.44,2.7,1.93,16.03-26.23,14.68-31.81ZM200.76,1214.9c8.17-13.5,18.56-25.54,27.37-38.59.67-7.75-35.81-19.96-41.68-26.76-1.63-1.89-1.96-2.56-1.54-5.18,5.08-2.56,28.59,10.5,29.95,8.97-4.34-18.92,1.75-35.33,8.99-52.42-22.77-4.82-46.62-10.74-69.79-6.13-26.88,43.66-57.97,95.2-66.07,146.68-11.15,70.81,36.8,95.12,88.89,127.45l3.21-2.4,24.39-92.35c-27.54-14.67-16.38-38.37-3.72-59.27ZM235.04,1104.24c-13.18,12.2-16.18,56.72,1.57,64.06,2.71,1.12,2.31-1.72,2.88-3,4.76-10.43,7.24-21.86,12.72-32.02l4.6-.93c.24,4.09.1,8.02-.67,12.06-5.08,26.56-23,66.16-31.52,94.33-21.41,70.64-40.72,143.83-53.11,216.63.13,4.58,20.32,13.41,25.01,15.21,21.08,8.08,52.68,15.09,73.02,3.36,31.3-100.23,66.31-200.15,115.72-292.9-40.44-39.4-97.28-59.54-150.21-76.8ZM954.31,913.56c-4.84-25.29-44.23-54.46-68.27-36.68-8.81,6.5-16.88,20.98-24.66,26.26-2.86,1.95-6.43,2.35-9.33,4.17-9.9,6.19-26.98,34.86-35.61,45.29-16.54,19.97-37.44,38.13-53.88,58.49-8.91,1.96-17.09,1.62-26.31,3.66-10.55,2.32-19.96,7.52-29.93,11.24.81-9.51-10.13-19.04-11.67-26.55-6.79-33.13-16.06-57.23-26.2-89.16-7.15-22.52-12.87-45.52-20.51-67.88,24.12-28.05,44.12-53.29,41.86-92.81-2.22-38.77-19.87-63.7-58.33-72-2.92-.63-11.87.48-10.55-2.89l24.69-41.2c47.04,39.25,112.05,13.38,139.38-35.96,19.91-35.94,24.24-85.55,1.02-120.89,7.37-14.97,12.3-30.11,4.37-46.22,5.99-3.75,12.45-5.69,18.28-9.96,31.13-22.77,28.95-78.54-3.48-99.36,59.9-40.63,37.92-151.6-43.45-135.62,9.48-49.91-39.79-93.41-88.45-81.53-5.69-50.65-61.67-94.04-110.34-65.56-5.47,3.21-12.75,11.94-16.12,13.69,2.65,2.32,5.05,4.78,7.15,7.33,41.98-45.88,112.47-1.23,107.39,58.67,57.56-20.38,104.04,25.96,86.9,83.9,33.37-13.47,65.79-6.49,76.45,30.67,11.15,38.85-8.12,70.52-41.97,88.44,4.09,4.17,10.04,4.75,14.85,7.58,32.29,18.97,28.45,81.91-10.31,89.89-3.69.76-19.67-.25-19.52,2.91,16.5,9.48,19.85,27.64,11.93,44.2-.94.7-15.55-10.68-18.46-12.24-36.17-19.43-72.12-4-95.12,26.73-3.07,4.09-16.97,28.3-18.97,28.59-5.99.88-5.47-11.49-5.24-15.33,1.11-18.1,6.4-52.41,10.91-70,2.35-9.15,4-16.62,11.48-22.98,2.53-2.16,6.32-2.04,7.55-5.17-19.07-5.45-33.46-12.78-44.06-30.1-11.18-18.23-12.36-37.01-4.6-56.78,2.95-7.52,8.15-13.63,11.22-21.01-7.85-.7-17.09.97-24.72,0-5.2-.66-18.26-5.63-23.3-8.17-25.15-12.69-36.83-39.28-35.9-66.73-2.86-.7-2.88,1.05-4.21,2.5-10.37,11.37-14.07,18.76-29.22,26.23-46.55,22.97-116.46,9.78-132.11-45.22-5.72,6.55-5.86,15.7-11.25,23.21-33.54,46.67-116.67,31.27-148.94-11.36-7.15-9.45-9.47-22.16-18.83-29.83-4.94,12.67,2.79,23.51,7.16,34.94-11.72,18.13-28.57,34.53-50.33,39.51-18.17,4.17-36.66,4.15-46.71-13.84-3.64-2.2-6.65,1.08-6.86,4.52-.81,12.84,17.95,22.62,29.29,21.77-11.18,30.77-18.19,61.79-18.28,94.82l-24.68,32.33c-44.65,2.17-62.28-70.15-22.52-87.03,2.53-1.08,12.93-1.39,11.54-4.9-1.87-4.67-14.32-4.75-19.16-6.32-74.27-24.03-39.31-143.32,37.14-115.81-.25-4.51-4.08-7.36-5.66-11.55-23.9-62.69,39.66-123.65,97.77-84.29l15.76,14.94c.85-43.82,28.41-77.11,71.61-84.95,39.69-7.21,85.46,11.57,107.96,45.2,2.43-2.68,5.18-5.24,8.23-7.63-47.09-70.72-174.71-68.68-195.29,23.4-10.29-3.97-18.56-11.03-29.87-12.81-61.82-9.72-105.1,44.05-88.47,102.69-78.46-2.73-99.47,112.8-26.98,139.38-30.5,27.55-19.99,81.95,18.46,96.14,3.51,1.29,14.92,2.47,15.85,5.12l.16,5.08c-8.23,1.03-21.48-5.21-25.84,4.87-5.29,12.29,6.29,27.54,19.85,23.6-1.51,24.24,1.84,47.51,14.64,68.42-55.45,110.16,10.83,232.69,123.2,267.19-9.38,18.7-4.42,37.89,13.51,48.71-24.98,39.76-42.18,83.8-57.79,128.01-23.99,20.14-57.7,55.04-52.99,89.08,1.03,7.39,8,14.55,8.45,18.26.61,5.15-3.72,12.84-2.49,20.72.82,5.36,7.87,14.53,7.42,19.48-.25,2.68-23.63,39.37-27.25,46.28-18.31,34.97-40.42,87.81-37.17,127.59,4.73,57.88,56.57,82.96,100.47,109.61-5.75,21.39-10.32,43.36-12,65.53-14.59,3.16-17.45,20.51-19.37,33.34-2.44,16.32-5.83,39.15,11.06,48.5l-3.78,34.46c-19.42-4.7-37.93-.25-45.67,19.49-2.25,5.74-3.22,17.23-6.08,20.87-4.94,6.28-30.38,21.75-38.85,28.59-23.99,19.4-57.55,49.04-60.71,81.62-4.99,51.64,19.84,80.33,67.76,94.03,69.8,19.91,124.17-2.5,177.15-46.88,26.14-21.9,56.89-51.37,65.22-85.35h2.22c2.46,2.71,5.24,4.93,8.67,6.32,95.6,38.7,136.95-24.3,150.66-110.7,2.73-17.2,2.62-36.71,6.68-53.25,9.87-40.2,42.32-95.36,4.87-133.1-9.2-9.27-21.84-11.48-29.2-17.24-2.43-1.9-6.89-11.31-10.5-14.97-17.75-17.93-52.39-26.77-75.03-13.47-5.39,3.18-7.96,8.36-13.42,9.78.18-15.6-10.32-19.48-22.43-24.81,10.19-25.59,20-51.4,31.15-76.59,4.05-9.14,21.33-50.28,25.59-54.95,1.42-1.56,5.42-1.12,8.21-2.62,14.59-7.93,16.03-27.7,22.29-33.89,1.68-1.65,9.48-4.61,12.96-7.27,25.83-19.73,47.82-87.9,58.58-119.71,7.94-23.45,15.13-47.13,20.98-71.2,2.32.24,2.26,2.28,2.88,3.85,12.38,31.58,18.55,68.26,32.33,99.51,4.23,9.57,7.79,11.75,12.35,19.12,6.38,10.35,8.78,25.6,15.06,35.88,1.81,2.95,7.15,7.24,7.55,8.99.51,2.19-1.3,5.74-1.33,8.63-.31,23.85-.16,44.38,11.82,65.77l-43.9,45.98c-9.6,36.98-35.58,78.42-43.6,115.2-1.02,4.66-2.32,11.09,4.45,10.59,18.32-8.48,37.61-15.07,55.82-23.72,19.84-9.41,38.07-22.14,58.81-29.59l40.62-43.39c3.46-1.56,12.99,4.45,18.83,5.12,16.88,1.95,31.19-5.48,39.85-19.76,2.56-4.21,6.56-17.5,7.52-18.67.63-.76,13.38-5.47,17.51-8.73,8.4-6.62,11.55-17.89,16.65-22.29,3.66-3.15,13.24-5.35,19.46-10.52,11.46-9.51,11.97-19.25,18.79-27.66,1.89-2.34,6.4-3.79,8.87-6.1,18.01-16.82,21.66-39.85,20.32-63.69-.3-5.36-4.12-14.68-2.34-18.62,16.74-18.25,33.46-36.63,49.5-55.46,4.46-5.24,8.66-12.63,12.69-17.29,2.86-3.33,8.9-5.93,12.02-10.44,3.1-4.48,3.1-9.32,5.3-12.67,2.37-3.6,16.91-18.88,21.69-24.75,13.29-16.32,26.44-24.32,21.75-48.8ZM286.76,1474.74c-.73-3.75-4.66-4.31-4.48-8.84.04-1.06,5.2-19.72,6.01-20.42.54-.48,3.37,1.39,4.96,1.08,3.12-.64,8.73-5.59,12.3-5.53l12.66,9.71c-17.26,14.52-16.38,36.05-3.63,53.28l-23.33,74.82c-6.89-4.25-12.76-9.66-19.58-14.11-4.58-2.98-13.59-4.54-13.3-10.37.07-1.36,1.48-10.67,1.75-11.16.39-.67,9.24-5.23,12.33-9.39,7.55-10.22,16.68-46.89,14.31-59.06ZM229.83,1193.79l-20.96,68.92c-29.77-11.91,10.07-53.67,20.96-68.92ZM280.8,1682.21c-2.22-2.14,9.15-13.56,11.1-16.6,23.78-37.14,3.85-79.18-32.84-97.25-5.09,13.63,10.07,19.58,16.39,28.56,5.87,8.33,8.21,18.64,6.47,28.77-.72,4.24-6.83,14.01-6.73,15.36.07.93,6.74,6.82,7.88,11.16,5.23,19.85-11.1,45.2-33.28,34.77-35.12-16.51-67.45-55.3-104.97-70.33-9.36-3.75-21.71-4.76-28.86-10.83,23.24-6.44,45.7,8.12,64.29,20.35,21.41,14.08,41.55,32.42,63.19,46.18,9.09,5.78,19.1,14.46,27.52,2.32,16.71-24.08-16.23-34.01-30.85-43.94-23.84-16.2-48.35-37.31-73.71-50.64-12.87-6.76-29.1-14.05-42.88-4.91-10.77,7.15-8.6,19.4-12.79,29.16-3.66,8.48-48.3,38.67-59.21,48.66-38.71,35.48-62.82,78.34-3.01,109.41,64.36,33.44,130.73,11.85,182.03-32.27,6.52-5.63,20.59-22.91,27.03-25.42,6.86-2.67-5,12.32-6.01,13.48-23.97,28.44-67.79,60.12-105.08,65.71-48.59,7.28-101.13-.42-134.15-39.25-1.12-1.32-2.94-4.85-2.71-.28,18.07,54.61,97.94,67.03,146.54,55.21,41.28-10.05,96.84-53.58,123.06-86.69,10.28-12.96,21.5-28.59,22.5-45.64l-9.06,11.13-11.88,3.84ZM252.33,1588.57c-8.63-11.73-3.3-29.11-3.01-42.7-21.8,2.74-42,2.5-63.24-3.42-7.27-2.02-13.42-5.72-20.65-7.07l-4.63,30.55,105.76,69.8c15.91-24.6-2.95-31.82-14.23-47.16ZM161.67,1460.5c-6.38,11.06-11.67,42.14-4.99,52.9,13.81,22.22,80.57,27.87,102.04,17.15,11.87-5.93,15.31-35.34,17.56-47.6-35.22,16.26-86.76,3.12-114.61-22.46ZM461.32,1379.59c-.46,5.33,1.96,10.32,2.31,15.67,1.54,24.35-2.92,89.46-25.02,103.93-12.35,8.08-33.17,7.64-36.11-9.86-.72-4.27,1.02-22.62-2.59-22.82-13.74,12.23-58.04,29.5-71.21,11.22-2.64-3.66-4.94-11.21-.72-14.23l3.73,4.46c.07-15-13-9.11-15.76,1.45-8.9,34.08,26.67,44.09,53.31,38.32,9.77-2.11,17.17-7.85,26.89-8.3-18.04,22.28-50.1,24-74.9,11.97l-23.91,75.73c9.06,12.63,15.06,29.19,15.06,44.87-.01,13.86-8.02,20.45,3.55,33.75,20.8,23.93,72.68-3.73,89.16-23.3,30.86-36.66,26.8-80.39,40.89-120.92.76-2.19,1.48-5,4.08-5.65-6.14,57.58-16.02,130.87-75.36,157.6l-26.49,8.69c51.9,10.01,83.95-16.17,101.52-62.51,13.57-35.82,11.45-65.73,19-100.86,3.13-14.53,11.03-30.11,15.06-44.87,9.78-35.78,14.92-73.31-22.47-94.37ZM355.9,1358.81c-3.31,29.53-19.28,56.83-40.63,76.95,13.48,12.54,19.87,7.7,24.78,27.64,2.92,11.85-2.49,13.47,14.71,11.88,38.77-3.6,56.68-31.36,59.34-68,2.85-39.18-19.25-60.41-58.21-48.47ZM420.1,1347.39c-13.21-6.08-38.11-9.77-49.43.7,15.75-3.93,32.48.55,42.29,13.9,25.74,35.06-.73,77.82-1.86,115.77-.16,5.62.79,10.34,3.37,15.33,25.9,9.89,32.96-26.29,36.38-44.57,6.86-36.6,8.84-82.9-30.76-101.13ZM343.24,1339.58c-1.48-1.59-13.65-7.09-14.5-6.46l-35.96,101.88c17.33-3.97,29.56-18.22,38.22-32.93,7.6-12.91,23.93-49.97,12.24-62.49ZM610.68,1299.13c-2.56-4.45-1.05-9.93-2.1-14.38-1.14-4.93-12.73-15.63-17.63-16.87-5.65-1.42-8.17,1.18-12.61.81-9.84-.82-6.46-11.21-10.32-16.03-.67-.84-5.11-3.45-6.11-3.28l-3.72,3.82-25.68,62.72c12.82.16,25.22,10.23,26.97,23.21,15.58-8.57,32.35-15.79,47.45-25.2,3.19-2.01,10.5-5.11,11.01-8.48.55-3.64-4.87-2.17-7.25-6.31ZM670.3,1229.76l-53.13,58.45c-4.18,9.18,5.42,7.88,9.68,14.95,14.08-24.27,51.79-40.12,43.45-73.4ZM651.59,1190.84l-65.16,66.66c-.51,3.16.51,1.75,2.05,2.37,11.64,4.57,22.26,9.29,26.41,22.32l53.68-58.01c2.11-7.18-10.31-28.45-16.99-33.34ZM647.82,1187.05c-4.97-5.77-13.65-13.11-21.54-8.08l-58.61,61.23-.7,3c6.41,1.72,11.13,8.33,10.49,15.01l70.37-71.17ZM777.71,1028.72c-23.63-11.87-49.85-3.87-71.47,8.48-6.8,3.9-25.93,20.66-29.44,21.5-1.18.28-2.29.37-3.48.25.04-7.82,8.14-12,11.97-17.96-39.33,7.36-76.57,32.53-89.16,71.88-7.55,23.64-7.54,56.51,6.01,77.89,17.71-16.84,22.25-35.31,48.57-15.57,25.3,19,38.65,61.5,24.09,90.49,18.62,7.06,34.49,2.53,43.27-15.9,11.49-24.17,6.41-53.02-4.05-76.48-4.7-10.53-12.93-19.43-15.24-30.44,4.43-4.45,20.39,20.29,22.16,23.51,5.18,9.38,12.61,28.26,13.78,38.65.87,7.76-.63,16.81,0,24.72,34.79-21.24,31.36-62.28,16.74-95.39-1.56-3.55-12.76-20.8-10.73-22.95,6.5.51,10.67,7.25,14.08,12.11,14.17,20.18,20.29,48.98,15.88,73.28,44.32-27.13,25.51-79.84,5.98-116.85,6.95-5.33,21.62,24.42,23.63,29.56,5.84,15.06,9.63,33.86,6.35,49.83,37.16-34.34,11.69-110.21-28.96-130.61ZM680.81,998.29c-48.24-5.63-97.16,26.74-113.25,71.91l18.85,41.17c14.22-45.11,56.63-75.66,103.06-80.48,3.63-.37,6.79,2.88,9.29-1.14l-17.95-31.46ZM880.07,994.54l-59.21,63-.51,3.28,5.8,13.11,54.64-61.44-.72-17.95ZM870.35,979.53c-2.64-3.25-14.4-15.67-17.69-14.8l-57.82,60.78c-1.03,3.9,6.56,7.43,9.59,10.95,4.43,5.15,7.76,11.22,12.03,16.5l58.91-64.05c.6-3.12-3.03-6.94-5.02-9.38ZM827.66,954.86l-55.43,59.9,17.92,9.74,57.74-64.42c-5.15-3.43-14.16-8.02-20.23-5.21ZM863.11,934.33c-16.6-7.09-20.17-4.27-29.49,10.74,26.23,6.13,48.33,27.46,57.71,52.45,26.23-19.9-7.15-54.19-28.23-63.19ZM894.27,928.64c-10.56-8.76-32.23-21.3-42.65-6.74l26.5,12.42c10.02,6.92,19.69,15.84,26.2,26.22,1.53,2.43,5.36,15.37,8.67,13.02,8.2-14.22-7.64-35.7-18.73-44.92ZM924.03,888.41c-25.02-17-36.3-1.18-51.45,17.71,23.57,8.18,44.71,26.29,50.95,50.95,25.9-21.05,30.29-48.42.49-68.66ZM351.96,799.74c-9.12-.45-20.45-3.42-29.2-3.79-1.26-.04-1.8-2.16-1.54,1.56.27,4.17,13.48,44.86,15.73,44.18l20.21-12.75,70.45-33.66c-24.96,3.66-50.34,5.72-75.65,4.46ZM581.49,720.67c-2.68.79-17.45,14.49-20.54,17.65l53.94-14.95c-9.78-.46-23.96-5.51-33.4-2.7ZM460.57,687.41c-31.4-12.79-65.1-6.07-84.66,22.46-5.99-.72-2.01-5.54-.46-9.47l7.21-10.01c-8.64,2.26-16.72,1.39-25.75,3.45-15.75,3.6-31.93,14.05-40.15,28,39.84,9.5,83.44,4.54,119.93-14.14,3.21-1.65,26.83-16.47,23.9-20.29ZM411.98,625.88c-9.83,18.77-37.37,13.9-51.76,3.09-2.41,10.77-18.86,9.86-27.73,8.97-11.31-1.12-20.92-6.5-29.69-13.27-11.76,8.61-27.27,15.12-42.16,13.21-1.59-.19-10.37-5.5-8.3-.69.49,1.14,7.49,7.72,9.08,8.91,25.72,19.31,71.82,17.81,102.06,12.36,21.57-3.9,42.15-11.73,56.65-28.75l-8.14-3.84ZM427.64,586.25c-18.22-10.19-62.66-21.12-83.15-20.32-4.64.19-18.76,6.98-26.19,8.4-19.04,3.64-34.16,2.77-52.05-4.99-2.22-.96-4.05-3.97-5.62-4.21-9.8-1.47-55,12.61-65.28,18.1-25.32,13.56-41.47,49.44-.01,37.46,7.49-2.17,12.63-6.94,19.52-9.69-3.61,34.25,33.32,15.79,42.71-1.51,5.09-1.59.55,12.18.97,13.95,1.62,7.04,17.8,3.69,22.64,2.19,9.39-2.88,15.21-9.23,22.82-14.7,3.63-.01,5.93,6.55,8.97,9.08,8.76,7.3,27.09,9.54,37.62,6.13,4.6-4.76,1.32-11.15,2.85-16.63,11.27,13.21,33.71,27.45,49.53,13.45l-2.32-14.97c13.75,7.4,33.14,20.95,48.98,12.29,15.63-8.55-13.42-29.25-21.99-34.02ZM773.67,478.42c-26.32-32.72-67.39-27.88-93.62,2.2-9.68,11.09-20.44,40.5-35.96,39.09-23.19-2.11-8.2-48.62-8.21-63.05-20.35,1.78-39.82-3.27-59.94-4.49,4.2,89.86-93.77,139.89-171.34,106.16-45.89-19.96-73.29-58.18-72.86-109.16l-22.56-.87-7.36,32.27c8.76,1.15,23.01,7.54,22.41,18.04-14.37-4.27-24.99-10.86-40.81-8.6-25.47,3.66-38.14,38.41-23.6,58.79,12.48,17.47,37.68,19.03,56.98,15.04,5.86-1.21,24.78-9.8,26.17-9.72,1.92.07,3.73,2.38,6.13,2.79,36.33,6.14,70.1,6.32,100.2,31.63,2.79,2.35,11.39,13.05,12.26,13.3,4.3,1.24,11.76-3.54,22.49,1.39,33.43,15.39,7.22,65.37-7.87,85.53-29.26,39.09-96.84,54.57-143.3,47.66-46.59-6.92-104.53-43.82-106.03-95.48-9.11.42-19.4-3.55-20.99-13.48-22.58,11.91-55.6,7.46-44.15-25.44,10.26-29.5,61.79-40.95,89.11-44.98l-5.98-11.36c-13.8,2.74-27.01,8.67-41.23,9.84-38.23,3.12-69.41-11.73-95.11-38.94-46.12,103.02,9.8,197.79,106.42,240.42,140.7,62.07,342.43,24.87,414.27-121.98,1.87-3.84,6.49-19.36,8.15-20.39,4.58-2.86,19.37,12.56,24.69,15.87,82.99,51.58,166.23-84.21,111.63-152.08ZM442.29,349.25c-107.36,10.07-123.09,159.32-25.95,195.86,58.39,21.96,129.45-8.26,139.93-72.89,11.76-72.48-40.8-129.84-113.98-122.97ZM189.09,344.75c-40.96,4.22-74.48,34.14-82.9,74.42-18.34,87.87,55.6,143.9,135.68,107.21,4.35-24.12,15.52-43.67,41.17-48.72,27.48-69.28-15.72-140.98-93.95-132.91ZM614.89,299.37c-28.57-3.24-54.03-18.46-67.42-44.2-2.77-5.32-3.69-10.86-6.76-15.73-46.89,36.27-119.35,32.47-155.8-16.47-39.13,52.14-121.3,44.5-163.31,0-18.7,23.45-41.25,41.34-72.38,43.69-9.42,26.64-14.82,54.09-18.26,82.12,11.19-4.7,20.95-12.11,32.54-16.14,70.48-24.41,138.5,17.05,144.49,91.57l2.13,2.32,24.41-1.53c17.48-81.94,109.4-119.41,181.51-78.49,30.11,17.09,49.89,42.71,57.17,76.92l65.64,13.77c1.8-12.53,3.88-25.72,10.32-36.75-36.77-20.5-53.38-61.86-34.28-101.08Z"/>
      <path class="cls-4" d="M787.26,418.55c-3.69.76-19.67-.25-19.52,2.91,16.5,9.48,19.85,27.64,11.93,44.2-.94.7-15.55-10.68-18.46-12.24-36.17-19.43-72.12-4-95.12,26.73-3.07,4.09-16.97,28.3-18.97,28.59-5.99.88-5.47-11.49-5.24-15.33,1.11-18.1,6.4-52.41,10.91-70,2.35-9.15,4-16.62,11.48-22.98,2.53-2.16,6.32-2.04,7.55-5.17-19.07-5.45-33.46-12.78-44.06-30.1-11.18-18.23-12.36-37.01-4.6-56.78,2.95-7.52,8.15-13.63,11.22-21.01-7.85-.7-17.09.97-24.72,0-5.2-.66-18.26-5.63-23.3-8.17-25.16-12.69-36.83-39.28-35.9-66.73-2.86-.7-2.88,1.05-4.21,2.5-10.37,11.37-14.07,18.76-29.22,26.23-46.55,22.97-116.46,9.78-132.11-45.22-5.72,6.55-5.86,15.7-11.25,23.21-33.55,46.67-116.67,31.27-148.94-11.36-7.15-9.45-9.47-22.16-18.83-29.83-4.94,12.67,2.79,23.51,7.16,34.94-11.72,18.13-28.57,34.53-50.33,39.51-18.17,4.17-36.66,4.15-46.71-13.84-3.64-2.2-6.65,1.08-6.86,4.52-.81,12.84,17.95,22.62,29.29,21.77-11.18,30.77-18.19,61.79-18.28,94.82l-24.68,32.33c-44.65,2.17-62.28-70.15-22.52-87.03,2.53-1.08,12.93-1.39,11.54-4.9-1.87-4.67-14.32-4.75-19.16-6.32-74.27-24.03-39.31-143.32,37.14-115.81-.25-4.51-4.08-7.36-5.66-11.55-23.9-62.69,39.66-123.65,97.77-84.29l15.76,14.94c.85-43.82,28.41-77.11,71.61-84.95,39.69-7.21,85.46,11.57,107.96,45.2,3.03,4.49,5.62,9.27,7.73,14.28,2.08.42,1.9.3,3.1-.96,3.7-3.88,6.43-8.64,11.15-12.5,37.46-30.52,100.16-19.85,134.78,10.49,2.29-3.43,4.72-6.5,7.25-9.26,41.98-45.88,112.47-1.23,107.39,58.67,57.56-20.38,104.04,25.96,86.9,83.9,33.37-13.47,65.79-6.49,76.45,30.67,11.15,38.85-8.12,70.52-41.97,88.44,4.09,4.17,10.04,4.75,14.85,7.58,32.29,18.97,28.45,81.91-10.31,89.89Z"/>
      <path class="cls-1" d="M656.09,988.54c-38.73,4.37-80.58,37.09-94.38,73.41-22.72-49.11-33.1-104.87-53.57-154.68-1.53-3.71-7.63-21.6-12.33-20.6-2.97.63-2.17,5.68-1.92,7.83,1.55,13.36,15.64,35.9,14.03,47.62-19.62,51-32.2,107.03-54.57,156.81-4.07,9.06-20.37,42.21-30.95,42.47-3.14-7.04-9.21-12.95-15.05-17.96-50.72-43.49-188.91-96.83-254.56-85.35-5.27.92-7.94,4.93-12.8,5.9-8.76-20.07,7.81-44.51,20.19-59.94,7.23-9.02,23.1-21.71,28.35-30.08,12.62-20.1,24.74-64.55,36.58-89.27,3.18-6.64,14.87-31.19,19.04-34.95,1.75-1.58,1.45-1.46,3.72-.9,4.96,1.23,27.75,18.81,31.44,15.88-9.75-27.17-62.65-31.52-46.3-67.27l50.71,11.92c.36,15.86,9.05,34.03,18.93,46.25,3.28,4.06,8.85,10.97,14.1,10.61,1.58-1.56-13.23-26.06-15.24-30.44-3.56-7.78-6.71-15.86-8.75-24.22l16.54,2.94c4.15,17.73,10.03,34.96,20.72,49.85l-4.27,12.35c3.45,3.28,23.23-11.46,27.45-13.73,52.6-28.3,117.01-57.97,172.29-80.91,30.24-12.55,60.11-16.74,90.55-26.31,45.35-14.26-5.17-29.15-25.12-24.38l23.22-25.62c81.49,4.21,79.56,100.32,29.96,143.99-10.48-26.97-29.83-54.53-61.44-56.89-36.77-2.75-100.59,45.73-137.56,61.66-21.28,9.17-42.41,13.13-63.24,20.66-2.7.98-9.26,2.38-8.19,6.04,6.21,5.29,50.92-7.65,60.3-10.86,37.27-12.75,64.77-33.55,98.48-51.34,47.12-24.87,77.76-19.8,99.64,30.77,21.29,49.2,29.96,108.3,51.68,158.08.42,4.56-1.62.71-2.22.71-7.9,0-17.95-.85-25.47,0ZM205.88,961.59c-4.91,6.46,22.67,5.92,24.52,6.17,11.84,1.57,23.76,4.01,35.42,6.53,27.24,5.91,62.66,21.24,88.02,24.38,3.2.4,5.59,1.34,7.82-1.89-47.84-20.41-103.17-40.59-155.78-35.19ZM394.63,1090.42c-1.54-9.5-9.6-15.13-13.73-24.46-5.22-11.78-6.65-23.34-5.7-36.2.53-7.16,4.67-17.96,4.52-24.07-.06-2.48-.08-3.62-2.3-5.14-6.06,4.48-7.42,10.98-9,17.93-6.39,28.11-1.02,57.83,26.22,71.93Z"/>
      <path class="cls-5" d="M331.73,449.17c-.44,50.99,26.97,89.21,72.87,109.17,77.56,33.72,175.53-16.31,171.33-106.17,20.13,1.23,39.61,6.29,59.94,4.5.02,14.43-14.98,60.94,8.22,63.05,15.51,1.41,26.28-28,35.95-39.09,26.23-30.08,67.3-34.92,93.62-2.2,54.59,67.87-28.64,203.66-111.63,152.08-5.33-3.31-20.11-18.72-24.7-15.86-1.67,1.04-6.28,16.56-8.15,20.38-71.83,146.87-273.56,184.06-414.28,121.99-96.61-42.62-152.52-137.4-106.41-240.41,25.68,27.2,56.87,42.05,95.1,38.93,14.22-1.16,27.44-7.1,41.24-9.83l5.97,11.35c-27.33,4.03-78.84,15.48-89.11,44.99-11.44,32.89,21.57,37.35,44.14,25.44,1.59,9.93,11.88,13.9,21,13.49,1.5,51.65,59.44,88.55,106.03,95.48s114.05-8.58,143.29-47.67c15.09-20.17,41.29-70.14,7.88-85.52-10.72-4.94-18.19-.15-22.5-1.4-.87-.25-9.46-10.95-12.25-13.29-30.1-25.31-63.88-25.49-100.2-31.63-2.4-.41-4.21-2.7-6.13-2.79-1.39-.06-20.32,8.51-26.18,9.72-19.29,4-44.49,2.44-56.98-15.04-14.55-20.37-1.86-55.13,23.6-58.78,15.82-2.27,26.44,4.33,40.81,8.59.61-10.5-13.64-16.88-22.41-18.03l7.36-32.27,22.55.86ZM707.78,530.07c8.04-12.51,27.41-21.95,38.97-8.24,4.81,5.7,6.23,15.58,11.96,21.01,4.39,1.9,2.86-9.81,2.6-11.62-3.32-23.34-26.71-33.37-47.1-22.42-15.45,8.29-35.03,37.57-36.38,55.01-.18,2.33-.93,14.02,4.52,10.52,5.99-9.77,11.17-38.35,27.35-33.47,18.75,5.66,12.11,52.81-9.99,55.04l-.93,4.6c36.35,2.58,44.3-63.08,9-70.43Z"/>
      <path class="cls-12" d="M256.81,1132.36l-4.6.94c-5.48,10.15-7.96,21.59-12.71,32.01-.58,1.27-.18,4.13-2.89,3-17.74-7.34-14.75-51.87-1.57-64.07,52.94,17.26,109.78,37.4,150.21,76.8-49.4,92.76-84.42,192.68-115.72,292.9-20.34,11.73-51.94,4.72-73.01-3.35-4.7-1.8-24.88-10.62-25.02-15.2,12.39-72.8,31.7-145.99,53.11-216.64,8.53-28.16,26.44-67.76,31.53-94.32.78-4.06.91-7.97.67-12.07Z"/>
      <path class="cls-5" d="M614.89,299.37c-19.11,39.23-2.48,80.59,34.28,101.09-6.45,11.03-8.52,24.23-10.32,36.74l-65.64-13.76c-7.29-34.22-27.06-59.83-57.18-76.92-72.12-40.92-164.03-3.45-181.51,78.49l-24.41,1.53-2.12-2.32c-6-74.53-74.01-115.99-144.49-91.57-11.61,4.02-21.36,11.43-32.54,16.13,3.43-28.03,8.84-55.48,18.25-82.12,31.14-2.36,53.68-20.24,72.39-43.69,42.01,44.5,124.17,52.14,163.31,0,36.45,48.93,108.9,52.74,155.79,16.46,3.08,4.88,4,10.43,6.76,15.73,13.4,25.74,38.85,40.97,67.43,44.2ZM213.06,266.84c-19.72,1.96-42.51,11.86-54.87,27.53-4.76,6.04-18.45,29.81-14.53,36.5,1.87,2.2,5.68-.41,7.79-1.29,31.4-13.05,41.96-25.47,80.62-22.71,8.71.62,36.73,8.84,42.12,4.62,6.2-4.87.04-19.46-3.89-24.86-12.69-17.4-36.96-21.8-57.24-19.79ZM384.52,313.98c5.3,5.32,33.95-2.1,42.35-2.63,21.34-1.34,44.86,2.4,65.48,7.9,8.66,2.31,45.48,17.54,50.71,13.9,6.1-4.25-7.57-26.19-11.31-30.82-25.79-32.01-101.71-45.64-134.13-18.73-5.96,4.95-20.35,23.11-13.11,30.38Z"/>
      <path class="cls-7" d="M280.79,1682.21l11.89-3.83,9.06-11.14c-1.01,17.05-12.23,32.69-22.5,45.65-26.22,33.1-81.79,76.63-123.08,86.68-48.59,11.82-128.47-.6-146.53-55.21-.22-4.57,1.59-1.02,2.71.29,33.02,38.84,85.55,46.53,134.14,39.25,37.29-5.59,81.12-37.27,105.1-65.7.99-1.18,12.86-16.16,6-13.48-6.44,2.51-20.5,19.79-27.03,25.41-51.29,44.14-117.66,65.72-182.02,32.28-59.81-31.07-35.7-73.94,3.01-109.42,10.9-9.99,55.56-40.18,59.21-48.66,4.19-9.75,2.03-22,12.8-29.15,13.79-9.15,30.01-1.85,42.88,4.91,25.36,13.33,49.87,34.45,73.71,50.64,14.62,9.93,47.56,19.86,30.85,43.94-8.42,12.14-18.43,3.46-27.52-2.32-21.66-13.76-41.79-32.1-63.19-46.18-18.59-12.23-41.06-26.79-64.29-20.34,7.15,6.07,19.49,7.08,28.86,10.83,37.5,15.03,69.83,53.82,104.96,70.33,22.17,10.42,38.5-14.92,33.27-34.77-1.14-4.34-7.8-10.24-7.88-11.17-.11-1.34,6-11.12,6.73-15.36,1.73-10.12-.6-20.43-6.48-28.76-6.32-8.97-21.48-14.92-16.39-28.55,36.7,18.07,56.62,60.11,32.85,97.25-1.95,3.04-13.32,14.46-11.11,16.59ZM115.53,1633.05c-6.46,1.98-7.73,15.34-1.64,19.03,18.95,8.55,18.49-24.21,1.64-19.03ZM258.45,1674.57c9.08,6.03,12.46-21.85,6.49-23.77-8.8-2.84-9.97,21.46-6.49,23.77ZM68.49,1672.79c6.12,7.56,18,1.79,15.77-8.95-3.66-17.66-25.97-3.65-15.77,8.95ZM163.53,1670.49c-9.23,1.9-9.43,16.13-1.69,20.53,17.63,10.03,21.63-24.64,1.69-20.53ZM112.57,1680.97c-11.85,3.43-7.77,26.72,7.98,21.58,11.56-3.77,5.25-25.41-7.98-21.58ZM57.14,1700.45c-10.71,3.05-7.91,26.77,7.98,21.57,11.53-3.77,5.31-25.36-7.98-21.57ZM153.05,1712.41c-12.13,2.31-7.44,23.77,3.8,22,13.85-2.18,9.54-24.54-3.8-22ZM98.43,1741.69c12.24,9.85,22.82-10.62,12.15-17.37-13.13-8.3-20.78,10.42-12.15,17.37Z"/>
      <path class="cls-5" d="M734.75,1205.03c-1.17-10.4-8.6-29.27-13.78-38.66-1.77-3.22-17.73-27.96-22.17-23.51,2.31,11.02,10.54,19.91,15.23,30.45,10.47,23.46,15.55,52.33,4.05,76.48-8.77,18.44-24.65,22.95-43.27,15.9,14.57-29,1.21-71.5-24.1-90.5-26.32-19.75-30.86-1.28-48.56,15.57-13.55-21.38-13.56-54.25-6-77.89,12.58-39.37,49.82-64.53,89.16-71.89-3.84,5.96-11.93,10.14-11.98,17.96,1.19.13,2.3.03,3.47-.25,3.51-.84,22.65-17.61,29.45-21.5,21.61-12.35,47.84-20.35,71.47-8.49,40.64,20.41,66.11,96.28,28.96,130.62,3.27-15.97-.51-34.78-6.36-49.84-2-5.14-16.67-34.89-23.62-29.56,19.54,37.01,38.34,89.71-5.98,116.85,4.4-24.3-1.71-53.09-15.88-73.28-3.41-4.86-7.59-11.59-14.09-12.11-2.03,2.17,9.17,19.41,10.74,22.96,14.62,33.11,18.05,74.15-16.74,95.39-.63-7.92.87-16.96,0-24.72Z"/>
      <path class="cls-7" d="M348.21,1682.2l26.49-8.7c59.35-26.73,69.22-100.01,75.37-157.59-2.6.64-3.32,3.46-4.08,5.64-14.09,40.52-10.02,84.26-40.88,120.92-16.48,19.57-68.36,47.22-89.16,23.3-11.57-13.31-3.56-19.9-3.56-33.76,0-15.69-5.98-32.24-15.06-44.87l23.91-75.73c24.79,12.02,56.86,10.3,74.9-11.97-9.72.45-17.13,6.19-26.89,8.3-26.64,5.77-62.21-4.24-53.31-38.33,2.76-10.57,15.83-16.45,15.76-1.46l-3.73-4.46c-4.23,3.02-1.92,10.58.72,14.23,13.17,18.27,57.47,1,71.21-11.23,3.61.2,1.88,18.55,2.6,22.83,2.93,17.49,23.75,17.94,36.1,9.85,22.1-14.47,26.57-79.58,25.02-103.93-.34-5.35-2.77-10.33-2.31-15.67,37.4,21.07,32.26,58.6,22.48,94.38-4.03,14.76-11.93,30.35-15.05,44.87-7.56,35.13-5.42,65.03-19,100.86-17.57,46.34-49.61,72.52-101.52,62.51ZM329.77,1540.16c-9.53,2.92-5.55,22.53,5.33,20.47,10.9-2.07,9.23-24.93-5.33-20.47ZM389.81,1541.72c-16.79-10.65-25.09,21.19-8.05,20.56,11.83-.43,12.76-12.04,8.05-20.56ZM364.3,1597.91c4.41-3.99,3.65-17.03-2.16-18.82-10.81-3.32-15.03,16.19-5.38,20.52,2.22.61,5.84-.16,7.54-1.7ZM317.46,1585.42c-8.36.38-12.34,13.04-5.29,19.7,12.43,11.74,21.35-20.43,5.29-19.7ZM376.22,1604.56c-7.43,2.26-8.45,20.94,2.62,19.26,9.49-1.43,9.76-23.03-2.62-19.26ZM333.61,1639.86c10.29,9.28,19.12-12.14,9.09-18.91-10.25-1.82-16.56,12.19-9.09,18.91Z"/>
      <path class="cls-2" d="M442.29,349.25c73.18-6.86,125.75,50.49,113.99,122.98-10.49,64.62-81.56,94.84-139.94,72.88-97.14-36.54-81.42-185.78,25.95-195.85ZM455.68,394.1c-50.05,8.49-57.81,122.16,4.2,118.05,64.62-4.29,64.77-129.75-4.2-118.05Z"/>
      <path class="cls-12" d="M223.85,1100.92c-7.24,17.09-13.33,33.49-9,52.42-1.36,1.53-24.87-11.54-29.95-8.98-.41,2.62-.08,3.3,1.54,5.18,5.87,6.8,42.35,19.01,41.68,26.76-8.8,13.05-19.21,25.1-27.37,38.59-12.66,20.91-23.81,44.6,3.73,59.28l-24.4,92.34-3.21,2.41c-52.09-32.33-100.04-56.65-88.89-127.46,8.1-51.47,39.19-103.01,66.08-146.67,23.17-4.61,47.02,1.29,69.79,6.13Z"/>
      <path class="cls-2" d="M189.08,344.74c78.24-8.07,121.43,63.63,93.97,132.92-25.66,5.04-36.83,24.59-41.18,48.72-80.08,36.69-154.02-19.34-135.67-107.21,8.41-40.28,41.93-70.2,82.89-74.43ZM226.48,391.15c-47.92,6.61-56.45,107.39-3.38,108.12,59.05.81,61.13-116.08,3.38-108.12Z"/>
      <path class="cls-4" d="M400.66,607.99l2.31,14.96c-15.82,13.99-38.26-.24-49.53-13.46-1.53,5.49,1.75,11.88-2.84,16.63-10.53,3.42-28.85,1.17-37.63-6.13-3.04-2.53-5.35-9.09-8.96-9.07-7.61,5.46-13.43,11.82-22.82,14.7-4.85,1.49-21.03,4.85-22.65-2.2-.41-1.77,4.12-15.54-.96-13.95-9.41,17.31-46.33,35.78-42.72,1.52-6.89,2.76-12.03,7.53-19.51,9.69-41.46,11.99-25.31-23.89.01-37.44,10.27-5.5,55.47-19.58,65.26-18.1,1.58.24,3.41,3.25,5.63,4.2,17.89,7.75,33,8.63,52.04,4.98,7.44-1.42,21.55-8.21,26.19-8.4,20.5-.81,64.94,10.12,83.15,20.3,8.57,4.79,37.62,25.48,21.99,34.03-15.84,8.66-35.22-4.88-48.97-12.28Z"/>
      <path class="cls-1" d="M396.18,1175.82c-1.52-5.1-8.41-9.96-12.8-13.44-37.97-30.14-99.28-55.6-146.04-68.21-29.44-7.94-60.82-14.51-91.31-9.79-5.96-12.16-1.23-24.47,4.72-35.58,4.64.07,9.33-1.78,13.86-1.89,63.17-1.4,155.56,33.39,208.94,66.86,7.62,4.78,35.51,22.83,37.31,30.23,1.35,5.58-11.98,33.74-14.68,31.82Z"/>
      <path class="cls-9" d="M355.9,1358.8c38.95-11.94,61.05,9.29,58.21,48.46-2.66,36.65-20.56,64.42-59.33,68.01-17.2,1.59-11.8-.03-14.72-11.88-4.91-19.93-11.3-15.1-24.78-27.63,21.34-20.12,37.33-47.43,40.62-76.96Z"/>
      <path class="cls-12" d="M276.28,1482.96c-2.25,12.26-5.69,41.67-17.56,47.6-21.46,10.72-88.22,5.08-102.03-17.15-6.69-10.76-1.39-41.85,4.99-52.9,27.84,25.58,79.39,38.71,114.61,22.45Z"/>
      <path class="cls-1" d="M586.4,1111.38l-18.85-41.17c16.09-45.17,65.01-77.55,113.24-71.92l17.95,31.46c-2.49,4.02-5.65.77-9.28,1.14-46.43,4.82-88.85,35.38-103.06,80.49Z"/>
      <path class="cls-9" d="M249.33,1545.87c-.29,13.6-5.62,30.97,3,42.7,11.28,15.35,30.15,22.57,14.23,47.17l-105.75-69.8,4.63-30.54c7.22,1.35,13.39,5.05,20.64,7.07,21.25,5.92,41.44,6.16,63.25,3.42Z"/>
      <path class="cls-7" d="M414.48,1493.08c-2.57-4.99-3.54-9.7-3.37-15.33,1.12-37.94,27.6-80.7,1.86-115.76-9.81-13.35-26.55-17.84-42.29-13.91,11.3-10.47,36.21-6.79,49.42-.71,39.6,18.23,37.63,64.53,30.77,101.14-3.42,18.26-10.47,54.46-36.39,44.56ZM421.98,1484.11c8.3,8.99,21.24-24.13,10.72-26.51-7.23-1.63-16.67,20.06-10.72,26.51Z"/>
      <path class="cls-8" d="M568,1252.65c3.87,4.82.48,15.21,10.33,16.04,4.44.37,6.97-2.24,12.61-.81,4.91,1.24,16.5,11.95,17.64,16.87,1.04,4.45-.47,9.93,2.09,14.38,2.39,4.13,7.8,2.67,7.25,6.31-.51,3.38-7.81,6.48-11.02,8.48-15.09,9.42-31.86,16.64-47.44,25.21-1.76-12.98-14.15-23.05-26.97-23.21l25.67-62.71,3.72-3.82c1.01-.16,5.44,2.44,6.11,3.28Z"/>
      <path class="cls-6" d="M460.57,687.41c2.94,3.82-20.69,18.63-23.9,20.28-36.5,18.69-80.09,23.65-119.92,14.15,8.23-13.95,24.4-24.41,40.15-28,9.03-2.06,17.11-1.19,25.76-3.44l-7.21,10.01c-1.54,3.93-5.53,8.75.45,9.46,19.58-28.53,53.27-35.25,84.67-22.45Z"/>
      <path class="cls-2" d="M360.22,628.96c14.4,10.81,41.93,15.68,51.76-3.09l8.14,3.83c-14.49,17.02-35.07,24.86-56.65,28.75-30.23,5.46-76.34,6.96-102.06-12.36-1.58-1.19-8.58-7.77-9.08-8.91-2.06-4.8,6.7.49,8.3.69,14.89,1.9,30.4-4.6,42.15-13.22,8.78,6.77,18.39,12.16,29.7,13.28,8.86.88,25.31,1.79,27.73-8.98Z"/>
      <path class="cls-3" d="M614.91,1282.19c-4.16-13.03-14.78-17.75-26.42-22.33-1.54-.61-2.57.8-2.05-2.37l65.16-66.66c6.68,4.89,19.1,26.17,16.98,33.35l-53.67,58.01Z"/>
      <path class="cls-3" d="M852.66,964.73c3.29-.86,15.05,11.56,17.69,14.81,1.99,2.44,5.62,6.26,5.01,9.38l-58.91,64.05c-4.27-5.28-7.59-11.34-12.02-16.49-3.03-3.52-10.62-7.06-9.58-10.95l57.81-60.79Z"/>
      <path class="cls-10" d="M923.54,957.07c-6.25-24.66-27.39-42.78-50.95-50.96,15.14-18.9,26.42-34.71,51.44-17.71,29.8,20.25,25.41,47.62-.49,68.67Z"/>
      <path class="cls-12" d="M343.24,1339.58c11.69,12.53-4.64,49.57-12.24,62.49-8.66,14.72-20.89,28.96-38.22,32.93l35.97-101.87c.84-.63,13.02,4.87,14.5,6.45Z"/>
      <path class="cls-5" d="M427.6,795.28l-70.44,33.66-20.21,12.75c-2.25.67-15.47-40.02-15.74-44.18-.24-3.72.29-1.61,1.55-1.56,8.74.37,20.07,3.34,29.2,3.79,25.31,1.25,50.68-.81,75.64-4.46Z"/>
      <path class="cls-3" d="M577.45,1258.22c.65-6.68-4.08-13.29-10.49-15.01l.7-3,58.62-61.23c7.89-5.03,16.57,2.3,21.54,8.07l-70.37,71.17Z"/>
      <path class="cls-11" d="M833.63,945.07c9.32-15.02,12.88-17.83,29.48-10.74,21.08,9,54.46,43.29,28.22,63.19-9.38-24.98-31.47-46.32-57.7-52.45Z"/>
      <path class="cls-3" d="M790.15,1024.49l-17.92-9.74,55.43-59.9c6.07-2.8,15.07,1.78,20.22,5.21l-57.74,64.43Z"/>
      <polygon class="cls-3" points="880.06 994.54 880.79 1012.49 826.16 1073.93 820.35 1060.83 820.87 1057.54 880.06 994.54"/>
      <path class="cls-3" d="M626.85,1303.16c-4.25-7.07-13.85-5.77-9.68-14.95l53.13-58.45c8.34,33.27-29.37,49.13-43.45,73.4Z"/>
      <path class="cls-11" d="M913.01,973.55c-3.32,2.36-7.16-10.59-8.68-13.01-6.52-10.38-16.18-19.3-26.21-26.22l-26.5-12.42c10.43-14.56,32.08-2.02,42.65,6.75,11.09,9.21,26.92,30.69,18.73,44.9Z"/>
      <path class="cls-1" d="M614.88,723.37l-53.93,14.95c3.09-3.16,17.85-16.86,20.53-17.66,9.44-2.8,23.62,2.23,33.4,2.71Z"/>
      <path d="M205.88,961.59c52.61-5.39,107.94,14.78,155.78,35.19-2.24,3.23-4.63,2.29-7.82,1.89-25.36-3.14-60.77-18.47-88.02-24.38-11.66-2.53-23.58-4.96-35.42-6.53-1.85-.25-29.43.29-24.52-6.17Z"/>
      <path d="M394.63,1090.42c-27.24-14.1-32.61-43.82-26.22-71.93,1.58-6.96,2.94-13.45,9-17.93,2.22,1.52,2.24,2.67,2.3,5.14.15,6.11-3.99,16.91-4.52,24.07-.95,12.86.49,24.42,5.7,36.2,4.13,9.33,12.19,14.95,13.73,24.46Z"/>
      <path d="M707.78,530.07c35.3,7.35,27.35,73-9,70.43l.93-4.6c22.1-2.23,28.74-49.38,9.99-55.04-16.18-4.88-21.36,23.7-27.35,33.47-5.45,3.49-4.7-8.19-4.52-10.52,1.35-17.43,20.93-46.71,36.38-55.01,20.39-10.95,43.79-.93,47.1,22.42.26,1.81,1.78,13.52-2.6,11.62-5.73-5.43-7.16-15.32-11.96-21.01-11.56-13.71-30.94-4.26-38.97,8.24Z"/>
      <path d="M384.52,313.98c-7.24-7.27,7.15-25.43,13.11-30.38,32.42-26.91,108.33-13.28,134.13,18.73,3.74,4.64,17.41,26.58,11.31,30.82-5.23,3.64-42.05-11.59-50.71-13.9-20.62-5.5-44.14-9.24-65.48-7.9-8.4.53-37.05,7.95-42.35,2.63Z"/>
      <path d="M213.06,266.84c20.28-2.01,44.55,2.39,57.24,19.79,3.94,5.4,10.1,19.99,3.89,24.86-5.38,4.23-33.41-4-42.12-4.62-38.66-2.76-49.23,9.67-80.62,22.71-2.11.88-5.93,3.48-7.79,1.29-3.92-6.69,9.77-30.46,14.53-36.5,12.36-15.67,35.15-25.58,54.87-27.53Z"/>
      <path d="M112.57,1680.97c13.23-3.83,19.55,17.8,7.98,21.58-15.75,5.14-19.83-18.15-7.98-21.58Z"/>
      <path d="M163.53,1670.49c19.94-4.11,15.94,30.56-1.69,20.53-7.74-4.4-7.54-18.63,1.69-20.53Z"/>
      <path d="M57.14,1700.45c13.29-3.79,19.51,17.8,7.98,21.57-15.89,5.2-18.68-18.52-7.98-21.57Z"/>
      <path d="M153.05,1712.41c13.34-2.54,17.65,19.83,3.8,22-11.24,1.77-15.92-19.69-3.8-22Z"/>
      <path d="M98.43,1741.69c-8.63-6.95-.98-25.67,12.15-17.37,10.67,6.74.08,27.22-12.15,17.37Z"/>
      <path d="M115.53,1633.05c16.86-5.17,17.31,27.58-1.64,19.03-6.09-3.69-4.83-17.05,1.64-19.03Z"/>
      <path d="M68.49,1672.79c-10.2-12.6,12.11-26.62,15.77-8.95,2.23,10.75-9.65,16.51-15.77,8.95Z"/>
      <path d="M258.45,1674.57c-3.48-2.31-2.32-26.62,6.49-23.77,5.97,1.93,2.59,29.8-6.49,23.77Z"/>
      <path d="M389.81,1541.72c4.71,8.52,3.78,20.13-8.05,20.56-17.04.62-8.74-31.22,8.05-20.56Z"/>
      <path d="M317.46,1585.42c16.06-.73,7.14,31.44-5.29,19.7-7.05-6.66-3.07-19.32,5.29-19.7Z"/>
      <path d="M329.77,1540.16c14.55-4.46,16.23,18.4,5.33,20.47-10.88,2.07-14.86-17.54-5.33-20.47Z"/>
      <path d="M333.61,1639.86c-7.46-6.73-1.15-20.73,9.09-18.91,10.02,6.78,1.2,28.19-9.09,18.91Z"/>
      <path d="M364.3,1597.91c-1.7,1.54-5.33,2.31-7.54,1.7-9.65-4.33-5.43-23.84,5.38-20.52,5.81,1.79,6.57,14.83,2.16,18.82Z"/>
      <path d="M376.22,1604.56c12.39-3.77,12.11,17.83,2.62,19.26-11.08,1.67-10.05-17-2.62-19.26Z"/>
      <path d="M455.68,394.1c68.96-11.7,68.82,113.76,4.2,118.05-62,4.11-54.24-109.56-4.2-118.05Z"/>
      <path d="M226.48,391.15c57.75-7.96,55.67,108.93-3.38,108.12-53.06-.73-44.54-101.51,3.38-108.12Z"/>
      <path d="M421.98,1484.11c-5.95-6.45,3.48-28.14,10.72-26.51,10.53,2.38-2.42,35.49-10.72,26.51Z"/>
      <ellipse class="cls-2" cx="247.71" cy="435.4" rx="14.46" ry="20.2"/>
      <ellipse class="cls-2" cx="486.16" cy="440.27" rx="14.46" ry="20.2"/>
      <path d="M553.95,59.4c-2.53,2.76-4.96,5.83-7.25,9.26-34.62-30.34-97.32-41.01-134.78-10.49-4.72,3.85-7.45,8.61-11.15,12.5-1.2,1.26-1.02,1.38-3.1.96-2.11-5-4.7-9.78-7.73-14.28,2.43-2.68,5.18-5.24,8.23-7.63.87,1.29,1.69,2.59,2.5,3.93h2.94c2.67-6.46,10.33-10.75,16.58-13.58,1.23-1.17.84-.95,2.53-1.84,3.42-1.38,4.02-2.19,7.72-3.27.61-.24,1.07-.5,1.68-.79,33.53-9.05,71.61-5.81,101.86,11.99,1,.75.87.76,2.54,1.41,3.72,2.16,2.69,1.5,6.47,3.77,1.5.51,2.05,1.64,3.71.8.03-.01.06-.03.1-.06,2.65,2.32,5.05,4.78,7.15,7.33Z"/>
    </g>
  </g>
</svg>